M48
; DRILL file {KiCad 9.0.0} date 2025-11-14T21:10:00+0100
; FORMAT={-:-/ absolute / metric / decimal}
; #@! TF.CreationDate,2025-11-14T21:10:00+01:00
; #@! TF.GenerationSoftware,Kicad,Pcbnew,9.0.0
; #@! TF.FileFunction,Plated,1,4,PTH
FMAT,2
METRIC
; #@! TA.AperFunction,Plated,PTH,ComponentDrill
T1C0.800
; #@! TA.AperFunction,Plated,PTH,ViaDrill
T2C1.000
; #@! TA.AperFunction,Plated,PTH,ComponentDrill
T3C1.000
; #@! TA.AperFunction,Plated,PTH,ComponentDrill
T4C1.100
; #@! TA.AperFunction,Plated,PTH,ComponentDrill
T5C1.300
%
G90
G05
T1
X233.59Y-30.04
X233.59Y-32.58
X233.59Y-35.12
X233.59Y-37.66
X233.59Y-40.2
X233.59Y-42.74
X233.59Y-45.28
X233.59Y-47.82
X235.18Y-166.34
X235.18Y-168.88
X235.18Y-171.42
X235.18Y-173.96
X235.18Y-176.5
X235.18Y-179.04
X235.18Y-181.58
X235.18Y-184.12
X246.29Y-30.04
X246.29Y-32.58
X246.29Y-35.12
X246.29Y-37.66
X246.29Y-40.2
X246.29Y-42.74
X246.29Y-45.28
X246.29Y-47.82
X247.88Y-166.34
X247.88Y-168.88
X247.88Y-171.42
X247.88Y-173.96
X247.88Y-176.5
X247.88Y-179.04
X247.88Y-181.58
X247.88Y-184.12
X253.32Y-30.07
X253.32Y-32.61
X253.32Y-35.15
X253.32Y-37.69
X253.32Y-40.23
X253.32Y-42.77
X253.32Y-45.31
X253.32Y-47.85
X253.32Y-166.23
X253.32Y-168.77
X253.32Y-171.31
X253.32Y-173.85
X253.32Y-176.39
X253.32Y-178.93
X253.32Y-181.47
X253.32Y-184.01
X266.02Y-30.07
X266.02Y-32.61
X266.02Y-35.15
X266.02Y-37.69
X266.02Y-40.23
X266.02Y-42.77
X266.02Y-45.31
X266.02Y-47.85
X266.02Y-166.23
X266.02Y-168.77
X266.02Y-171.31
X266.02Y-173.85
X266.02Y-176.39
X266.02Y-178.93
X266.02Y-181.47
X266.02Y-184.01
X303.32Y-50.65
X303.32Y-53.19
X303.32Y-55.73
X303.32Y-58.27
X303.32Y-60.81
X303.32Y-63.35
X303.32Y-65.89
X303.32Y-68.43
X304.4Y-78.123
X304.4Y-80.028
X304.4Y-81.932
X304.4Y-83.837
X304.6Y-96.322
X304.6Y-98.227
X304.6Y-100.132
X304.6Y-102.037
X304.6Y-131.123
X304.6Y-133.028
X304.6Y-134.933
X304.6Y-136.838
X304.6Y-148.722
X304.6Y-150.627
X304.6Y-152.532
X304.6Y-154.438
X306.14Y-164.4
X306.14Y-166.94
X306.14Y-169.48
X306.14Y-172.02
X306.14Y-174.56
X306.14Y-177.1
X306.14Y-179.64
X306.14Y-182.18
X316.02Y-50.65
X316.02Y-53.19
X316.02Y-55.73
X316.02Y-58.27
X316.02Y-60.81
X316.02Y-63.35
X316.02Y-65.89
X316.02Y-68.43
X318.84Y-164.4
X318.84Y-166.94
X318.84Y-169.48
X318.84Y-172.02
X318.84Y-174.56
X318.84Y-177.1
X318.84Y-179.64
X318.84Y-182.18
T2
X237.82Y-184.43
X238.52Y-132.23
X240.27Y-121.48
X243.27Y-72.48
X243.52Y-60.43
X244.82Y-74.83
X245.02Y-119.83
X254.02Y-99.73
X258.04Y-28.6
X261.62Y-84.79
X263.52Y-104.23
X271.81Y-101.73
X274.58Y-155.24
X276.53Y-156.62
X278.42Y-102.23
X278.66Y-178.83
X280.22Y-177.03
X280.62Y-102.63
X281.82Y-174.63
X283.42Y-129.83
X283.42Y-163.83
X285.22Y-97.03
X286.12Y-170.53
X286.82Y-167.23
X287.62Y-82.63
X288.62Y-109.83
X288.62Y-164.03
X291.02Y-62.73
T3
X229.7Y-171.23
X229.7Y-173.77
X229.7Y-176.31
X229.7Y-178.85
X230.12Y-35.08
X230.12Y-37.62
X230.12Y-40.16
X230.12Y-42.7
X230.95Y-127.42
X230.95Y-129.96
X230.95Y-132.5
X230.95Y-135.04
X230.95Y-137.58
X230.95Y-140.12
X230.95Y-142.66
X230.95Y-145.2
X230.95Y-147.74
X230.95Y-150.28
X230.95Y-152.82
X230.95Y-155.36
X230.99Y-122.34
X230.99Y-124.88
X230.99Y-157.767
X231.0Y-69.0
X231.0Y-71.54
X231.0Y-74.08
X231.0Y-76.62
X231.0Y-79.16
X231.0Y-81.7
X231.0Y-84.24
X231.0Y-86.78
X231.0Y-89.32
X231.0Y-91.86
X231.0Y-94.4
X231.0Y-96.94
X231.0Y-99.48
X231.0Y-102.02
X231.0Y-104.56
X231.0Y-107.1
X231.0Y-109.64
X231.0Y-112.18
X231.0Y-114.72
X231.0Y-117.26
X231.0Y-119.8
X233.45Y-53.65
X233.49Y-127.42
X233.49Y-129.96
X233.49Y-132.5
X233.49Y-135.04
X233.49Y-137.58
X233.49Y-140.12
X233.49Y-142.66
X233.49Y-145.2
X233.49Y-147.74
X233.49Y-150.28
X233.49Y-152.82
X233.49Y-155.36
X233.53Y-122.34
X233.53Y-124.88
X233.53Y-157.767
X233.54Y-69.0
X233.54Y-71.54
X233.54Y-74.08
X233.54Y-76.62
X233.54Y-79.16
X233.54Y-81.7
X233.54Y-84.24
X233.54Y-86.78
X233.54Y-89.32
X233.54Y-91.86
X233.54Y-94.4
X233.54Y-96.94
X233.54Y-99.48
X233.54Y-102.02
X233.54Y-104.56
X233.54Y-107.1
X233.54Y-109.64
X233.54Y-112.18
X233.54Y-114.72
X233.54Y-117.26
X233.54Y-119.8
X235.99Y-53.65
X238.53Y-53.65
X239.02Y-141.69
X239.02Y-144.23
X239.02Y-146.77
X241.07Y-53.65
X256.42Y-129.83
X256.42Y-132.37
X256.42Y-134.91
X256.42Y-137.45
X256.62Y-142.83
X256.62Y-145.37
X256.62Y-147.91
X256.62Y-150.45
X269.76Y-35.69
X269.76Y-38.23
X269.76Y-40.77
X269.76Y-43.31
X270.52Y-171.23
X270.52Y-173.77
X270.52Y-176.31
X270.52Y-178.85
X271.02Y-192.23
X273.56Y-192.23
X276.1Y-192.23
X277.52Y-53.73
X278.07Y-42.63
X278.07Y-45.17
X280.06Y-53.73
X280.28Y-192.23
X282.6Y-53.73
X282.82Y-192.23
X285.14Y-53.73
X291.95Y-69.0
X291.96Y-71.56
X291.96Y-74.1
X291.96Y-76.64
X291.96Y-79.18
X291.96Y-81.72
X291.96Y-84.26
X291.96Y-86.8
X291.96Y-89.34
X291.96Y-91.88
X291.96Y-94.42
X291.96Y-96.96
X291.96Y-99.5
X291.96Y-102.04
X291.96Y-104.58
X291.96Y-107.12
X291.96Y-109.66
X291.96Y-112.2
X291.96Y-114.74
X291.96Y-117.28
X291.96Y-119.82
X291.96Y-122.36
X291.96Y-124.9
X291.96Y-127.44
X291.96Y-129.98
X291.96Y-132.52
X291.96Y-135.06
X291.96Y-137.6
X291.96Y-140.14
X291.96Y-142.68
X291.96Y-145.22
X291.96Y-147.76
X291.96Y-150.3
X291.96Y-152.84
X291.96Y-155.38
X291.96Y-157.92
X292.98Y-50.12
X294.5Y-69.0
X294.5Y-71.56
X294.5Y-74.1
X294.5Y-76.64
X294.5Y-79.18
X294.5Y-81.72
X294.5Y-84.26
X294.5Y-86.8
X294.5Y-89.34
X294.5Y-91.88
X294.5Y-94.42
X294.5Y-96.96
X294.5Y-99.5
X294.5Y-102.04
X294.5Y-104.58
X294.5Y-107.12
X294.5Y-109.66
X294.5Y-112.2
X294.5Y-114.74
X294.5Y-117.28
X294.5Y-119.82
X294.5Y-122.36
X294.5Y-124.9
X294.5Y-127.44
X294.5Y-129.98
X294.5Y-132.52
X294.5Y-135.06
X294.5Y-137.6
X294.5Y-140.14
X294.5Y-142.68
X294.5Y-145.22
X294.5Y-147.76
X294.5Y-150.3
X294.5Y-152.84
X294.5Y-155.38
X294.5Y-157.92
X295.52Y-50.12
X310.8Y-114.0
X310.8Y-116.54
X328.02Y-79.69
X328.02Y-82.23
X328.42Y-132.09
X328.42Y-134.63
X328.62Y-97.43
X328.62Y-99.97
X328.62Y-150.09
X328.62Y-152.63
T4
X279.94Y-37.67
X282.48Y-37.67
X285.02Y-37.67
X314.548Y-113.992
X314.548Y-116.532
X314.548Y-119.072
T5
X279.9Y-184.63
X292.89Y-41.88
X302.4Y-184.63
X312.02Y-74.63
X312.02Y-87.33
X312.22Y-92.83
X312.22Y-105.53
X312.22Y-127.63
X312.22Y-140.33
X312.22Y-145.23
X312.22Y-157.93
X314.56Y-74.63
X314.56Y-87.33
X314.76Y-92.83
X314.76Y-105.53
X314.76Y-127.63
X314.76Y-140.33
X314.76Y-145.23
X314.76Y-157.93
X315.39Y-41.88
X317.1Y-74.63
X317.1Y-87.33
X317.3Y-92.83
X317.3Y-105.53
X317.3Y-127.63
X317.3Y-140.33
X317.3Y-145.23
X317.3Y-157.93
M30
