%TF.GenerationSoftware,KiCad,Pcbnew,9.0.0*%
%TF.CreationDate,2025-11-14T21:09:55+01:00*%
%TF.ProjectId,PCBV2,50434256-322e-46b6-9963-61645f706362,rev?*%
%TF.SameCoordinates,Original*%
%TF.FileFunction,Soldermask,Bot*%
%TF.FilePolarity,Negative*%
%FSLAX46Y46*%
G04 Gerber Fmt 4.6, Leading zero omitted, Abs format (unit mm)*
G04 Created by KiCad (PCBNEW 9.0.0) date 2025-11-14 21:09:55*
%MOMM*%
%LPD*%
G01*
G04 APERTURE LIST*
G04 Aperture macros list*
%AMRoundRect*
0 Rectangle with rounded corners*
0 $1 Rounding radius*
0 $2 $3 $4 $5 $6 $7 $8 $9 X,Y pos of 4 corners*
0 Add a 4 corners polygon primitive as box body*
4,1,4,$2,$3,$4,$5,$6,$7,$8,$9,$2,$3,0*
0 Add four circle primitives for the rounded corners*
1,1,$1+$1,$2,$3*
1,1,$1+$1,$4,$5*
1,1,$1+$1,$6,$7*
1,1,$1+$1,$8,$9*
0 Add four rect primitives between the rounded corners*
20,1,$1+$1,$2,$3,$4,$5,0*
20,1,$1+$1,$4,$5,$6,$7,0*
20,1,$1+$1,$6,$7,$8,$9,0*
20,1,$1+$1,$8,$9,$2,$3,0*%
G04 Aperture macros list end*
%ADD10O,1.700000X1.700000*%
%ADD11R,1.700000X1.700000*%
%ADD12R,2.000000X1.905000*%
%ADD13O,2.000000X1.905000*%
%ADD14C,1.600000*%
%ADD15R,1.600000X1.600000*%
%ADD16R,1.560000X1.560000*%
%ADD17C,1.560000*%
%ADD18RoundRect,0.237500X-0.712500X-1.012500X0.712500X-1.012500X0.712500X1.012500X-0.712500X1.012500X0*%
%ADD19O,1.900000X2.500000*%
%ADD20O,1.600000X1.400000*%
%ADD21C,1.905000*%
%ADD22R,1.505000X1.505000*%
%ADD23R,1.905000X1.905000*%
%ADD24C,2.700000*%
%ADD25C,3.000000*%
%ADD26R,1.905000X2.000000*%
%ADD27O,1.905000X2.000000*%
%ADD28RoundRect,0.250000X0.250000X0.475000X-0.250000X0.475000X-0.250000X-0.475000X0.250000X-0.475000X0*%
%ADD29RoundRect,0.250000X-0.250000X-0.475000X0.250000X-0.475000X0.250000X0.475000X-0.250000X0.475000X0*%
%ADD30RoundRect,0.250000X-0.475000X0.250000X-0.475000X-0.250000X0.475000X-0.250000X0.475000X0.250000X0*%
%ADD31RoundRect,0.250000X0.475000X-0.250000X0.475000X0.250000X-0.475000X0.250000X-0.475000X-0.250000X0*%
%ADD32RoundRect,0.100000X-0.100000X0.217500X-0.100000X-0.217500X0.100000X-0.217500X0.100000X0.217500X0*%
%ADD33O,1.600000X1.600000*%
G04 APERTURE END LIST*
D10*
%TO.C,BackB_output1*%
X328620000Y-150090000D03*
D11*
X328620000Y-152630000D03*
%TD*%
%TO.C,FrontB_output1*%
X328620000Y-99970000D03*
D10*
X328620000Y-97430000D03*
%TD*%
D11*
%TO.C,FrontA_output1*%
X328020000Y-79690000D03*
D10*
X328020000Y-82230000D03*
%TD*%
D11*
%TO.C,BazkB_output1*%
X328420000Y-134630000D03*
D10*
X328420000Y-132090000D03*
%TD*%
D11*
%TO.C,bat_7V_ac1*%
X310800000Y-116540000D03*
D10*
X310800000Y-114000000D03*
%TD*%
D12*
%TO.C,sabilizator_adc1*%
X314547500Y-113992500D03*
D13*
X314547500Y-116532500D03*
X314547500Y-119072500D03*
%TD*%
D11*
%TO.C,Back1*%
X318840000Y-182180000D03*
D14*
X318840000Y-179640000D03*
X318840000Y-177100000D03*
X318840000Y-174560000D03*
X318840000Y-172020000D03*
X318840000Y-169480000D03*
X318840000Y-166940000D03*
D15*
X318840000Y-164400000D03*
D16*
X306140000Y-164400000D03*
D17*
X306140000Y-166940000D03*
X306140000Y-169480000D03*
X306140000Y-172020000D03*
X306140000Y-174560000D03*
X306140000Y-177100000D03*
X306140000Y-179640000D03*
X306140000Y-182180000D03*
%TD*%
D18*
%TO.C,U4*%
X312220000Y-92830000D03*
D19*
X314760000Y-92830000D03*
X317300000Y-92830000D03*
X317300000Y-105530000D03*
X314760000Y-105530000D03*
X312220000Y-105530000D03*
D20*
X304600000Y-102037500D03*
X304600000Y-100132500D03*
X304600000Y-98227500D03*
X304600000Y-96322500D03*
%TD*%
D21*
%TO.C,U1*%
X291960000Y-137600000D03*
X291960000Y-140140000D03*
X291960000Y-145220000D03*
X294500000Y-152840000D03*
X231000000Y-119800000D03*
X294500000Y-150300000D03*
X291960000Y-152840000D03*
X294500000Y-135060000D03*
X294500000Y-96960000D03*
D22*
X294500000Y-69000000D03*
D21*
X291960000Y-150300000D03*
X291960000Y-135060000D03*
X291960000Y-132520000D03*
X291960000Y-84260000D03*
X291950000Y-69000000D03*
X233540000Y-109640000D03*
X233540000Y-79160000D03*
X233540000Y-69000000D03*
X233490000Y-147740000D03*
X231000000Y-91860000D03*
D23*
X231000000Y-69000000D03*
D21*
X230950000Y-135040000D03*
X294500000Y-94420000D03*
X294500000Y-91880000D03*
X294500000Y-84260000D03*
X294500000Y-74100000D03*
X291960000Y-147760000D03*
X291960000Y-127440000D03*
X291960000Y-107120000D03*
X291960000Y-104580000D03*
X291960000Y-94420000D03*
X291960000Y-86800000D03*
X291960000Y-79180000D03*
X233540000Y-86780000D03*
X233540000Y-84240000D03*
X233540000Y-71540000D03*
X231000000Y-114720000D03*
X231000000Y-112180000D03*
X231000000Y-86780000D03*
X231000000Y-74080000D03*
X291960000Y-142680000D03*
X294500000Y-122360000D03*
X294500000Y-119820000D03*
X291960000Y-124900000D03*
X291960000Y-122360000D03*
X233540000Y-114720000D03*
X233540000Y-112180000D03*
X291960000Y-119820000D03*
X233490000Y-145200000D03*
X233490000Y-142660000D03*
X233490000Y-140120000D03*
X233490000Y-129960000D03*
X233490000Y-132500000D03*
X233540000Y-117260000D03*
X230950000Y-142660000D03*
X230950000Y-145200000D03*
X294500000Y-142680000D03*
X294500000Y-140140000D03*
X294500000Y-137600000D03*
X291960000Y-117280000D03*
X230950000Y-129960000D03*
X230950000Y-132500000D03*
X233540000Y-119800000D03*
X233530000Y-124880000D03*
X233530000Y-122340000D03*
X233490000Y-137580000D03*
X294500000Y-132520000D03*
X233490000Y-155360000D03*
X233490000Y-152820000D03*
X233490000Y-127420000D03*
X230950000Y-137580000D03*
X230950000Y-140120000D03*
X230990000Y-122340000D03*
X230990000Y-124880000D03*
X230950000Y-127420000D03*
X291960000Y-112200000D03*
X291960000Y-114740000D03*
X294500000Y-114740000D03*
X294500000Y-112200000D03*
X231000000Y-117260000D03*
X230950000Y-152820000D03*
X230950000Y-155360000D03*
X233490000Y-135040000D03*
X230990000Y-157767500D03*
X233530000Y-157767500D03*
D23*
X294500000Y-157920000D03*
D21*
X291960000Y-157920000D03*
X294500000Y-155380000D03*
X294500000Y-129980000D03*
X294500000Y-127440000D03*
X294500000Y-124900000D03*
X294500000Y-86800000D03*
X294500000Y-89340000D03*
X291960000Y-155380000D03*
X291960000Y-109660000D03*
X294500000Y-109660000D03*
X294500000Y-107120000D03*
X294500000Y-104580000D03*
X294500000Y-102040000D03*
X230950000Y-147740000D03*
X294500000Y-71560000D03*
X233540000Y-76620000D03*
X233540000Y-102020000D03*
X233540000Y-104560000D03*
X233540000Y-107100000D03*
X231000000Y-102020000D03*
X231000000Y-99480000D03*
X231000000Y-79160000D03*
X294500000Y-81720000D03*
X291960000Y-102040000D03*
X294500000Y-99500000D03*
X291960000Y-99500000D03*
X291960000Y-96960000D03*
X291960000Y-81720000D03*
X231000000Y-104560000D03*
X231000000Y-109640000D03*
X231000000Y-94400000D03*
X233540000Y-99480000D03*
X231000000Y-89320000D03*
X233540000Y-96940000D03*
X233540000Y-89320000D03*
X233540000Y-94400000D03*
X233540000Y-91860000D03*
X294500000Y-147760000D03*
X294500000Y-145220000D03*
X291960000Y-91880000D03*
X291960000Y-89340000D03*
X231000000Y-107100000D03*
X231000000Y-81700000D03*
X231000000Y-96940000D03*
X231000000Y-84240000D03*
X231000000Y-71540000D03*
X233540000Y-74080000D03*
X231000000Y-76620000D03*
X294500000Y-79180000D03*
X291960000Y-76640000D03*
X291960000Y-71560000D03*
X294500000Y-76640000D03*
X291960000Y-74100000D03*
X233540000Y-81700000D03*
X230950000Y-150280000D03*
X294500000Y-117280000D03*
X291960000Y-129980000D03*
X233490000Y-150280000D03*
%TD*%
D24*
%TO.C,F2*%
X304140000Y-41880000D03*
D25*
X292890000Y-41880000D03*
X315390000Y-41880000D03*
%TD*%
D26*
%TO.C,sabiliztor_dc1*%
X279940000Y-37670000D03*
D27*
X282480000Y-37670000D03*
X285020000Y-37670000D03*
%TD*%
D18*
%TO.C,U6*%
X312020000Y-74630000D03*
D19*
X314560000Y-74630000D03*
X317100000Y-74630000D03*
X317100000Y-87330000D03*
X314560000Y-87330000D03*
X312020000Y-87330000D03*
D20*
X304400000Y-83837500D03*
X304400000Y-81932500D03*
X304400000Y-80027500D03*
X304400000Y-78122500D03*
%TD*%
D11*
%TO.C,bat_7V_dc1*%
X278070000Y-45170000D03*
D10*
X278070000Y-42630000D03*
%TD*%
D11*
%TO.C,bat_12V_back1*%
X282820000Y-192230000D03*
D10*
X280280000Y-192230000D03*
%TD*%
D18*
%TO.C,U2*%
X312220000Y-127630000D03*
D19*
X314760000Y-127630000D03*
X317300000Y-127630000D03*
X317300000Y-140330000D03*
X314760000Y-140330000D03*
X312220000Y-140330000D03*
D20*
X304600000Y-136837500D03*
X304600000Y-134932500D03*
X304600000Y-133027500D03*
X304600000Y-131122500D03*
%TD*%
D18*
%TO.C,U5*%
X312220000Y-145230000D03*
D19*
X314760000Y-145230000D03*
X317300000Y-145230000D03*
X317300000Y-157930000D03*
X314760000Y-157930000D03*
X312220000Y-157930000D03*
D20*
X304600000Y-154437500D03*
X304600000Y-152532500D03*
X304600000Y-150627500D03*
X304600000Y-148722500D03*
%TD*%
D24*
%TO.C,F1*%
X291150000Y-184630000D03*
D25*
X279900000Y-184630000D03*
X302400000Y-184630000D03*
%TD*%
D11*
%TO.C,UART2*%
X271020000Y-192230000D03*
D10*
X273560000Y-192230000D03*
X276100000Y-192230000D03*
%TD*%
D11*
%TO.C,Front1*%
X316020000Y-68430000D03*
D14*
X316020000Y-65890000D03*
X316020000Y-63350000D03*
X316020000Y-60810000D03*
X316020000Y-58270000D03*
X316020000Y-55730000D03*
X316020000Y-53190000D03*
D15*
X316020000Y-50650000D03*
D16*
X303320000Y-50650000D03*
D17*
X303320000Y-53190000D03*
X303320000Y-55730000D03*
X303320000Y-58270000D03*
X303320000Y-60810000D03*
X303320000Y-63350000D03*
X303320000Y-65890000D03*
X303320000Y-68430000D03*
%TD*%
D11*
%TO.C,bat_12V_front1*%
X295520000Y-50120000D03*
D10*
X292980000Y-50120000D03*
%TD*%
D28*
%TO.C,C25*%
X236330000Y-27440000D03*
X234430000Y-27440000D03*
%TD*%
D29*
%TO.C,C20*%
X289120000Y-53840000D03*
X291020000Y-53840000D03*
%TD*%
D11*
%TO.C,StepMot_LB1*%
X230120000Y-35080000D03*
D10*
X230120000Y-37620000D03*
X230120000Y-40160000D03*
X230120000Y-42700000D03*
%TD*%
D11*
%TO.C,StepMot_RF1*%
X229700000Y-171230000D03*
D10*
X229700000Y-173770000D03*
X229700000Y-176310000D03*
X229700000Y-178850000D03*
%TD*%
D30*
%TO.C,C19*%
X249820000Y-187430000D03*
X249820000Y-189330000D03*
%TD*%
D11*
%TO.C,RightBack_enc1*%
X256420000Y-137450000D03*
D10*
X256420000Y-134910000D03*
X256420000Y-132370000D03*
X256420000Y-129830000D03*
%TD*%
D11*
%TO.C,StepMot_RB1*%
X269760000Y-43310000D03*
D10*
X269760000Y-40770000D03*
X269760000Y-38230000D03*
X269760000Y-35690000D03*
%TD*%
D29*
%TO.C,C21*%
X266080000Y-187580000D03*
X267980000Y-187580000D03*
%TD*%
D30*
%TO.C,C6*%
X300420000Y-173700000D03*
X300420000Y-175600000D03*
%TD*%
%TO.C,C17*%
X298020000Y-60730000D03*
X298020000Y-62630000D03*
%TD*%
D31*
%TO.C,C16*%
X269760000Y-32700000D03*
X269760000Y-30800000D03*
%TD*%
D28*
%TO.C,C26*%
X237820000Y-187630000D03*
X235920000Y-187630000D03*
%TD*%
D11*
%TO.C,LeftBack_enc1*%
X256620000Y-150450000D03*
D10*
X256620000Y-147910000D03*
X256620000Y-145370000D03*
X256620000Y-142830000D03*
%TD*%
D11*
%TO.C,LeftFront_enc1*%
X241070000Y-53650000D03*
D10*
X238530000Y-53650000D03*
X235990000Y-53650000D03*
X233450000Y-53650000D03*
%TD*%
D32*
%TO.C,J1*%
X236540000Y-117652500D03*
X236540000Y-118467500D03*
%TD*%
D11*
%TO.C,STEPMOT_LF1*%
X270520000Y-178850000D03*
D10*
X270520000Y-176310000D03*
X270520000Y-173770000D03*
X270520000Y-171230000D03*
%TD*%
D30*
%TO.C,C15*%
X252220000Y-142730000D03*
X252220000Y-144630000D03*
%TD*%
%TO.C,C23*%
X260020000Y-129830000D03*
X260020000Y-131730000D03*
%TD*%
D15*
%TO.C,rightB1*%
X266020000Y-30070000D03*
D33*
X266020000Y-32610000D03*
X266020000Y-35150000D03*
X266020000Y-37690000D03*
X266020000Y-40230000D03*
X266020000Y-42770000D03*
X266020000Y-45310000D03*
X266020000Y-47850000D03*
X253320000Y-47850000D03*
X253320000Y-45310000D03*
X253320000Y-42770000D03*
X253320000Y-40230000D03*
X253320000Y-37690000D03*
X253320000Y-35150000D03*
X253320000Y-32610000D03*
X253320000Y-30070000D03*
%TD*%
D15*
%TO.C,leftB1*%
X233590000Y-47820000D03*
D33*
X233590000Y-45280000D03*
X233590000Y-42740000D03*
X233590000Y-40200000D03*
X233590000Y-37660000D03*
X233590000Y-35120000D03*
X233590000Y-32580000D03*
X233590000Y-30040000D03*
X246290000Y-30040000D03*
X246290000Y-32580000D03*
X246290000Y-35120000D03*
X246290000Y-37660000D03*
X246290000Y-40200000D03*
X246290000Y-42740000D03*
X246290000Y-45280000D03*
X246290000Y-47820000D03*
%TD*%
D11*
%TO.C,RightFront_enc1*%
X277520000Y-53730000D03*
D10*
X280060000Y-53730000D03*
X282600000Y-53730000D03*
X285140000Y-53730000D03*
%TD*%
D30*
%TO.C,C1*%
X248020000Y-50730000D03*
X248020000Y-52630000D03*
%TD*%
D29*
%TO.C,C22*%
X269120000Y-48150000D03*
X271020000Y-48150000D03*
%TD*%
D11*
%TO.C,UART1*%
X239020000Y-141690000D03*
D10*
X239020000Y-144230000D03*
X239020000Y-146770000D03*
%TD*%
D15*
%TO.C,leftF1*%
X266020000Y-166230000D03*
D33*
X266020000Y-168770000D03*
X266020000Y-171310000D03*
X266020000Y-173850000D03*
X266020000Y-176390000D03*
X266020000Y-178930000D03*
X266020000Y-181470000D03*
X266020000Y-184010000D03*
X253320000Y-184010000D03*
X253320000Y-181470000D03*
X253320000Y-178930000D03*
X253320000Y-176390000D03*
X253320000Y-173850000D03*
X253320000Y-171310000D03*
X253320000Y-168770000D03*
X253320000Y-166230000D03*
%TD*%
D28*
%TO.C,C12*%
X230370000Y-53730000D03*
X228470000Y-53730000D03*
%TD*%
D31*
%TO.C,C18*%
X269940000Y-168440000D03*
X269940000Y-166540000D03*
%TD*%
D15*
%TO.C,rightF1*%
X235180000Y-184120000D03*
D33*
X235180000Y-181580000D03*
X235180000Y-179040000D03*
X235180000Y-176500000D03*
X235180000Y-173960000D03*
X235180000Y-171420000D03*
X235180000Y-168880000D03*
X235180000Y-166340000D03*
X247880000Y-166340000D03*
X247880000Y-168880000D03*
X247880000Y-171420000D03*
X247880000Y-173960000D03*
X247880000Y-176500000D03*
X247880000Y-179040000D03*
X247880000Y-181580000D03*
X247880000Y-184120000D03*
%TD*%
M02*
