%TF.GenerationSoftware,KiCad,Pcbnew,9.0.0*%
%TF.CreationDate,2025-11-14T21:09:55+01:00*%
%TF.ProjectId,PCBV2,50434256-322e-46b6-9963-61645f706362,rev?*%
%TF.SameCoordinates,Original*%
%TF.FileFunction,Legend,Bot*%
%TF.FilePolarity,Positive*%
%FSLAX46Y46*%
G04 Gerber Fmt 4.6, Leading zero omitted, Abs format (unit mm)*
G04 Created by KiCad (PCBNEW 9.0.0) date 2025-11-14 21:09:55*
%MOMM*%
%LPD*%
G01*
G04 APERTURE LIST*
%ADD10C,0.150000*%
%ADD11C,0.120000*%
G04 APERTURE END LIST*
D10*
X236022857Y-26119580D02*
X236070476Y-26167200D01*
X236070476Y-26167200D02*
X236213333Y-26214819D01*
X236213333Y-26214819D02*
X236308571Y-26214819D01*
X236308571Y-26214819D02*
X236451428Y-26167200D01*
X236451428Y-26167200D02*
X236546666Y-26071961D01*
X236546666Y-26071961D02*
X236594285Y-25976723D01*
X236594285Y-25976723D02*
X236641904Y-25786247D01*
X236641904Y-25786247D02*
X236641904Y-25643390D01*
X236641904Y-25643390D02*
X236594285Y-25452914D01*
X236594285Y-25452914D02*
X236546666Y-25357676D01*
X236546666Y-25357676D02*
X236451428Y-25262438D01*
X236451428Y-25262438D02*
X236308571Y-25214819D01*
X236308571Y-25214819D02*
X236213333Y-25214819D01*
X236213333Y-25214819D02*
X236070476Y-25262438D01*
X236070476Y-25262438D02*
X236022857Y-25310057D01*
X235641904Y-25310057D02*
X235594285Y-25262438D01*
X235594285Y-25262438D02*
X235499047Y-25214819D01*
X235499047Y-25214819D02*
X235260952Y-25214819D01*
X235260952Y-25214819D02*
X235165714Y-25262438D01*
X235165714Y-25262438D02*
X235118095Y-25310057D01*
X235118095Y-25310057D02*
X235070476Y-25405295D01*
X235070476Y-25405295D02*
X235070476Y-25500533D01*
X235070476Y-25500533D02*
X235118095Y-25643390D01*
X235118095Y-25643390D02*
X235689523Y-26214819D01*
X235689523Y-26214819D02*
X235070476Y-26214819D01*
X234165714Y-25214819D02*
X234641904Y-25214819D01*
X234641904Y-25214819D02*
X234689523Y-25691009D01*
X234689523Y-25691009D02*
X234641904Y-25643390D01*
X234641904Y-25643390D02*
X234546666Y-25595771D01*
X234546666Y-25595771D02*
X234308571Y-25595771D01*
X234308571Y-25595771D02*
X234213333Y-25643390D01*
X234213333Y-25643390D02*
X234165714Y-25691009D01*
X234165714Y-25691009D02*
X234118095Y-25786247D01*
X234118095Y-25786247D02*
X234118095Y-26024342D01*
X234118095Y-26024342D02*
X234165714Y-26119580D01*
X234165714Y-26119580D02*
X234213333Y-26167200D01*
X234213333Y-26167200D02*
X234308571Y-26214819D01*
X234308571Y-26214819D02*
X234546666Y-26214819D01*
X234546666Y-26214819D02*
X234641904Y-26167200D01*
X234641904Y-26167200D02*
X234689523Y-26119580D01*
X291162857Y-51699580D02*
X291210476Y-51747200D01*
X291210476Y-51747200D02*
X291353333Y-51794819D01*
X291353333Y-51794819D02*
X291448571Y-51794819D01*
X291448571Y-51794819D02*
X291591428Y-51747200D01*
X291591428Y-51747200D02*
X291686666Y-51651961D01*
X291686666Y-51651961D02*
X291734285Y-51556723D01*
X291734285Y-51556723D02*
X291781904Y-51366247D01*
X291781904Y-51366247D02*
X291781904Y-51223390D01*
X291781904Y-51223390D02*
X291734285Y-51032914D01*
X291734285Y-51032914D02*
X291686666Y-50937676D01*
X291686666Y-50937676D02*
X291591428Y-50842438D01*
X291591428Y-50842438D02*
X291448571Y-50794819D01*
X291448571Y-50794819D02*
X291353333Y-50794819D01*
X291353333Y-50794819D02*
X291210476Y-50842438D01*
X291210476Y-50842438D02*
X291162857Y-50890057D01*
X290781904Y-50890057D02*
X290734285Y-50842438D01*
X290734285Y-50842438D02*
X290639047Y-50794819D01*
X290639047Y-50794819D02*
X290400952Y-50794819D01*
X290400952Y-50794819D02*
X290305714Y-50842438D01*
X290305714Y-50842438D02*
X290258095Y-50890057D01*
X290258095Y-50890057D02*
X290210476Y-50985295D01*
X290210476Y-50985295D02*
X290210476Y-51080533D01*
X290210476Y-51080533D02*
X290258095Y-51223390D01*
X290258095Y-51223390D02*
X290829523Y-51794819D01*
X290829523Y-51794819D02*
X290210476Y-51794819D01*
X289591428Y-50794819D02*
X289496190Y-50794819D01*
X289496190Y-50794819D02*
X289400952Y-50842438D01*
X289400952Y-50842438D02*
X289353333Y-50890057D01*
X289353333Y-50890057D02*
X289305714Y-50985295D01*
X289305714Y-50985295D02*
X289258095Y-51175771D01*
X289258095Y-51175771D02*
X289258095Y-51413866D01*
X289258095Y-51413866D02*
X289305714Y-51604342D01*
X289305714Y-51604342D02*
X289353333Y-51699580D01*
X289353333Y-51699580D02*
X289400952Y-51747200D01*
X289400952Y-51747200D02*
X289496190Y-51794819D01*
X289496190Y-51794819D02*
X289591428Y-51794819D01*
X289591428Y-51794819D02*
X289686666Y-51747200D01*
X289686666Y-51747200D02*
X289734285Y-51699580D01*
X289734285Y-51699580D02*
X289781904Y-51604342D01*
X289781904Y-51604342D02*
X289829523Y-51413866D01*
X289829523Y-51413866D02*
X289829523Y-51175771D01*
X289829523Y-51175771D02*
X289781904Y-50985295D01*
X289781904Y-50985295D02*
X289734285Y-50890057D01*
X289734285Y-50890057D02*
X289686666Y-50842438D01*
X289686666Y-50842438D02*
X289591428Y-50794819D01*
X228027200Y-34236190D02*
X228074819Y-34379047D01*
X228074819Y-34379047D02*
X228074819Y-34617142D01*
X228074819Y-34617142D02*
X228027200Y-34712380D01*
X228027200Y-34712380D02*
X227979580Y-34759999D01*
X227979580Y-34759999D02*
X227884342Y-34807618D01*
X227884342Y-34807618D02*
X227789104Y-34807618D01*
X227789104Y-34807618D02*
X227693866Y-34759999D01*
X227693866Y-34759999D02*
X227646247Y-34712380D01*
X227646247Y-34712380D02*
X227598628Y-34617142D01*
X227598628Y-34617142D02*
X227551009Y-34426666D01*
X227551009Y-34426666D02*
X227503390Y-34331428D01*
X227503390Y-34331428D02*
X227455771Y-34283809D01*
X227455771Y-34283809D02*
X227360533Y-34236190D01*
X227360533Y-34236190D02*
X227265295Y-34236190D01*
X227265295Y-34236190D02*
X227170057Y-34283809D01*
X227170057Y-34283809D02*
X227122438Y-34331428D01*
X227122438Y-34331428D02*
X227074819Y-34426666D01*
X227074819Y-34426666D02*
X227074819Y-34664761D01*
X227074819Y-34664761D02*
X227122438Y-34807618D01*
X227408152Y-35093333D02*
X227408152Y-35474285D01*
X227074819Y-35236190D02*
X227931961Y-35236190D01*
X227931961Y-35236190D02*
X228027200Y-35283809D01*
X228027200Y-35283809D02*
X228074819Y-35379047D01*
X228074819Y-35379047D02*
X228074819Y-35474285D01*
X228027200Y-36188571D02*
X228074819Y-36093333D01*
X228074819Y-36093333D02*
X228074819Y-35902857D01*
X228074819Y-35902857D02*
X228027200Y-35807619D01*
X228027200Y-35807619D02*
X227931961Y-35760000D01*
X227931961Y-35760000D02*
X227551009Y-35760000D01*
X227551009Y-35760000D02*
X227455771Y-35807619D01*
X227455771Y-35807619D02*
X227408152Y-35902857D01*
X227408152Y-35902857D02*
X227408152Y-36093333D01*
X227408152Y-36093333D02*
X227455771Y-36188571D01*
X227455771Y-36188571D02*
X227551009Y-36236190D01*
X227551009Y-36236190D02*
X227646247Y-36236190D01*
X227646247Y-36236190D02*
X227741485Y-35760000D01*
X227408152Y-36664762D02*
X228408152Y-36664762D01*
X227455771Y-36664762D02*
X227408152Y-36760000D01*
X227408152Y-36760000D02*
X227408152Y-36950476D01*
X227408152Y-36950476D02*
X227455771Y-37045714D01*
X227455771Y-37045714D02*
X227503390Y-37093333D01*
X227503390Y-37093333D02*
X227598628Y-37140952D01*
X227598628Y-37140952D02*
X227884342Y-37140952D01*
X227884342Y-37140952D02*
X227979580Y-37093333D01*
X227979580Y-37093333D02*
X228027200Y-37045714D01*
X228027200Y-37045714D02*
X228074819Y-36950476D01*
X228074819Y-36950476D02*
X228074819Y-36760000D01*
X228074819Y-36760000D02*
X228027200Y-36664762D01*
X228074819Y-37569524D02*
X227074819Y-37569524D01*
X227074819Y-37569524D02*
X227789104Y-37902857D01*
X227789104Y-37902857D02*
X227074819Y-38236190D01*
X227074819Y-38236190D02*
X228074819Y-38236190D01*
X228074819Y-38855238D02*
X228027200Y-38760000D01*
X228027200Y-38760000D02*
X227979580Y-38712381D01*
X227979580Y-38712381D02*
X227884342Y-38664762D01*
X227884342Y-38664762D02*
X227598628Y-38664762D01*
X227598628Y-38664762D02*
X227503390Y-38712381D01*
X227503390Y-38712381D02*
X227455771Y-38760000D01*
X227455771Y-38760000D02*
X227408152Y-38855238D01*
X227408152Y-38855238D02*
X227408152Y-38998095D01*
X227408152Y-38998095D02*
X227455771Y-39093333D01*
X227455771Y-39093333D02*
X227503390Y-39140952D01*
X227503390Y-39140952D02*
X227598628Y-39188571D01*
X227598628Y-39188571D02*
X227884342Y-39188571D01*
X227884342Y-39188571D02*
X227979580Y-39140952D01*
X227979580Y-39140952D02*
X228027200Y-39093333D01*
X228027200Y-39093333D02*
X228074819Y-38998095D01*
X228074819Y-38998095D02*
X228074819Y-38855238D01*
X227408152Y-39474286D02*
X227408152Y-39855238D01*
X227074819Y-39617143D02*
X227931961Y-39617143D01*
X227931961Y-39617143D02*
X228027200Y-39664762D01*
X228027200Y-39664762D02*
X228074819Y-39760000D01*
X228074819Y-39760000D02*
X228074819Y-39855238D01*
X228170057Y-39950477D02*
X228170057Y-40712381D01*
X228074819Y-41426667D02*
X228074819Y-40950477D01*
X228074819Y-40950477D02*
X227074819Y-40950477D01*
X227551009Y-42093334D02*
X227598628Y-42236191D01*
X227598628Y-42236191D02*
X227646247Y-42283810D01*
X227646247Y-42283810D02*
X227741485Y-42331429D01*
X227741485Y-42331429D02*
X227884342Y-42331429D01*
X227884342Y-42331429D02*
X227979580Y-42283810D01*
X227979580Y-42283810D02*
X228027200Y-42236191D01*
X228027200Y-42236191D02*
X228074819Y-42140953D01*
X228074819Y-42140953D02*
X228074819Y-41760001D01*
X228074819Y-41760001D02*
X227074819Y-41760001D01*
X227074819Y-41760001D02*
X227074819Y-42093334D01*
X227074819Y-42093334D02*
X227122438Y-42188572D01*
X227122438Y-42188572D02*
X227170057Y-42236191D01*
X227170057Y-42236191D02*
X227265295Y-42283810D01*
X227265295Y-42283810D02*
X227360533Y-42283810D01*
X227360533Y-42283810D02*
X227455771Y-42236191D01*
X227455771Y-42236191D02*
X227503390Y-42188572D01*
X227503390Y-42188572D02*
X227551009Y-42093334D01*
X227551009Y-42093334D02*
X227551009Y-41760001D01*
X228074819Y-43283810D02*
X228074819Y-42712382D01*
X228074819Y-42998096D02*
X227074819Y-42998096D01*
X227074819Y-42998096D02*
X227217676Y-42902858D01*
X227217676Y-42902858D02*
X227312914Y-42807620D01*
X227312914Y-42807620D02*
X227360533Y-42712382D01*
X227107200Y-170762380D02*
X227154819Y-170905237D01*
X227154819Y-170905237D02*
X227154819Y-171143332D01*
X227154819Y-171143332D02*
X227107200Y-171238570D01*
X227107200Y-171238570D02*
X227059580Y-171286189D01*
X227059580Y-171286189D02*
X226964342Y-171333808D01*
X226964342Y-171333808D02*
X226869104Y-171333808D01*
X226869104Y-171333808D02*
X226773866Y-171286189D01*
X226773866Y-171286189D02*
X226726247Y-171238570D01*
X226726247Y-171238570D02*
X226678628Y-171143332D01*
X226678628Y-171143332D02*
X226631009Y-170952856D01*
X226631009Y-170952856D02*
X226583390Y-170857618D01*
X226583390Y-170857618D02*
X226535771Y-170809999D01*
X226535771Y-170809999D02*
X226440533Y-170762380D01*
X226440533Y-170762380D02*
X226345295Y-170762380D01*
X226345295Y-170762380D02*
X226250057Y-170809999D01*
X226250057Y-170809999D02*
X226202438Y-170857618D01*
X226202438Y-170857618D02*
X226154819Y-170952856D01*
X226154819Y-170952856D02*
X226154819Y-171190951D01*
X226154819Y-171190951D02*
X226202438Y-171333808D01*
X226488152Y-171619523D02*
X226488152Y-172000475D01*
X226154819Y-171762380D02*
X227011961Y-171762380D01*
X227011961Y-171762380D02*
X227107200Y-171809999D01*
X227107200Y-171809999D02*
X227154819Y-171905237D01*
X227154819Y-171905237D02*
X227154819Y-172000475D01*
X227107200Y-172714761D02*
X227154819Y-172619523D01*
X227154819Y-172619523D02*
X227154819Y-172429047D01*
X227154819Y-172429047D02*
X227107200Y-172333809D01*
X227107200Y-172333809D02*
X227011961Y-172286190D01*
X227011961Y-172286190D02*
X226631009Y-172286190D01*
X226631009Y-172286190D02*
X226535771Y-172333809D01*
X226535771Y-172333809D02*
X226488152Y-172429047D01*
X226488152Y-172429047D02*
X226488152Y-172619523D01*
X226488152Y-172619523D02*
X226535771Y-172714761D01*
X226535771Y-172714761D02*
X226631009Y-172762380D01*
X226631009Y-172762380D02*
X226726247Y-172762380D01*
X226726247Y-172762380D02*
X226821485Y-172286190D01*
X226488152Y-173190952D02*
X227488152Y-173190952D01*
X226535771Y-173190952D02*
X226488152Y-173286190D01*
X226488152Y-173286190D02*
X226488152Y-173476666D01*
X226488152Y-173476666D02*
X226535771Y-173571904D01*
X226535771Y-173571904D02*
X226583390Y-173619523D01*
X226583390Y-173619523D02*
X226678628Y-173667142D01*
X226678628Y-173667142D02*
X226964342Y-173667142D01*
X226964342Y-173667142D02*
X227059580Y-173619523D01*
X227059580Y-173619523D02*
X227107200Y-173571904D01*
X227107200Y-173571904D02*
X227154819Y-173476666D01*
X227154819Y-173476666D02*
X227154819Y-173286190D01*
X227154819Y-173286190D02*
X227107200Y-173190952D01*
X227154819Y-174095714D02*
X226154819Y-174095714D01*
X226154819Y-174095714D02*
X226869104Y-174429047D01*
X226869104Y-174429047D02*
X226154819Y-174762380D01*
X226154819Y-174762380D02*
X227154819Y-174762380D01*
X227154819Y-175381428D02*
X227107200Y-175286190D01*
X227107200Y-175286190D02*
X227059580Y-175238571D01*
X227059580Y-175238571D02*
X226964342Y-175190952D01*
X226964342Y-175190952D02*
X226678628Y-175190952D01*
X226678628Y-175190952D02*
X226583390Y-175238571D01*
X226583390Y-175238571D02*
X226535771Y-175286190D01*
X226535771Y-175286190D02*
X226488152Y-175381428D01*
X226488152Y-175381428D02*
X226488152Y-175524285D01*
X226488152Y-175524285D02*
X226535771Y-175619523D01*
X226535771Y-175619523D02*
X226583390Y-175667142D01*
X226583390Y-175667142D02*
X226678628Y-175714761D01*
X226678628Y-175714761D02*
X226964342Y-175714761D01*
X226964342Y-175714761D02*
X227059580Y-175667142D01*
X227059580Y-175667142D02*
X227107200Y-175619523D01*
X227107200Y-175619523D02*
X227154819Y-175524285D01*
X227154819Y-175524285D02*
X227154819Y-175381428D01*
X226488152Y-176000476D02*
X226488152Y-176381428D01*
X226154819Y-176143333D02*
X227011961Y-176143333D01*
X227011961Y-176143333D02*
X227107200Y-176190952D01*
X227107200Y-176190952D02*
X227154819Y-176286190D01*
X227154819Y-176286190D02*
X227154819Y-176381428D01*
X227250057Y-176476667D02*
X227250057Y-177238571D01*
X227154819Y-178048095D02*
X226678628Y-177714762D01*
X227154819Y-177476667D02*
X226154819Y-177476667D01*
X226154819Y-177476667D02*
X226154819Y-177857619D01*
X226154819Y-177857619D02*
X226202438Y-177952857D01*
X226202438Y-177952857D02*
X226250057Y-178000476D01*
X226250057Y-178000476D02*
X226345295Y-178048095D01*
X226345295Y-178048095D02*
X226488152Y-178048095D01*
X226488152Y-178048095D02*
X226583390Y-178000476D01*
X226583390Y-178000476D02*
X226631009Y-177952857D01*
X226631009Y-177952857D02*
X226678628Y-177857619D01*
X226678628Y-177857619D02*
X226678628Y-177476667D01*
X226631009Y-178810000D02*
X226631009Y-178476667D01*
X227154819Y-178476667D02*
X226154819Y-178476667D01*
X226154819Y-178476667D02*
X226154819Y-178952857D01*
X227154819Y-179857619D02*
X227154819Y-179286191D01*
X227154819Y-179571905D02*
X226154819Y-179571905D01*
X226154819Y-179571905D02*
X226297676Y-179476667D01*
X226297676Y-179476667D02*
X226392914Y-179381429D01*
X226392914Y-179381429D02*
X226440533Y-179286191D01*
X252179580Y-189187142D02*
X252227200Y-189139523D01*
X252227200Y-189139523D02*
X252274819Y-188996666D01*
X252274819Y-188996666D02*
X252274819Y-188901428D01*
X252274819Y-188901428D02*
X252227200Y-188758571D01*
X252227200Y-188758571D02*
X252131961Y-188663333D01*
X252131961Y-188663333D02*
X252036723Y-188615714D01*
X252036723Y-188615714D02*
X251846247Y-188568095D01*
X251846247Y-188568095D02*
X251703390Y-188568095D01*
X251703390Y-188568095D02*
X251512914Y-188615714D01*
X251512914Y-188615714D02*
X251417676Y-188663333D01*
X251417676Y-188663333D02*
X251322438Y-188758571D01*
X251322438Y-188758571D02*
X251274819Y-188901428D01*
X251274819Y-188901428D02*
X251274819Y-188996666D01*
X251274819Y-188996666D02*
X251322438Y-189139523D01*
X251322438Y-189139523D02*
X251370057Y-189187142D01*
X252274819Y-190139523D02*
X252274819Y-189568095D01*
X252274819Y-189853809D02*
X251274819Y-189853809D01*
X251274819Y-189853809D02*
X251417676Y-189758571D01*
X251417676Y-189758571D02*
X251512914Y-189663333D01*
X251512914Y-189663333D02*
X251560533Y-189568095D01*
X252274819Y-190615714D02*
X252274819Y-190806190D01*
X252274819Y-190806190D02*
X252227200Y-190901428D01*
X252227200Y-190901428D02*
X252179580Y-190949047D01*
X252179580Y-190949047D02*
X252036723Y-191044285D01*
X252036723Y-191044285D02*
X251846247Y-191091904D01*
X251846247Y-191091904D02*
X251465295Y-191091904D01*
X251465295Y-191091904D02*
X251370057Y-191044285D01*
X251370057Y-191044285D02*
X251322438Y-190996666D01*
X251322438Y-190996666D02*
X251274819Y-190901428D01*
X251274819Y-190901428D02*
X251274819Y-190710952D01*
X251274819Y-190710952D02*
X251322438Y-190615714D01*
X251322438Y-190615714D02*
X251370057Y-190568095D01*
X251370057Y-190568095D02*
X251465295Y-190520476D01*
X251465295Y-190520476D02*
X251703390Y-190520476D01*
X251703390Y-190520476D02*
X251798628Y-190568095D01*
X251798628Y-190568095D02*
X251846247Y-190615714D01*
X251846247Y-190615714D02*
X251893866Y-190710952D01*
X251893866Y-190710952D02*
X251893866Y-190901428D01*
X251893866Y-190901428D02*
X251846247Y-190996666D01*
X251846247Y-190996666D02*
X251798628Y-191044285D01*
X251798628Y-191044285D02*
X251703390Y-191091904D01*
X253849819Y-128778570D02*
X253373628Y-128445237D01*
X253849819Y-128207142D02*
X252849819Y-128207142D01*
X252849819Y-128207142D02*
X252849819Y-128588094D01*
X252849819Y-128588094D02*
X252897438Y-128683332D01*
X252897438Y-128683332D02*
X252945057Y-128730951D01*
X252945057Y-128730951D02*
X253040295Y-128778570D01*
X253040295Y-128778570D02*
X253183152Y-128778570D01*
X253183152Y-128778570D02*
X253278390Y-128730951D01*
X253278390Y-128730951D02*
X253326009Y-128683332D01*
X253326009Y-128683332D02*
X253373628Y-128588094D01*
X253373628Y-128588094D02*
X253373628Y-128207142D01*
X253849819Y-129207142D02*
X253183152Y-129207142D01*
X252849819Y-129207142D02*
X252897438Y-129159523D01*
X252897438Y-129159523D02*
X252945057Y-129207142D01*
X252945057Y-129207142D02*
X252897438Y-129254761D01*
X252897438Y-129254761D02*
X252849819Y-129207142D01*
X252849819Y-129207142D02*
X252945057Y-129207142D01*
X253183152Y-130111903D02*
X253992676Y-130111903D01*
X253992676Y-130111903D02*
X254087914Y-130064284D01*
X254087914Y-130064284D02*
X254135533Y-130016665D01*
X254135533Y-130016665D02*
X254183152Y-129921427D01*
X254183152Y-129921427D02*
X254183152Y-129778570D01*
X254183152Y-129778570D02*
X254135533Y-129683332D01*
X253802200Y-130111903D02*
X253849819Y-130016665D01*
X253849819Y-130016665D02*
X253849819Y-129826189D01*
X253849819Y-129826189D02*
X253802200Y-129730951D01*
X253802200Y-129730951D02*
X253754580Y-129683332D01*
X253754580Y-129683332D02*
X253659342Y-129635713D01*
X253659342Y-129635713D02*
X253373628Y-129635713D01*
X253373628Y-129635713D02*
X253278390Y-129683332D01*
X253278390Y-129683332D02*
X253230771Y-129730951D01*
X253230771Y-129730951D02*
X253183152Y-129826189D01*
X253183152Y-129826189D02*
X253183152Y-130016665D01*
X253183152Y-130016665D02*
X253230771Y-130111903D01*
X253849819Y-130588094D02*
X252849819Y-130588094D01*
X253849819Y-131016665D02*
X253326009Y-131016665D01*
X253326009Y-131016665D02*
X253230771Y-130969046D01*
X253230771Y-130969046D02*
X253183152Y-130873808D01*
X253183152Y-130873808D02*
X253183152Y-130730951D01*
X253183152Y-130730951D02*
X253230771Y-130635713D01*
X253230771Y-130635713D02*
X253278390Y-130588094D01*
X253183152Y-131349999D02*
X253183152Y-131730951D01*
X252849819Y-131492856D02*
X253706961Y-131492856D01*
X253706961Y-131492856D02*
X253802200Y-131540475D01*
X253802200Y-131540475D02*
X253849819Y-131635713D01*
X253849819Y-131635713D02*
X253849819Y-131730951D01*
X253326009Y-132397618D02*
X253373628Y-132540475D01*
X253373628Y-132540475D02*
X253421247Y-132588094D01*
X253421247Y-132588094D02*
X253516485Y-132635713D01*
X253516485Y-132635713D02*
X253659342Y-132635713D01*
X253659342Y-132635713D02*
X253754580Y-132588094D01*
X253754580Y-132588094D02*
X253802200Y-132540475D01*
X253802200Y-132540475D02*
X253849819Y-132445237D01*
X253849819Y-132445237D02*
X253849819Y-132064285D01*
X253849819Y-132064285D02*
X252849819Y-132064285D01*
X252849819Y-132064285D02*
X252849819Y-132397618D01*
X252849819Y-132397618D02*
X252897438Y-132492856D01*
X252897438Y-132492856D02*
X252945057Y-132540475D01*
X252945057Y-132540475D02*
X253040295Y-132588094D01*
X253040295Y-132588094D02*
X253135533Y-132588094D01*
X253135533Y-132588094D02*
X253230771Y-132540475D01*
X253230771Y-132540475D02*
X253278390Y-132492856D01*
X253278390Y-132492856D02*
X253326009Y-132397618D01*
X253326009Y-132397618D02*
X253326009Y-132064285D01*
X253849819Y-133492856D02*
X253326009Y-133492856D01*
X253326009Y-133492856D02*
X253230771Y-133445237D01*
X253230771Y-133445237D02*
X253183152Y-133349999D01*
X253183152Y-133349999D02*
X253183152Y-133159523D01*
X253183152Y-133159523D02*
X253230771Y-133064285D01*
X253802200Y-133492856D02*
X253849819Y-133397618D01*
X253849819Y-133397618D02*
X253849819Y-133159523D01*
X253849819Y-133159523D02*
X253802200Y-133064285D01*
X253802200Y-133064285D02*
X253706961Y-133016666D01*
X253706961Y-133016666D02*
X253611723Y-133016666D01*
X253611723Y-133016666D02*
X253516485Y-133064285D01*
X253516485Y-133064285D02*
X253468866Y-133159523D01*
X253468866Y-133159523D02*
X253468866Y-133397618D01*
X253468866Y-133397618D02*
X253421247Y-133492856D01*
X253802200Y-134397618D02*
X253849819Y-134302380D01*
X253849819Y-134302380D02*
X253849819Y-134111904D01*
X253849819Y-134111904D02*
X253802200Y-134016666D01*
X253802200Y-134016666D02*
X253754580Y-133969047D01*
X253754580Y-133969047D02*
X253659342Y-133921428D01*
X253659342Y-133921428D02*
X253373628Y-133921428D01*
X253373628Y-133921428D02*
X253278390Y-133969047D01*
X253278390Y-133969047D02*
X253230771Y-134016666D01*
X253230771Y-134016666D02*
X253183152Y-134111904D01*
X253183152Y-134111904D02*
X253183152Y-134302380D01*
X253183152Y-134302380D02*
X253230771Y-134397618D01*
X253849819Y-134826190D02*
X252849819Y-134826190D01*
X253468866Y-134921428D02*
X253849819Y-135207142D01*
X253183152Y-135207142D02*
X253564104Y-134826190D01*
X253945057Y-135397619D02*
X253945057Y-136159523D01*
X253802200Y-136778571D02*
X253849819Y-136683333D01*
X253849819Y-136683333D02*
X253849819Y-136492857D01*
X253849819Y-136492857D02*
X253802200Y-136397619D01*
X253802200Y-136397619D02*
X253706961Y-136350000D01*
X253706961Y-136350000D02*
X253326009Y-136350000D01*
X253326009Y-136350000D02*
X253230771Y-136397619D01*
X253230771Y-136397619D02*
X253183152Y-136492857D01*
X253183152Y-136492857D02*
X253183152Y-136683333D01*
X253183152Y-136683333D02*
X253230771Y-136778571D01*
X253230771Y-136778571D02*
X253326009Y-136826190D01*
X253326009Y-136826190D02*
X253421247Y-136826190D01*
X253421247Y-136826190D02*
X253516485Y-136350000D01*
X253183152Y-137254762D02*
X253849819Y-137254762D01*
X253278390Y-137254762D02*
X253230771Y-137302381D01*
X253230771Y-137302381D02*
X253183152Y-137397619D01*
X253183152Y-137397619D02*
X253183152Y-137540476D01*
X253183152Y-137540476D02*
X253230771Y-137635714D01*
X253230771Y-137635714D02*
X253326009Y-137683333D01*
X253326009Y-137683333D02*
X253849819Y-137683333D01*
X253802200Y-138588095D02*
X253849819Y-138492857D01*
X253849819Y-138492857D02*
X253849819Y-138302381D01*
X253849819Y-138302381D02*
X253802200Y-138207143D01*
X253802200Y-138207143D02*
X253754580Y-138159524D01*
X253754580Y-138159524D02*
X253659342Y-138111905D01*
X253659342Y-138111905D02*
X253373628Y-138111905D01*
X253373628Y-138111905D02*
X253278390Y-138159524D01*
X253278390Y-138159524D02*
X253230771Y-138207143D01*
X253230771Y-138207143D02*
X253183152Y-138302381D01*
X253183152Y-138302381D02*
X253183152Y-138492857D01*
X253183152Y-138492857D02*
X253230771Y-138588095D01*
X253849819Y-139540476D02*
X253849819Y-138969048D01*
X253849819Y-139254762D02*
X252849819Y-139254762D01*
X252849819Y-139254762D02*
X252992676Y-139159524D01*
X252992676Y-139159524D02*
X253087914Y-139064286D01*
X253087914Y-139064286D02*
X253135533Y-138969048D01*
X273167200Y-34710952D02*
X273214819Y-34853809D01*
X273214819Y-34853809D02*
X273214819Y-35091904D01*
X273214819Y-35091904D02*
X273167200Y-35187142D01*
X273167200Y-35187142D02*
X273119580Y-35234761D01*
X273119580Y-35234761D02*
X273024342Y-35282380D01*
X273024342Y-35282380D02*
X272929104Y-35282380D01*
X272929104Y-35282380D02*
X272833866Y-35234761D01*
X272833866Y-35234761D02*
X272786247Y-35187142D01*
X272786247Y-35187142D02*
X272738628Y-35091904D01*
X272738628Y-35091904D02*
X272691009Y-34901428D01*
X272691009Y-34901428D02*
X272643390Y-34806190D01*
X272643390Y-34806190D02*
X272595771Y-34758571D01*
X272595771Y-34758571D02*
X272500533Y-34710952D01*
X272500533Y-34710952D02*
X272405295Y-34710952D01*
X272405295Y-34710952D02*
X272310057Y-34758571D01*
X272310057Y-34758571D02*
X272262438Y-34806190D01*
X272262438Y-34806190D02*
X272214819Y-34901428D01*
X272214819Y-34901428D02*
X272214819Y-35139523D01*
X272214819Y-35139523D02*
X272262438Y-35282380D01*
X272548152Y-35568095D02*
X272548152Y-35949047D01*
X272214819Y-35710952D02*
X273071961Y-35710952D01*
X273071961Y-35710952D02*
X273167200Y-35758571D01*
X273167200Y-35758571D02*
X273214819Y-35853809D01*
X273214819Y-35853809D02*
X273214819Y-35949047D01*
X273167200Y-36663333D02*
X273214819Y-36568095D01*
X273214819Y-36568095D02*
X273214819Y-36377619D01*
X273214819Y-36377619D02*
X273167200Y-36282381D01*
X273167200Y-36282381D02*
X273071961Y-36234762D01*
X273071961Y-36234762D02*
X272691009Y-36234762D01*
X272691009Y-36234762D02*
X272595771Y-36282381D01*
X272595771Y-36282381D02*
X272548152Y-36377619D01*
X272548152Y-36377619D02*
X272548152Y-36568095D01*
X272548152Y-36568095D02*
X272595771Y-36663333D01*
X272595771Y-36663333D02*
X272691009Y-36710952D01*
X272691009Y-36710952D02*
X272786247Y-36710952D01*
X272786247Y-36710952D02*
X272881485Y-36234762D01*
X272548152Y-37139524D02*
X273548152Y-37139524D01*
X272595771Y-37139524D02*
X272548152Y-37234762D01*
X272548152Y-37234762D02*
X272548152Y-37425238D01*
X272548152Y-37425238D02*
X272595771Y-37520476D01*
X272595771Y-37520476D02*
X272643390Y-37568095D01*
X272643390Y-37568095D02*
X272738628Y-37615714D01*
X272738628Y-37615714D02*
X273024342Y-37615714D01*
X273024342Y-37615714D02*
X273119580Y-37568095D01*
X273119580Y-37568095D02*
X273167200Y-37520476D01*
X273167200Y-37520476D02*
X273214819Y-37425238D01*
X273214819Y-37425238D02*
X273214819Y-37234762D01*
X273214819Y-37234762D02*
X273167200Y-37139524D01*
X273214819Y-38044286D02*
X272214819Y-38044286D01*
X272214819Y-38044286D02*
X272929104Y-38377619D01*
X272929104Y-38377619D02*
X272214819Y-38710952D01*
X272214819Y-38710952D02*
X273214819Y-38710952D01*
X273214819Y-39330000D02*
X273167200Y-39234762D01*
X273167200Y-39234762D02*
X273119580Y-39187143D01*
X273119580Y-39187143D02*
X273024342Y-39139524D01*
X273024342Y-39139524D02*
X272738628Y-39139524D01*
X272738628Y-39139524D02*
X272643390Y-39187143D01*
X272643390Y-39187143D02*
X272595771Y-39234762D01*
X272595771Y-39234762D02*
X272548152Y-39330000D01*
X272548152Y-39330000D02*
X272548152Y-39472857D01*
X272548152Y-39472857D02*
X272595771Y-39568095D01*
X272595771Y-39568095D02*
X272643390Y-39615714D01*
X272643390Y-39615714D02*
X272738628Y-39663333D01*
X272738628Y-39663333D02*
X273024342Y-39663333D01*
X273024342Y-39663333D02*
X273119580Y-39615714D01*
X273119580Y-39615714D02*
X273167200Y-39568095D01*
X273167200Y-39568095D02*
X273214819Y-39472857D01*
X273214819Y-39472857D02*
X273214819Y-39330000D01*
X272548152Y-39949048D02*
X272548152Y-40330000D01*
X272214819Y-40091905D02*
X273071961Y-40091905D01*
X273071961Y-40091905D02*
X273167200Y-40139524D01*
X273167200Y-40139524D02*
X273214819Y-40234762D01*
X273214819Y-40234762D02*
X273214819Y-40330000D01*
X273310057Y-40425239D02*
X273310057Y-41187143D01*
X273214819Y-41996667D02*
X272738628Y-41663334D01*
X273214819Y-41425239D02*
X272214819Y-41425239D01*
X272214819Y-41425239D02*
X272214819Y-41806191D01*
X272214819Y-41806191D02*
X272262438Y-41901429D01*
X272262438Y-41901429D02*
X272310057Y-41949048D01*
X272310057Y-41949048D02*
X272405295Y-41996667D01*
X272405295Y-41996667D02*
X272548152Y-41996667D01*
X272548152Y-41996667D02*
X272643390Y-41949048D01*
X272643390Y-41949048D02*
X272691009Y-41901429D01*
X272691009Y-41901429D02*
X272738628Y-41806191D01*
X272738628Y-41806191D02*
X272738628Y-41425239D01*
X272691009Y-42758572D02*
X272738628Y-42901429D01*
X272738628Y-42901429D02*
X272786247Y-42949048D01*
X272786247Y-42949048D02*
X272881485Y-42996667D01*
X272881485Y-42996667D02*
X273024342Y-42996667D01*
X273024342Y-42996667D02*
X273119580Y-42949048D01*
X273119580Y-42949048D02*
X273167200Y-42901429D01*
X273167200Y-42901429D02*
X273214819Y-42806191D01*
X273214819Y-42806191D02*
X273214819Y-42425239D01*
X273214819Y-42425239D02*
X272214819Y-42425239D01*
X272214819Y-42425239D02*
X272214819Y-42758572D01*
X272214819Y-42758572D02*
X272262438Y-42853810D01*
X272262438Y-42853810D02*
X272310057Y-42901429D01*
X272310057Y-42901429D02*
X272405295Y-42949048D01*
X272405295Y-42949048D02*
X272500533Y-42949048D01*
X272500533Y-42949048D02*
X272595771Y-42901429D01*
X272595771Y-42901429D02*
X272643390Y-42853810D01*
X272643390Y-42853810D02*
X272691009Y-42758572D01*
X272691009Y-42758572D02*
X272691009Y-42425239D01*
X273214819Y-43949048D02*
X273214819Y-43377620D01*
X273214819Y-43663334D02*
X272214819Y-43663334D01*
X272214819Y-43663334D02*
X272357676Y-43568096D01*
X272357676Y-43568096D02*
X272452914Y-43472858D01*
X272452914Y-43472858D02*
X272500533Y-43377620D01*
X267672857Y-189619580D02*
X267720476Y-189667200D01*
X267720476Y-189667200D02*
X267863333Y-189714819D01*
X267863333Y-189714819D02*
X267958571Y-189714819D01*
X267958571Y-189714819D02*
X268101428Y-189667200D01*
X268101428Y-189667200D02*
X268196666Y-189571961D01*
X268196666Y-189571961D02*
X268244285Y-189476723D01*
X268244285Y-189476723D02*
X268291904Y-189286247D01*
X268291904Y-189286247D02*
X268291904Y-189143390D01*
X268291904Y-189143390D02*
X268244285Y-188952914D01*
X268244285Y-188952914D02*
X268196666Y-188857676D01*
X268196666Y-188857676D02*
X268101428Y-188762438D01*
X268101428Y-188762438D02*
X267958571Y-188714819D01*
X267958571Y-188714819D02*
X267863333Y-188714819D01*
X267863333Y-188714819D02*
X267720476Y-188762438D01*
X267720476Y-188762438D02*
X267672857Y-188810057D01*
X267291904Y-188810057D02*
X267244285Y-188762438D01*
X267244285Y-188762438D02*
X267149047Y-188714819D01*
X267149047Y-188714819D02*
X266910952Y-188714819D01*
X266910952Y-188714819D02*
X266815714Y-188762438D01*
X266815714Y-188762438D02*
X266768095Y-188810057D01*
X266768095Y-188810057D02*
X266720476Y-188905295D01*
X266720476Y-188905295D02*
X266720476Y-189000533D01*
X266720476Y-189000533D02*
X266768095Y-189143390D01*
X266768095Y-189143390D02*
X267339523Y-189714819D01*
X267339523Y-189714819D02*
X266720476Y-189714819D01*
X265768095Y-189714819D02*
X266339523Y-189714819D01*
X266053809Y-189714819D02*
X266053809Y-188714819D01*
X266053809Y-188714819D02*
X266149047Y-188857676D01*
X266149047Y-188857676D02*
X266244285Y-188952914D01*
X266244285Y-188952914D02*
X266339523Y-189000533D01*
X299099580Y-175133333D02*
X299147200Y-175085714D01*
X299147200Y-175085714D02*
X299194819Y-174942857D01*
X299194819Y-174942857D02*
X299194819Y-174847619D01*
X299194819Y-174847619D02*
X299147200Y-174704762D01*
X299147200Y-174704762D02*
X299051961Y-174609524D01*
X299051961Y-174609524D02*
X298956723Y-174561905D01*
X298956723Y-174561905D02*
X298766247Y-174514286D01*
X298766247Y-174514286D02*
X298623390Y-174514286D01*
X298623390Y-174514286D02*
X298432914Y-174561905D01*
X298432914Y-174561905D02*
X298337676Y-174609524D01*
X298337676Y-174609524D02*
X298242438Y-174704762D01*
X298242438Y-174704762D02*
X298194819Y-174847619D01*
X298194819Y-174847619D02*
X298194819Y-174942857D01*
X298194819Y-174942857D02*
X298242438Y-175085714D01*
X298242438Y-175085714D02*
X298290057Y-175133333D01*
X298194819Y-175990476D02*
X298194819Y-175800000D01*
X298194819Y-175800000D02*
X298242438Y-175704762D01*
X298242438Y-175704762D02*
X298290057Y-175657143D01*
X298290057Y-175657143D02*
X298432914Y-175561905D01*
X298432914Y-175561905D02*
X298623390Y-175514286D01*
X298623390Y-175514286D02*
X299004342Y-175514286D01*
X299004342Y-175514286D02*
X299099580Y-175561905D01*
X299099580Y-175561905D02*
X299147200Y-175609524D01*
X299147200Y-175609524D02*
X299194819Y-175704762D01*
X299194819Y-175704762D02*
X299194819Y-175895238D01*
X299194819Y-175895238D02*
X299147200Y-175990476D01*
X299147200Y-175990476D02*
X299099580Y-176038095D01*
X299099580Y-176038095D02*
X299004342Y-176085714D01*
X299004342Y-176085714D02*
X298766247Y-176085714D01*
X298766247Y-176085714D02*
X298671009Y-176038095D01*
X298671009Y-176038095D02*
X298623390Y-175990476D01*
X298623390Y-175990476D02*
X298575771Y-175895238D01*
X298575771Y-175895238D02*
X298575771Y-175704762D01*
X298575771Y-175704762D02*
X298623390Y-175609524D01*
X298623390Y-175609524D02*
X298671009Y-175561905D01*
X298671009Y-175561905D02*
X298766247Y-175514286D01*
X296699580Y-61037142D02*
X296747200Y-60989523D01*
X296747200Y-60989523D02*
X296794819Y-60846666D01*
X296794819Y-60846666D02*
X296794819Y-60751428D01*
X296794819Y-60751428D02*
X296747200Y-60608571D01*
X296747200Y-60608571D02*
X296651961Y-60513333D01*
X296651961Y-60513333D02*
X296556723Y-60465714D01*
X296556723Y-60465714D02*
X296366247Y-60418095D01*
X296366247Y-60418095D02*
X296223390Y-60418095D01*
X296223390Y-60418095D02*
X296032914Y-60465714D01*
X296032914Y-60465714D02*
X295937676Y-60513333D01*
X295937676Y-60513333D02*
X295842438Y-60608571D01*
X295842438Y-60608571D02*
X295794819Y-60751428D01*
X295794819Y-60751428D02*
X295794819Y-60846666D01*
X295794819Y-60846666D02*
X295842438Y-60989523D01*
X295842438Y-60989523D02*
X295890057Y-61037142D01*
X296794819Y-61989523D02*
X296794819Y-61418095D01*
X296794819Y-61703809D02*
X295794819Y-61703809D01*
X295794819Y-61703809D02*
X295937676Y-61608571D01*
X295937676Y-61608571D02*
X296032914Y-61513333D01*
X296032914Y-61513333D02*
X296080533Y-61418095D01*
X295794819Y-62322857D02*
X295794819Y-62989523D01*
X295794819Y-62989523D02*
X296794819Y-62560952D01*
X271869580Y-30017142D02*
X271917200Y-29969523D01*
X271917200Y-29969523D02*
X271964819Y-29826666D01*
X271964819Y-29826666D02*
X271964819Y-29731428D01*
X271964819Y-29731428D02*
X271917200Y-29588571D01*
X271917200Y-29588571D02*
X271821961Y-29493333D01*
X271821961Y-29493333D02*
X271726723Y-29445714D01*
X271726723Y-29445714D02*
X271536247Y-29398095D01*
X271536247Y-29398095D02*
X271393390Y-29398095D01*
X271393390Y-29398095D02*
X271202914Y-29445714D01*
X271202914Y-29445714D02*
X271107676Y-29493333D01*
X271107676Y-29493333D02*
X271012438Y-29588571D01*
X271012438Y-29588571D02*
X270964819Y-29731428D01*
X270964819Y-29731428D02*
X270964819Y-29826666D01*
X270964819Y-29826666D02*
X271012438Y-29969523D01*
X271012438Y-29969523D02*
X271060057Y-30017142D01*
X271964819Y-30969523D02*
X271964819Y-30398095D01*
X271964819Y-30683809D02*
X270964819Y-30683809D01*
X270964819Y-30683809D02*
X271107676Y-30588571D01*
X271107676Y-30588571D02*
X271202914Y-30493333D01*
X271202914Y-30493333D02*
X271250533Y-30398095D01*
X270964819Y-31826666D02*
X270964819Y-31636190D01*
X270964819Y-31636190D02*
X271012438Y-31540952D01*
X271012438Y-31540952D02*
X271060057Y-31493333D01*
X271060057Y-31493333D02*
X271202914Y-31398095D01*
X271202914Y-31398095D02*
X271393390Y-31350476D01*
X271393390Y-31350476D02*
X271774342Y-31350476D01*
X271774342Y-31350476D02*
X271869580Y-31398095D01*
X271869580Y-31398095D02*
X271917200Y-31445714D01*
X271917200Y-31445714D02*
X271964819Y-31540952D01*
X271964819Y-31540952D02*
X271964819Y-31731428D01*
X271964819Y-31731428D02*
X271917200Y-31826666D01*
X271917200Y-31826666D02*
X271869580Y-31874285D01*
X271869580Y-31874285D02*
X271774342Y-31921904D01*
X271774342Y-31921904D02*
X271536247Y-31921904D01*
X271536247Y-31921904D02*
X271441009Y-31874285D01*
X271441009Y-31874285D02*
X271393390Y-31826666D01*
X271393390Y-31826666D02*
X271345771Y-31731428D01*
X271345771Y-31731428D02*
X271345771Y-31540952D01*
X271345771Y-31540952D02*
X271393390Y-31445714D01*
X271393390Y-31445714D02*
X271441009Y-31398095D01*
X271441009Y-31398095D02*
X271536247Y-31350476D01*
X237512857Y-190269580D02*
X237560476Y-190317200D01*
X237560476Y-190317200D02*
X237703333Y-190364819D01*
X237703333Y-190364819D02*
X237798571Y-190364819D01*
X237798571Y-190364819D02*
X237941428Y-190317200D01*
X237941428Y-190317200D02*
X238036666Y-190221961D01*
X238036666Y-190221961D02*
X238084285Y-190126723D01*
X238084285Y-190126723D02*
X238131904Y-189936247D01*
X238131904Y-189936247D02*
X238131904Y-189793390D01*
X238131904Y-189793390D02*
X238084285Y-189602914D01*
X238084285Y-189602914D02*
X238036666Y-189507676D01*
X238036666Y-189507676D02*
X237941428Y-189412438D01*
X237941428Y-189412438D02*
X237798571Y-189364819D01*
X237798571Y-189364819D02*
X237703333Y-189364819D01*
X237703333Y-189364819D02*
X237560476Y-189412438D01*
X237560476Y-189412438D02*
X237512857Y-189460057D01*
X237131904Y-189460057D02*
X237084285Y-189412438D01*
X237084285Y-189412438D02*
X236989047Y-189364819D01*
X236989047Y-189364819D02*
X236750952Y-189364819D01*
X236750952Y-189364819D02*
X236655714Y-189412438D01*
X236655714Y-189412438D02*
X236608095Y-189460057D01*
X236608095Y-189460057D02*
X236560476Y-189555295D01*
X236560476Y-189555295D02*
X236560476Y-189650533D01*
X236560476Y-189650533D02*
X236608095Y-189793390D01*
X236608095Y-189793390D02*
X237179523Y-190364819D01*
X237179523Y-190364819D02*
X236560476Y-190364819D01*
X235703333Y-189364819D02*
X235893809Y-189364819D01*
X235893809Y-189364819D02*
X235989047Y-189412438D01*
X235989047Y-189412438D02*
X236036666Y-189460057D01*
X236036666Y-189460057D02*
X236131904Y-189602914D01*
X236131904Y-189602914D02*
X236179523Y-189793390D01*
X236179523Y-189793390D02*
X236179523Y-190174342D01*
X236179523Y-190174342D02*
X236131904Y-190269580D01*
X236131904Y-190269580D02*
X236084285Y-190317200D01*
X236084285Y-190317200D02*
X235989047Y-190364819D01*
X235989047Y-190364819D02*
X235798571Y-190364819D01*
X235798571Y-190364819D02*
X235703333Y-190317200D01*
X235703333Y-190317200D02*
X235655714Y-190269580D01*
X235655714Y-190269580D02*
X235608095Y-190174342D01*
X235608095Y-190174342D02*
X235608095Y-189936247D01*
X235608095Y-189936247D02*
X235655714Y-189841009D01*
X235655714Y-189841009D02*
X235703333Y-189793390D01*
X235703333Y-189793390D02*
X235798571Y-189745771D01*
X235798571Y-189745771D02*
X235989047Y-189745771D01*
X235989047Y-189745771D02*
X236084285Y-189793390D01*
X236084285Y-189793390D02*
X236131904Y-189841009D01*
X236131904Y-189841009D02*
X236179523Y-189936247D01*
X254274819Y-142007141D02*
X254274819Y-141530951D01*
X254274819Y-141530951D02*
X253274819Y-141530951D01*
X254227200Y-142721427D02*
X254274819Y-142626189D01*
X254274819Y-142626189D02*
X254274819Y-142435713D01*
X254274819Y-142435713D02*
X254227200Y-142340475D01*
X254227200Y-142340475D02*
X254131961Y-142292856D01*
X254131961Y-142292856D02*
X253751009Y-142292856D01*
X253751009Y-142292856D02*
X253655771Y-142340475D01*
X253655771Y-142340475D02*
X253608152Y-142435713D01*
X253608152Y-142435713D02*
X253608152Y-142626189D01*
X253608152Y-142626189D02*
X253655771Y-142721427D01*
X253655771Y-142721427D02*
X253751009Y-142769046D01*
X253751009Y-142769046D02*
X253846247Y-142769046D01*
X253846247Y-142769046D02*
X253941485Y-142292856D01*
X253608152Y-143054761D02*
X253608152Y-143435713D01*
X254274819Y-143197618D02*
X253417676Y-143197618D01*
X253417676Y-143197618D02*
X253322438Y-143245237D01*
X253322438Y-143245237D02*
X253274819Y-143340475D01*
X253274819Y-143340475D02*
X253274819Y-143435713D01*
X253608152Y-143626190D02*
X253608152Y-144007142D01*
X253274819Y-143769047D02*
X254131961Y-143769047D01*
X254131961Y-143769047D02*
X254227200Y-143816666D01*
X254227200Y-143816666D02*
X254274819Y-143911904D01*
X254274819Y-143911904D02*
X254274819Y-144007142D01*
X253751009Y-144673809D02*
X253798628Y-144816666D01*
X253798628Y-144816666D02*
X253846247Y-144864285D01*
X253846247Y-144864285D02*
X253941485Y-144911904D01*
X253941485Y-144911904D02*
X254084342Y-144911904D01*
X254084342Y-144911904D02*
X254179580Y-144864285D01*
X254179580Y-144864285D02*
X254227200Y-144816666D01*
X254227200Y-144816666D02*
X254274819Y-144721428D01*
X254274819Y-144721428D02*
X254274819Y-144340476D01*
X254274819Y-144340476D02*
X253274819Y-144340476D01*
X253274819Y-144340476D02*
X253274819Y-144673809D01*
X253274819Y-144673809D02*
X253322438Y-144769047D01*
X253322438Y-144769047D02*
X253370057Y-144816666D01*
X253370057Y-144816666D02*
X253465295Y-144864285D01*
X253465295Y-144864285D02*
X253560533Y-144864285D01*
X253560533Y-144864285D02*
X253655771Y-144816666D01*
X253655771Y-144816666D02*
X253703390Y-144769047D01*
X253703390Y-144769047D02*
X253751009Y-144673809D01*
X253751009Y-144673809D02*
X253751009Y-144340476D01*
X254274819Y-145769047D02*
X253751009Y-145769047D01*
X253751009Y-145769047D02*
X253655771Y-145721428D01*
X253655771Y-145721428D02*
X253608152Y-145626190D01*
X253608152Y-145626190D02*
X253608152Y-145435714D01*
X253608152Y-145435714D02*
X253655771Y-145340476D01*
X254227200Y-145769047D02*
X254274819Y-145673809D01*
X254274819Y-145673809D02*
X254274819Y-145435714D01*
X254274819Y-145435714D02*
X254227200Y-145340476D01*
X254227200Y-145340476D02*
X254131961Y-145292857D01*
X254131961Y-145292857D02*
X254036723Y-145292857D01*
X254036723Y-145292857D02*
X253941485Y-145340476D01*
X253941485Y-145340476D02*
X253893866Y-145435714D01*
X253893866Y-145435714D02*
X253893866Y-145673809D01*
X253893866Y-145673809D02*
X253846247Y-145769047D01*
X254227200Y-146673809D02*
X254274819Y-146578571D01*
X254274819Y-146578571D02*
X254274819Y-146388095D01*
X254274819Y-146388095D02*
X254227200Y-146292857D01*
X254227200Y-146292857D02*
X254179580Y-146245238D01*
X254179580Y-146245238D02*
X254084342Y-146197619D01*
X254084342Y-146197619D02*
X253798628Y-146197619D01*
X253798628Y-146197619D02*
X253703390Y-146245238D01*
X253703390Y-146245238D02*
X253655771Y-146292857D01*
X253655771Y-146292857D02*
X253608152Y-146388095D01*
X253608152Y-146388095D02*
X253608152Y-146578571D01*
X253608152Y-146578571D02*
X253655771Y-146673809D01*
X254274819Y-147102381D02*
X253274819Y-147102381D01*
X253893866Y-147197619D02*
X254274819Y-147483333D01*
X253608152Y-147483333D02*
X253989104Y-147102381D01*
X254370057Y-147673810D02*
X254370057Y-148435714D01*
X254227200Y-149054762D02*
X254274819Y-148959524D01*
X254274819Y-148959524D02*
X254274819Y-148769048D01*
X254274819Y-148769048D02*
X254227200Y-148673810D01*
X254227200Y-148673810D02*
X254131961Y-148626191D01*
X254131961Y-148626191D02*
X253751009Y-148626191D01*
X253751009Y-148626191D02*
X253655771Y-148673810D01*
X253655771Y-148673810D02*
X253608152Y-148769048D01*
X253608152Y-148769048D02*
X253608152Y-148959524D01*
X253608152Y-148959524D02*
X253655771Y-149054762D01*
X253655771Y-149054762D02*
X253751009Y-149102381D01*
X253751009Y-149102381D02*
X253846247Y-149102381D01*
X253846247Y-149102381D02*
X253941485Y-148626191D01*
X253608152Y-149530953D02*
X254274819Y-149530953D01*
X253703390Y-149530953D02*
X253655771Y-149578572D01*
X253655771Y-149578572D02*
X253608152Y-149673810D01*
X253608152Y-149673810D02*
X253608152Y-149816667D01*
X253608152Y-149816667D02*
X253655771Y-149911905D01*
X253655771Y-149911905D02*
X253751009Y-149959524D01*
X253751009Y-149959524D02*
X254274819Y-149959524D01*
X254227200Y-150864286D02*
X254274819Y-150769048D01*
X254274819Y-150769048D02*
X254274819Y-150578572D01*
X254274819Y-150578572D02*
X254227200Y-150483334D01*
X254227200Y-150483334D02*
X254179580Y-150435715D01*
X254179580Y-150435715D02*
X254084342Y-150388096D01*
X254084342Y-150388096D02*
X253798628Y-150388096D01*
X253798628Y-150388096D02*
X253703390Y-150435715D01*
X253703390Y-150435715D02*
X253655771Y-150483334D01*
X253655771Y-150483334D02*
X253608152Y-150578572D01*
X253608152Y-150578572D02*
X253608152Y-150769048D01*
X253608152Y-150769048D02*
X253655771Y-150864286D01*
X254274819Y-151816667D02*
X254274819Y-151245239D01*
X254274819Y-151530953D02*
X253274819Y-151530953D01*
X253274819Y-151530953D02*
X253417676Y-151435715D01*
X253417676Y-151435715D02*
X253512914Y-151340477D01*
X253512914Y-151340477D02*
X253560533Y-151245239D01*
X241855715Y-51604819D02*
X242331905Y-51604819D01*
X242331905Y-51604819D02*
X242331905Y-50604819D01*
X241141429Y-51557200D02*
X241236667Y-51604819D01*
X241236667Y-51604819D02*
X241427143Y-51604819D01*
X241427143Y-51604819D02*
X241522381Y-51557200D01*
X241522381Y-51557200D02*
X241570000Y-51461961D01*
X241570000Y-51461961D02*
X241570000Y-51081009D01*
X241570000Y-51081009D02*
X241522381Y-50985771D01*
X241522381Y-50985771D02*
X241427143Y-50938152D01*
X241427143Y-50938152D02*
X241236667Y-50938152D01*
X241236667Y-50938152D02*
X241141429Y-50985771D01*
X241141429Y-50985771D02*
X241093810Y-51081009D01*
X241093810Y-51081009D02*
X241093810Y-51176247D01*
X241093810Y-51176247D02*
X241570000Y-51271485D01*
X240808095Y-50938152D02*
X240427143Y-50938152D01*
X240665238Y-51604819D02*
X240665238Y-50747676D01*
X240665238Y-50747676D02*
X240617619Y-50652438D01*
X240617619Y-50652438D02*
X240522381Y-50604819D01*
X240522381Y-50604819D02*
X240427143Y-50604819D01*
X240236666Y-50938152D02*
X239855714Y-50938152D01*
X240093809Y-50604819D02*
X240093809Y-51461961D01*
X240093809Y-51461961D02*
X240046190Y-51557200D01*
X240046190Y-51557200D02*
X239950952Y-51604819D01*
X239950952Y-51604819D02*
X239855714Y-51604819D01*
X239189047Y-51081009D02*
X239522380Y-51081009D01*
X239522380Y-51604819D02*
X239522380Y-50604819D01*
X239522380Y-50604819D02*
X239046190Y-50604819D01*
X238665237Y-51604819D02*
X238665237Y-50938152D01*
X238665237Y-51128628D02*
X238617618Y-51033390D01*
X238617618Y-51033390D02*
X238569999Y-50985771D01*
X238569999Y-50985771D02*
X238474761Y-50938152D01*
X238474761Y-50938152D02*
X238379523Y-50938152D01*
X237903332Y-51604819D02*
X237998570Y-51557200D01*
X237998570Y-51557200D02*
X238046189Y-51509580D01*
X238046189Y-51509580D02*
X238093808Y-51414342D01*
X238093808Y-51414342D02*
X238093808Y-51128628D01*
X238093808Y-51128628D02*
X238046189Y-51033390D01*
X238046189Y-51033390D02*
X237998570Y-50985771D01*
X237998570Y-50985771D02*
X237903332Y-50938152D01*
X237903332Y-50938152D02*
X237760475Y-50938152D01*
X237760475Y-50938152D02*
X237665237Y-50985771D01*
X237665237Y-50985771D02*
X237617618Y-51033390D01*
X237617618Y-51033390D02*
X237569999Y-51128628D01*
X237569999Y-51128628D02*
X237569999Y-51414342D01*
X237569999Y-51414342D02*
X237617618Y-51509580D01*
X237617618Y-51509580D02*
X237665237Y-51557200D01*
X237665237Y-51557200D02*
X237760475Y-51604819D01*
X237760475Y-51604819D02*
X237903332Y-51604819D01*
X237141427Y-50938152D02*
X237141427Y-51604819D01*
X237141427Y-51033390D02*
X237093808Y-50985771D01*
X237093808Y-50985771D02*
X236998570Y-50938152D01*
X236998570Y-50938152D02*
X236855713Y-50938152D01*
X236855713Y-50938152D02*
X236760475Y-50985771D01*
X236760475Y-50985771D02*
X236712856Y-51081009D01*
X236712856Y-51081009D02*
X236712856Y-51604819D01*
X236379522Y-50938152D02*
X235998570Y-50938152D01*
X236236665Y-50604819D02*
X236236665Y-51461961D01*
X236236665Y-51461961D02*
X236189046Y-51557200D01*
X236189046Y-51557200D02*
X236093808Y-51604819D01*
X236093808Y-51604819D02*
X235998570Y-51604819D01*
X235903332Y-51700057D02*
X235141427Y-51700057D01*
X234522379Y-51557200D02*
X234617617Y-51604819D01*
X234617617Y-51604819D02*
X234808093Y-51604819D01*
X234808093Y-51604819D02*
X234903331Y-51557200D01*
X234903331Y-51557200D02*
X234950950Y-51461961D01*
X234950950Y-51461961D02*
X234950950Y-51081009D01*
X234950950Y-51081009D02*
X234903331Y-50985771D01*
X234903331Y-50985771D02*
X234808093Y-50938152D01*
X234808093Y-50938152D02*
X234617617Y-50938152D01*
X234617617Y-50938152D02*
X234522379Y-50985771D01*
X234522379Y-50985771D02*
X234474760Y-51081009D01*
X234474760Y-51081009D02*
X234474760Y-51176247D01*
X234474760Y-51176247D02*
X234950950Y-51271485D01*
X234046188Y-50938152D02*
X234046188Y-51604819D01*
X234046188Y-51033390D02*
X233998569Y-50985771D01*
X233998569Y-50985771D02*
X233903331Y-50938152D01*
X233903331Y-50938152D02*
X233760474Y-50938152D01*
X233760474Y-50938152D02*
X233665236Y-50985771D01*
X233665236Y-50985771D02*
X233617617Y-51081009D01*
X233617617Y-51081009D02*
X233617617Y-51604819D01*
X232712855Y-51557200D02*
X232808093Y-51604819D01*
X232808093Y-51604819D02*
X232998569Y-51604819D01*
X232998569Y-51604819D02*
X233093807Y-51557200D01*
X233093807Y-51557200D02*
X233141426Y-51509580D01*
X233141426Y-51509580D02*
X233189045Y-51414342D01*
X233189045Y-51414342D02*
X233189045Y-51128628D01*
X233189045Y-51128628D02*
X233141426Y-51033390D01*
X233141426Y-51033390D02*
X233093807Y-50985771D01*
X233093807Y-50985771D02*
X232998569Y-50938152D01*
X232998569Y-50938152D02*
X232808093Y-50938152D01*
X232808093Y-50938152D02*
X232712855Y-50985771D01*
X231760474Y-51604819D02*
X232331902Y-51604819D01*
X232046188Y-51604819D02*
X232046188Y-50604819D01*
X232046188Y-50604819D02*
X232141426Y-50747676D01*
X232141426Y-50747676D02*
X232236664Y-50842914D01*
X232236664Y-50842914D02*
X232331902Y-50890533D01*
X234944819Y-117726666D02*
X235659104Y-117726666D01*
X235659104Y-117726666D02*
X235801961Y-117679047D01*
X235801961Y-117679047D02*
X235897200Y-117583809D01*
X235897200Y-117583809D02*
X235944819Y-117440952D01*
X235944819Y-117440952D02*
X235944819Y-117345714D01*
X235944819Y-118726666D02*
X235944819Y-118155238D01*
X235944819Y-118440952D02*
X234944819Y-118440952D01*
X234944819Y-118440952D02*
X235087676Y-118345714D01*
X235087676Y-118345714D02*
X235182914Y-118250476D01*
X235182914Y-118250476D02*
X235230533Y-118155238D01*
X273927200Y-170484285D02*
X273974819Y-170627142D01*
X273974819Y-170627142D02*
X273974819Y-170865237D01*
X273974819Y-170865237D02*
X273927200Y-170960475D01*
X273927200Y-170960475D02*
X273879580Y-171008094D01*
X273879580Y-171008094D02*
X273784342Y-171055713D01*
X273784342Y-171055713D02*
X273689104Y-171055713D01*
X273689104Y-171055713D02*
X273593866Y-171008094D01*
X273593866Y-171008094D02*
X273546247Y-170960475D01*
X273546247Y-170960475D02*
X273498628Y-170865237D01*
X273498628Y-170865237D02*
X273451009Y-170674761D01*
X273451009Y-170674761D02*
X273403390Y-170579523D01*
X273403390Y-170579523D02*
X273355771Y-170531904D01*
X273355771Y-170531904D02*
X273260533Y-170484285D01*
X273260533Y-170484285D02*
X273165295Y-170484285D01*
X273165295Y-170484285D02*
X273070057Y-170531904D01*
X273070057Y-170531904D02*
X273022438Y-170579523D01*
X273022438Y-170579523D02*
X272974819Y-170674761D01*
X272974819Y-170674761D02*
X272974819Y-170912856D01*
X272974819Y-170912856D02*
X273022438Y-171055713D01*
X272974819Y-171341428D02*
X272974819Y-171912856D01*
X273974819Y-171627142D02*
X272974819Y-171627142D01*
X273451009Y-172246190D02*
X273451009Y-172579523D01*
X273974819Y-172722380D02*
X273974819Y-172246190D01*
X273974819Y-172246190D02*
X272974819Y-172246190D01*
X272974819Y-172246190D02*
X272974819Y-172722380D01*
X273974819Y-173150952D02*
X272974819Y-173150952D01*
X272974819Y-173150952D02*
X272974819Y-173531904D01*
X272974819Y-173531904D02*
X273022438Y-173627142D01*
X273022438Y-173627142D02*
X273070057Y-173674761D01*
X273070057Y-173674761D02*
X273165295Y-173722380D01*
X273165295Y-173722380D02*
X273308152Y-173722380D01*
X273308152Y-173722380D02*
X273403390Y-173674761D01*
X273403390Y-173674761D02*
X273451009Y-173627142D01*
X273451009Y-173627142D02*
X273498628Y-173531904D01*
X273498628Y-173531904D02*
X273498628Y-173150952D01*
X273974819Y-174150952D02*
X272974819Y-174150952D01*
X272974819Y-174150952D02*
X273689104Y-174484285D01*
X273689104Y-174484285D02*
X272974819Y-174817618D01*
X272974819Y-174817618D02*
X273974819Y-174817618D01*
X272974819Y-175484285D02*
X272974819Y-175674761D01*
X272974819Y-175674761D02*
X273022438Y-175769999D01*
X273022438Y-175769999D02*
X273117676Y-175865237D01*
X273117676Y-175865237D02*
X273308152Y-175912856D01*
X273308152Y-175912856D02*
X273641485Y-175912856D01*
X273641485Y-175912856D02*
X273831961Y-175865237D01*
X273831961Y-175865237D02*
X273927200Y-175769999D01*
X273927200Y-175769999D02*
X273974819Y-175674761D01*
X273974819Y-175674761D02*
X273974819Y-175484285D01*
X273974819Y-175484285D02*
X273927200Y-175389047D01*
X273927200Y-175389047D02*
X273831961Y-175293809D01*
X273831961Y-175293809D02*
X273641485Y-175246190D01*
X273641485Y-175246190D02*
X273308152Y-175246190D01*
X273308152Y-175246190D02*
X273117676Y-175293809D01*
X273117676Y-175293809D02*
X273022438Y-175389047D01*
X273022438Y-175389047D02*
X272974819Y-175484285D01*
X272974819Y-176198571D02*
X272974819Y-176769999D01*
X273974819Y-176484285D02*
X272974819Y-176484285D01*
X274070057Y-176865238D02*
X274070057Y-177627142D01*
X273974819Y-178341428D02*
X273974819Y-177865238D01*
X273974819Y-177865238D02*
X272974819Y-177865238D01*
X273451009Y-179008095D02*
X273451009Y-178674762D01*
X273974819Y-178674762D02*
X272974819Y-178674762D01*
X272974819Y-178674762D02*
X272974819Y-179150952D01*
X273974819Y-180055714D02*
X273974819Y-179484286D01*
X273974819Y-179770000D02*
X272974819Y-179770000D01*
X272974819Y-179770000D02*
X273117676Y-179674762D01*
X273117676Y-179674762D02*
X273212914Y-179579524D01*
X273212914Y-179579524D02*
X273260533Y-179484286D01*
X250179580Y-142987142D02*
X250227200Y-142939523D01*
X250227200Y-142939523D02*
X250274819Y-142796666D01*
X250274819Y-142796666D02*
X250274819Y-142701428D01*
X250274819Y-142701428D02*
X250227200Y-142558571D01*
X250227200Y-142558571D02*
X250131961Y-142463333D01*
X250131961Y-142463333D02*
X250036723Y-142415714D01*
X250036723Y-142415714D02*
X249846247Y-142368095D01*
X249846247Y-142368095D02*
X249703390Y-142368095D01*
X249703390Y-142368095D02*
X249512914Y-142415714D01*
X249512914Y-142415714D02*
X249417676Y-142463333D01*
X249417676Y-142463333D02*
X249322438Y-142558571D01*
X249322438Y-142558571D02*
X249274819Y-142701428D01*
X249274819Y-142701428D02*
X249274819Y-142796666D01*
X249274819Y-142796666D02*
X249322438Y-142939523D01*
X249322438Y-142939523D02*
X249370057Y-142987142D01*
X250274819Y-143939523D02*
X250274819Y-143368095D01*
X250274819Y-143653809D02*
X249274819Y-143653809D01*
X249274819Y-143653809D02*
X249417676Y-143558571D01*
X249417676Y-143558571D02*
X249512914Y-143463333D01*
X249512914Y-143463333D02*
X249560533Y-143368095D01*
X249274819Y-144844285D02*
X249274819Y-144368095D01*
X249274819Y-144368095D02*
X249751009Y-144320476D01*
X249751009Y-144320476D02*
X249703390Y-144368095D01*
X249703390Y-144368095D02*
X249655771Y-144463333D01*
X249655771Y-144463333D02*
X249655771Y-144701428D01*
X249655771Y-144701428D02*
X249703390Y-144796666D01*
X249703390Y-144796666D02*
X249751009Y-144844285D01*
X249751009Y-144844285D02*
X249846247Y-144891904D01*
X249846247Y-144891904D02*
X250084342Y-144891904D01*
X250084342Y-144891904D02*
X250179580Y-144844285D01*
X250179580Y-144844285D02*
X250227200Y-144796666D01*
X250227200Y-144796666D02*
X250274819Y-144701428D01*
X250274819Y-144701428D02*
X250274819Y-144463333D01*
X250274819Y-144463333D02*
X250227200Y-144368095D01*
X250227200Y-144368095D02*
X250179580Y-144320476D01*
X260379580Y-126487142D02*
X260427200Y-126439523D01*
X260427200Y-126439523D02*
X260474819Y-126296666D01*
X260474819Y-126296666D02*
X260474819Y-126201428D01*
X260474819Y-126201428D02*
X260427200Y-126058571D01*
X260427200Y-126058571D02*
X260331961Y-125963333D01*
X260331961Y-125963333D02*
X260236723Y-125915714D01*
X260236723Y-125915714D02*
X260046247Y-125868095D01*
X260046247Y-125868095D02*
X259903390Y-125868095D01*
X259903390Y-125868095D02*
X259712914Y-125915714D01*
X259712914Y-125915714D02*
X259617676Y-125963333D01*
X259617676Y-125963333D02*
X259522438Y-126058571D01*
X259522438Y-126058571D02*
X259474819Y-126201428D01*
X259474819Y-126201428D02*
X259474819Y-126296666D01*
X259474819Y-126296666D02*
X259522438Y-126439523D01*
X259522438Y-126439523D02*
X259570057Y-126487142D01*
X259570057Y-126868095D02*
X259522438Y-126915714D01*
X259522438Y-126915714D02*
X259474819Y-127010952D01*
X259474819Y-127010952D02*
X259474819Y-127249047D01*
X259474819Y-127249047D02*
X259522438Y-127344285D01*
X259522438Y-127344285D02*
X259570057Y-127391904D01*
X259570057Y-127391904D02*
X259665295Y-127439523D01*
X259665295Y-127439523D02*
X259760533Y-127439523D01*
X259760533Y-127439523D02*
X259903390Y-127391904D01*
X259903390Y-127391904D02*
X260474819Y-126820476D01*
X260474819Y-126820476D02*
X260474819Y-127439523D01*
X259474819Y-127772857D02*
X259474819Y-128391904D01*
X259474819Y-128391904D02*
X259855771Y-128058571D01*
X259855771Y-128058571D02*
X259855771Y-128201428D01*
X259855771Y-128201428D02*
X259903390Y-128296666D01*
X259903390Y-128296666D02*
X259951009Y-128344285D01*
X259951009Y-128344285D02*
X260046247Y-128391904D01*
X260046247Y-128391904D02*
X260284342Y-128391904D01*
X260284342Y-128391904D02*
X260379580Y-128344285D01*
X260379580Y-128344285D02*
X260427200Y-128296666D01*
X260427200Y-128296666D02*
X260474819Y-128201428D01*
X260474819Y-128201428D02*
X260474819Y-127915714D01*
X260474819Y-127915714D02*
X260427200Y-127820476D01*
X260427200Y-127820476D02*
X260379580Y-127772857D01*
X262146190Y-27984819D02*
X262146190Y-27318152D01*
X262146190Y-27508628D02*
X262098571Y-27413390D01*
X262098571Y-27413390D02*
X262050952Y-27365771D01*
X262050952Y-27365771D02*
X261955714Y-27318152D01*
X261955714Y-27318152D02*
X261860476Y-27318152D01*
X261527142Y-27984819D02*
X261527142Y-27318152D01*
X261527142Y-26984819D02*
X261574761Y-27032438D01*
X261574761Y-27032438D02*
X261527142Y-27080057D01*
X261527142Y-27080057D02*
X261479523Y-27032438D01*
X261479523Y-27032438D02*
X261527142Y-26984819D01*
X261527142Y-26984819D02*
X261527142Y-27080057D01*
X260622381Y-27318152D02*
X260622381Y-28127676D01*
X260622381Y-28127676D02*
X260670000Y-28222914D01*
X260670000Y-28222914D02*
X260717619Y-28270533D01*
X260717619Y-28270533D02*
X260812857Y-28318152D01*
X260812857Y-28318152D02*
X260955714Y-28318152D01*
X260955714Y-28318152D02*
X261050952Y-28270533D01*
X260622381Y-27937200D02*
X260717619Y-27984819D01*
X260717619Y-27984819D02*
X260908095Y-27984819D01*
X260908095Y-27984819D02*
X261003333Y-27937200D01*
X261003333Y-27937200D02*
X261050952Y-27889580D01*
X261050952Y-27889580D02*
X261098571Y-27794342D01*
X261098571Y-27794342D02*
X261098571Y-27508628D01*
X261098571Y-27508628D02*
X261050952Y-27413390D01*
X261050952Y-27413390D02*
X261003333Y-27365771D01*
X261003333Y-27365771D02*
X260908095Y-27318152D01*
X260908095Y-27318152D02*
X260717619Y-27318152D01*
X260717619Y-27318152D02*
X260622381Y-27365771D01*
X260146190Y-27984819D02*
X260146190Y-26984819D01*
X259717619Y-27984819D02*
X259717619Y-27461009D01*
X259717619Y-27461009D02*
X259765238Y-27365771D01*
X259765238Y-27365771D02*
X259860476Y-27318152D01*
X259860476Y-27318152D02*
X260003333Y-27318152D01*
X260003333Y-27318152D02*
X260098571Y-27365771D01*
X260098571Y-27365771D02*
X260146190Y-27413390D01*
X259384285Y-27318152D02*
X259003333Y-27318152D01*
X259241428Y-26984819D02*
X259241428Y-27841961D01*
X259241428Y-27841961D02*
X259193809Y-27937200D01*
X259193809Y-27937200D02*
X259098571Y-27984819D01*
X259098571Y-27984819D02*
X259003333Y-27984819D01*
X258336666Y-27461009D02*
X258193809Y-27508628D01*
X258193809Y-27508628D02*
X258146190Y-27556247D01*
X258146190Y-27556247D02*
X258098571Y-27651485D01*
X258098571Y-27651485D02*
X258098571Y-27794342D01*
X258098571Y-27794342D02*
X258146190Y-27889580D01*
X258146190Y-27889580D02*
X258193809Y-27937200D01*
X258193809Y-27937200D02*
X258289047Y-27984819D01*
X258289047Y-27984819D02*
X258669999Y-27984819D01*
X258669999Y-27984819D02*
X258669999Y-26984819D01*
X258669999Y-26984819D02*
X258336666Y-26984819D01*
X258336666Y-26984819D02*
X258241428Y-27032438D01*
X258241428Y-27032438D02*
X258193809Y-27080057D01*
X258193809Y-27080057D02*
X258146190Y-27175295D01*
X258146190Y-27175295D02*
X258146190Y-27270533D01*
X258146190Y-27270533D02*
X258193809Y-27365771D01*
X258193809Y-27365771D02*
X258241428Y-27413390D01*
X258241428Y-27413390D02*
X258336666Y-27461009D01*
X258336666Y-27461009D02*
X258669999Y-27461009D01*
X257146190Y-27984819D02*
X257717618Y-27984819D01*
X257431904Y-27984819D02*
X257431904Y-26984819D01*
X257431904Y-26984819D02*
X257527142Y-27127676D01*
X257527142Y-27127676D02*
X257622380Y-27222914D01*
X257622380Y-27222914D02*
X257717618Y-27270533D01*
X249244819Y-44922856D02*
X249197200Y-44827618D01*
X249197200Y-44827618D02*
X249101961Y-44779999D01*
X249101961Y-44779999D02*
X248244819Y-44779999D01*
X249197200Y-45684761D02*
X249244819Y-45589523D01*
X249244819Y-45589523D02*
X249244819Y-45399047D01*
X249244819Y-45399047D02*
X249197200Y-45303809D01*
X249197200Y-45303809D02*
X249101961Y-45256190D01*
X249101961Y-45256190D02*
X248721009Y-45256190D01*
X248721009Y-45256190D02*
X248625771Y-45303809D01*
X248625771Y-45303809D02*
X248578152Y-45399047D01*
X248578152Y-45399047D02*
X248578152Y-45589523D01*
X248578152Y-45589523D02*
X248625771Y-45684761D01*
X248625771Y-45684761D02*
X248721009Y-45732380D01*
X248721009Y-45732380D02*
X248816247Y-45732380D01*
X248816247Y-45732380D02*
X248911485Y-45256190D01*
X248578152Y-46018095D02*
X248578152Y-46399047D01*
X249244819Y-46160952D02*
X248387676Y-46160952D01*
X248387676Y-46160952D02*
X248292438Y-46208571D01*
X248292438Y-46208571D02*
X248244819Y-46303809D01*
X248244819Y-46303809D02*
X248244819Y-46399047D01*
X248578152Y-46589524D02*
X248578152Y-46970476D01*
X248244819Y-46732381D02*
X249101961Y-46732381D01*
X249101961Y-46732381D02*
X249197200Y-46780000D01*
X249197200Y-46780000D02*
X249244819Y-46875238D01*
X249244819Y-46875238D02*
X249244819Y-46970476D01*
X248721009Y-47637143D02*
X248768628Y-47780000D01*
X248768628Y-47780000D02*
X248816247Y-47827619D01*
X248816247Y-47827619D02*
X248911485Y-47875238D01*
X248911485Y-47875238D02*
X249054342Y-47875238D01*
X249054342Y-47875238D02*
X249149580Y-47827619D01*
X249149580Y-47827619D02*
X249197200Y-47780000D01*
X249197200Y-47780000D02*
X249244819Y-47684762D01*
X249244819Y-47684762D02*
X249244819Y-47303810D01*
X249244819Y-47303810D02*
X248244819Y-47303810D01*
X248244819Y-47303810D02*
X248244819Y-47637143D01*
X248244819Y-47637143D02*
X248292438Y-47732381D01*
X248292438Y-47732381D02*
X248340057Y-47780000D01*
X248340057Y-47780000D02*
X248435295Y-47827619D01*
X248435295Y-47827619D02*
X248530533Y-47827619D01*
X248530533Y-47827619D02*
X248625771Y-47780000D01*
X248625771Y-47780000D02*
X248673390Y-47732381D01*
X248673390Y-47732381D02*
X248721009Y-47637143D01*
X248721009Y-47637143D02*
X248721009Y-47303810D01*
X249244819Y-48827619D02*
X249244819Y-48256191D01*
X249244819Y-48541905D02*
X248244819Y-48541905D01*
X248244819Y-48541905D02*
X248387676Y-48446667D01*
X248387676Y-48446667D02*
X248482914Y-48351429D01*
X248482914Y-48351429D02*
X248530533Y-48256191D01*
X286564286Y-51184819D02*
X286897619Y-50708628D01*
X287135714Y-51184819D02*
X287135714Y-50184819D01*
X287135714Y-50184819D02*
X286754762Y-50184819D01*
X286754762Y-50184819D02*
X286659524Y-50232438D01*
X286659524Y-50232438D02*
X286611905Y-50280057D01*
X286611905Y-50280057D02*
X286564286Y-50375295D01*
X286564286Y-50375295D02*
X286564286Y-50518152D01*
X286564286Y-50518152D02*
X286611905Y-50613390D01*
X286611905Y-50613390D02*
X286659524Y-50661009D01*
X286659524Y-50661009D02*
X286754762Y-50708628D01*
X286754762Y-50708628D02*
X287135714Y-50708628D01*
X286135714Y-51184819D02*
X286135714Y-50518152D01*
X286135714Y-50184819D02*
X286183333Y-50232438D01*
X286183333Y-50232438D02*
X286135714Y-50280057D01*
X286135714Y-50280057D02*
X286088095Y-50232438D01*
X286088095Y-50232438D02*
X286135714Y-50184819D01*
X286135714Y-50184819D02*
X286135714Y-50280057D01*
X285230953Y-50518152D02*
X285230953Y-51327676D01*
X285230953Y-51327676D02*
X285278572Y-51422914D01*
X285278572Y-51422914D02*
X285326191Y-51470533D01*
X285326191Y-51470533D02*
X285421429Y-51518152D01*
X285421429Y-51518152D02*
X285564286Y-51518152D01*
X285564286Y-51518152D02*
X285659524Y-51470533D01*
X285230953Y-51137200D02*
X285326191Y-51184819D01*
X285326191Y-51184819D02*
X285516667Y-51184819D01*
X285516667Y-51184819D02*
X285611905Y-51137200D01*
X285611905Y-51137200D02*
X285659524Y-51089580D01*
X285659524Y-51089580D02*
X285707143Y-50994342D01*
X285707143Y-50994342D02*
X285707143Y-50708628D01*
X285707143Y-50708628D02*
X285659524Y-50613390D01*
X285659524Y-50613390D02*
X285611905Y-50565771D01*
X285611905Y-50565771D02*
X285516667Y-50518152D01*
X285516667Y-50518152D02*
X285326191Y-50518152D01*
X285326191Y-50518152D02*
X285230953Y-50565771D01*
X284754762Y-51184819D02*
X284754762Y-50184819D01*
X284326191Y-51184819D02*
X284326191Y-50661009D01*
X284326191Y-50661009D02*
X284373810Y-50565771D01*
X284373810Y-50565771D02*
X284469048Y-50518152D01*
X284469048Y-50518152D02*
X284611905Y-50518152D01*
X284611905Y-50518152D02*
X284707143Y-50565771D01*
X284707143Y-50565771D02*
X284754762Y-50613390D01*
X283992857Y-50518152D02*
X283611905Y-50518152D01*
X283850000Y-50184819D02*
X283850000Y-51041961D01*
X283850000Y-51041961D02*
X283802381Y-51137200D01*
X283802381Y-51137200D02*
X283707143Y-51184819D01*
X283707143Y-51184819D02*
X283611905Y-51184819D01*
X282945238Y-50661009D02*
X283278571Y-50661009D01*
X283278571Y-51184819D02*
X283278571Y-50184819D01*
X283278571Y-50184819D02*
X282802381Y-50184819D01*
X282421428Y-51184819D02*
X282421428Y-50518152D01*
X282421428Y-50708628D02*
X282373809Y-50613390D01*
X282373809Y-50613390D02*
X282326190Y-50565771D01*
X282326190Y-50565771D02*
X282230952Y-50518152D01*
X282230952Y-50518152D02*
X282135714Y-50518152D01*
X281659523Y-51184819D02*
X281754761Y-51137200D01*
X281754761Y-51137200D02*
X281802380Y-51089580D01*
X281802380Y-51089580D02*
X281849999Y-50994342D01*
X281849999Y-50994342D02*
X281849999Y-50708628D01*
X281849999Y-50708628D02*
X281802380Y-50613390D01*
X281802380Y-50613390D02*
X281754761Y-50565771D01*
X281754761Y-50565771D02*
X281659523Y-50518152D01*
X281659523Y-50518152D02*
X281516666Y-50518152D01*
X281516666Y-50518152D02*
X281421428Y-50565771D01*
X281421428Y-50565771D02*
X281373809Y-50613390D01*
X281373809Y-50613390D02*
X281326190Y-50708628D01*
X281326190Y-50708628D02*
X281326190Y-50994342D01*
X281326190Y-50994342D02*
X281373809Y-51089580D01*
X281373809Y-51089580D02*
X281421428Y-51137200D01*
X281421428Y-51137200D02*
X281516666Y-51184819D01*
X281516666Y-51184819D02*
X281659523Y-51184819D01*
X280897618Y-50518152D02*
X280897618Y-51184819D01*
X280897618Y-50613390D02*
X280849999Y-50565771D01*
X280849999Y-50565771D02*
X280754761Y-50518152D01*
X280754761Y-50518152D02*
X280611904Y-50518152D01*
X280611904Y-50518152D02*
X280516666Y-50565771D01*
X280516666Y-50565771D02*
X280469047Y-50661009D01*
X280469047Y-50661009D02*
X280469047Y-51184819D01*
X280135713Y-50518152D02*
X279754761Y-50518152D01*
X279992856Y-50184819D02*
X279992856Y-51041961D01*
X279992856Y-51041961D02*
X279945237Y-51137200D01*
X279945237Y-51137200D02*
X279849999Y-51184819D01*
X279849999Y-51184819D02*
X279754761Y-51184819D01*
X279659523Y-51280057D02*
X278897618Y-51280057D01*
X278278570Y-51137200D02*
X278373808Y-51184819D01*
X278373808Y-51184819D02*
X278564284Y-51184819D01*
X278564284Y-51184819D02*
X278659522Y-51137200D01*
X278659522Y-51137200D02*
X278707141Y-51041961D01*
X278707141Y-51041961D02*
X278707141Y-50661009D01*
X278707141Y-50661009D02*
X278659522Y-50565771D01*
X278659522Y-50565771D02*
X278564284Y-50518152D01*
X278564284Y-50518152D02*
X278373808Y-50518152D01*
X278373808Y-50518152D02*
X278278570Y-50565771D01*
X278278570Y-50565771D02*
X278230951Y-50661009D01*
X278230951Y-50661009D02*
X278230951Y-50756247D01*
X278230951Y-50756247D02*
X278707141Y-50851485D01*
X277802379Y-50518152D02*
X277802379Y-51184819D01*
X277802379Y-50613390D02*
X277754760Y-50565771D01*
X277754760Y-50565771D02*
X277659522Y-50518152D01*
X277659522Y-50518152D02*
X277516665Y-50518152D01*
X277516665Y-50518152D02*
X277421427Y-50565771D01*
X277421427Y-50565771D02*
X277373808Y-50661009D01*
X277373808Y-50661009D02*
X277373808Y-51184819D01*
X276469046Y-51137200D02*
X276564284Y-51184819D01*
X276564284Y-51184819D02*
X276754760Y-51184819D01*
X276754760Y-51184819D02*
X276849998Y-51137200D01*
X276849998Y-51137200D02*
X276897617Y-51089580D01*
X276897617Y-51089580D02*
X276945236Y-50994342D01*
X276945236Y-50994342D02*
X276945236Y-50708628D01*
X276945236Y-50708628D02*
X276897617Y-50613390D01*
X276897617Y-50613390D02*
X276849998Y-50565771D01*
X276849998Y-50565771D02*
X276754760Y-50518152D01*
X276754760Y-50518152D02*
X276564284Y-50518152D01*
X276564284Y-50518152D02*
X276469046Y-50565771D01*
X275516665Y-51184819D02*
X276088093Y-51184819D01*
X275802379Y-51184819D02*
X275802379Y-50184819D01*
X275802379Y-50184819D02*
X275897617Y-50327676D01*
X275897617Y-50327676D02*
X275992855Y-50422914D01*
X275992855Y-50422914D02*
X276088093Y-50470533D01*
X250379580Y-51513333D02*
X250427200Y-51465714D01*
X250427200Y-51465714D02*
X250474819Y-51322857D01*
X250474819Y-51322857D02*
X250474819Y-51227619D01*
X250474819Y-51227619D02*
X250427200Y-51084762D01*
X250427200Y-51084762D02*
X250331961Y-50989524D01*
X250331961Y-50989524D02*
X250236723Y-50941905D01*
X250236723Y-50941905D02*
X250046247Y-50894286D01*
X250046247Y-50894286D02*
X249903390Y-50894286D01*
X249903390Y-50894286D02*
X249712914Y-50941905D01*
X249712914Y-50941905D02*
X249617676Y-50989524D01*
X249617676Y-50989524D02*
X249522438Y-51084762D01*
X249522438Y-51084762D02*
X249474819Y-51227619D01*
X249474819Y-51227619D02*
X249474819Y-51322857D01*
X249474819Y-51322857D02*
X249522438Y-51465714D01*
X249522438Y-51465714D02*
X249570057Y-51513333D01*
X250474819Y-52465714D02*
X250474819Y-51894286D01*
X250474819Y-52180000D02*
X249474819Y-52180000D01*
X249474819Y-52180000D02*
X249617676Y-52084762D01*
X249617676Y-52084762D02*
X249712914Y-51989524D01*
X249712914Y-51989524D02*
X249760533Y-51894286D01*
X270712857Y-50189580D02*
X270760476Y-50237200D01*
X270760476Y-50237200D02*
X270903333Y-50284819D01*
X270903333Y-50284819D02*
X270998571Y-50284819D01*
X270998571Y-50284819D02*
X271141428Y-50237200D01*
X271141428Y-50237200D02*
X271236666Y-50141961D01*
X271236666Y-50141961D02*
X271284285Y-50046723D01*
X271284285Y-50046723D02*
X271331904Y-49856247D01*
X271331904Y-49856247D02*
X271331904Y-49713390D01*
X271331904Y-49713390D02*
X271284285Y-49522914D01*
X271284285Y-49522914D02*
X271236666Y-49427676D01*
X271236666Y-49427676D02*
X271141428Y-49332438D01*
X271141428Y-49332438D02*
X270998571Y-49284819D01*
X270998571Y-49284819D02*
X270903333Y-49284819D01*
X270903333Y-49284819D02*
X270760476Y-49332438D01*
X270760476Y-49332438D02*
X270712857Y-49380057D01*
X270331904Y-49380057D02*
X270284285Y-49332438D01*
X270284285Y-49332438D02*
X270189047Y-49284819D01*
X270189047Y-49284819D02*
X269950952Y-49284819D01*
X269950952Y-49284819D02*
X269855714Y-49332438D01*
X269855714Y-49332438D02*
X269808095Y-49380057D01*
X269808095Y-49380057D02*
X269760476Y-49475295D01*
X269760476Y-49475295D02*
X269760476Y-49570533D01*
X269760476Y-49570533D02*
X269808095Y-49713390D01*
X269808095Y-49713390D02*
X270379523Y-50284819D01*
X270379523Y-50284819D02*
X269760476Y-50284819D01*
X269379523Y-49380057D02*
X269331904Y-49332438D01*
X269331904Y-49332438D02*
X269236666Y-49284819D01*
X269236666Y-49284819D02*
X268998571Y-49284819D01*
X268998571Y-49284819D02*
X268903333Y-49332438D01*
X268903333Y-49332438D02*
X268855714Y-49380057D01*
X268855714Y-49380057D02*
X268808095Y-49475295D01*
X268808095Y-49475295D02*
X268808095Y-49570533D01*
X268808095Y-49570533D02*
X268855714Y-49713390D01*
X268855714Y-49713390D02*
X269427142Y-50284819D01*
X269427142Y-50284819D02*
X268808095Y-50284819D01*
X241474819Y-141658571D02*
X242284342Y-141658571D01*
X242284342Y-141658571D02*
X242379580Y-141706190D01*
X242379580Y-141706190D02*
X242427200Y-141753809D01*
X242427200Y-141753809D02*
X242474819Y-141849047D01*
X242474819Y-141849047D02*
X242474819Y-142039523D01*
X242474819Y-142039523D02*
X242427200Y-142134761D01*
X242427200Y-142134761D02*
X242379580Y-142182380D01*
X242379580Y-142182380D02*
X242284342Y-142229999D01*
X242284342Y-142229999D02*
X241474819Y-142229999D01*
X242189104Y-142658571D02*
X242189104Y-143134761D01*
X242474819Y-142563333D02*
X241474819Y-142896666D01*
X241474819Y-142896666D02*
X242474819Y-143229999D01*
X242474819Y-144134761D02*
X241998628Y-143801428D01*
X242474819Y-143563333D02*
X241474819Y-143563333D01*
X241474819Y-143563333D02*
X241474819Y-143944285D01*
X241474819Y-143944285D02*
X241522438Y-144039523D01*
X241522438Y-144039523D02*
X241570057Y-144087142D01*
X241570057Y-144087142D02*
X241665295Y-144134761D01*
X241665295Y-144134761D02*
X241808152Y-144134761D01*
X241808152Y-144134761D02*
X241903390Y-144087142D01*
X241903390Y-144087142D02*
X241951009Y-144039523D01*
X241951009Y-144039523D02*
X241998628Y-143944285D01*
X241998628Y-143944285D02*
X241998628Y-143563333D01*
X241474819Y-144420476D02*
X241474819Y-144991904D01*
X242474819Y-144706190D02*
X241474819Y-144706190D01*
X242474819Y-145849047D02*
X242474819Y-145277619D01*
X242474819Y-145563333D02*
X241474819Y-145563333D01*
X241474819Y-145563333D02*
X241617676Y-145468095D01*
X241617676Y-145468095D02*
X241712914Y-145372857D01*
X241712914Y-145372857D02*
X241760533Y-145277619D01*
X261455714Y-164144819D02*
X261550952Y-164097200D01*
X261550952Y-164097200D02*
X261598571Y-164001961D01*
X261598571Y-164001961D02*
X261598571Y-163144819D01*
X260693809Y-164097200D02*
X260789047Y-164144819D01*
X260789047Y-164144819D02*
X260979523Y-164144819D01*
X260979523Y-164144819D02*
X261074761Y-164097200D01*
X261074761Y-164097200D02*
X261122380Y-164001961D01*
X261122380Y-164001961D02*
X261122380Y-163621009D01*
X261122380Y-163621009D02*
X261074761Y-163525771D01*
X261074761Y-163525771D02*
X260979523Y-163478152D01*
X260979523Y-163478152D02*
X260789047Y-163478152D01*
X260789047Y-163478152D02*
X260693809Y-163525771D01*
X260693809Y-163525771D02*
X260646190Y-163621009D01*
X260646190Y-163621009D02*
X260646190Y-163716247D01*
X260646190Y-163716247D02*
X261122380Y-163811485D01*
X260360475Y-163478152D02*
X259979523Y-163478152D01*
X260217618Y-164144819D02*
X260217618Y-163287676D01*
X260217618Y-163287676D02*
X260169999Y-163192438D01*
X260169999Y-163192438D02*
X260074761Y-163144819D01*
X260074761Y-163144819D02*
X259979523Y-163144819D01*
X259789046Y-163478152D02*
X259408094Y-163478152D01*
X259646189Y-163144819D02*
X259646189Y-164001961D01*
X259646189Y-164001961D02*
X259598570Y-164097200D01*
X259598570Y-164097200D02*
X259503332Y-164144819D01*
X259503332Y-164144819D02*
X259408094Y-164144819D01*
X258741427Y-163621009D02*
X259074760Y-163621009D01*
X259074760Y-164144819D02*
X259074760Y-163144819D01*
X259074760Y-163144819D02*
X258598570Y-163144819D01*
X257693808Y-164144819D02*
X258265236Y-164144819D01*
X257979522Y-164144819D02*
X257979522Y-163144819D01*
X257979522Y-163144819D02*
X258074760Y-163287676D01*
X258074760Y-163287676D02*
X258169998Y-163382914D01*
X258169998Y-163382914D02*
X258265236Y-163430533D01*
X230062857Y-52409580D02*
X230110476Y-52457200D01*
X230110476Y-52457200D02*
X230253333Y-52504819D01*
X230253333Y-52504819D02*
X230348571Y-52504819D01*
X230348571Y-52504819D02*
X230491428Y-52457200D01*
X230491428Y-52457200D02*
X230586666Y-52361961D01*
X230586666Y-52361961D02*
X230634285Y-52266723D01*
X230634285Y-52266723D02*
X230681904Y-52076247D01*
X230681904Y-52076247D02*
X230681904Y-51933390D01*
X230681904Y-51933390D02*
X230634285Y-51742914D01*
X230634285Y-51742914D02*
X230586666Y-51647676D01*
X230586666Y-51647676D02*
X230491428Y-51552438D01*
X230491428Y-51552438D02*
X230348571Y-51504819D01*
X230348571Y-51504819D02*
X230253333Y-51504819D01*
X230253333Y-51504819D02*
X230110476Y-51552438D01*
X230110476Y-51552438D02*
X230062857Y-51600057D01*
X229110476Y-52504819D02*
X229681904Y-52504819D01*
X229396190Y-52504819D02*
X229396190Y-51504819D01*
X229396190Y-51504819D02*
X229491428Y-51647676D01*
X229491428Y-51647676D02*
X229586666Y-51742914D01*
X229586666Y-51742914D02*
X229681904Y-51790533D01*
X228729523Y-51600057D02*
X228681904Y-51552438D01*
X228681904Y-51552438D02*
X228586666Y-51504819D01*
X228586666Y-51504819D02*
X228348571Y-51504819D01*
X228348571Y-51504819D02*
X228253333Y-51552438D01*
X228253333Y-51552438D02*
X228205714Y-51600057D01*
X228205714Y-51600057D02*
X228158095Y-51695295D01*
X228158095Y-51695295D02*
X228158095Y-51790533D01*
X228158095Y-51790533D02*
X228205714Y-51933390D01*
X228205714Y-51933390D02*
X228777142Y-52504819D01*
X228777142Y-52504819D02*
X228158095Y-52504819D01*
X270499580Y-162997142D02*
X270547200Y-162949523D01*
X270547200Y-162949523D02*
X270594819Y-162806666D01*
X270594819Y-162806666D02*
X270594819Y-162711428D01*
X270594819Y-162711428D02*
X270547200Y-162568571D01*
X270547200Y-162568571D02*
X270451961Y-162473333D01*
X270451961Y-162473333D02*
X270356723Y-162425714D01*
X270356723Y-162425714D02*
X270166247Y-162378095D01*
X270166247Y-162378095D02*
X270023390Y-162378095D01*
X270023390Y-162378095D02*
X269832914Y-162425714D01*
X269832914Y-162425714D02*
X269737676Y-162473333D01*
X269737676Y-162473333D02*
X269642438Y-162568571D01*
X269642438Y-162568571D02*
X269594819Y-162711428D01*
X269594819Y-162711428D02*
X269594819Y-162806666D01*
X269594819Y-162806666D02*
X269642438Y-162949523D01*
X269642438Y-162949523D02*
X269690057Y-162997142D01*
X270594819Y-163949523D02*
X270594819Y-163378095D01*
X270594819Y-163663809D02*
X269594819Y-163663809D01*
X269594819Y-163663809D02*
X269737676Y-163568571D01*
X269737676Y-163568571D02*
X269832914Y-163473333D01*
X269832914Y-163473333D02*
X269880533Y-163378095D01*
X270023390Y-164520952D02*
X269975771Y-164425714D01*
X269975771Y-164425714D02*
X269928152Y-164378095D01*
X269928152Y-164378095D02*
X269832914Y-164330476D01*
X269832914Y-164330476D02*
X269785295Y-164330476D01*
X269785295Y-164330476D02*
X269690057Y-164378095D01*
X269690057Y-164378095D02*
X269642438Y-164425714D01*
X269642438Y-164425714D02*
X269594819Y-164520952D01*
X269594819Y-164520952D02*
X269594819Y-164711428D01*
X269594819Y-164711428D02*
X269642438Y-164806666D01*
X269642438Y-164806666D02*
X269690057Y-164854285D01*
X269690057Y-164854285D02*
X269785295Y-164901904D01*
X269785295Y-164901904D02*
X269832914Y-164901904D01*
X269832914Y-164901904D02*
X269928152Y-164854285D01*
X269928152Y-164854285D02*
X269975771Y-164806666D01*
X269975771Y-164806666D02*
X270023390Y-164711428D01*
X270023390Y-164711428D02*
X270023390Y-164520952D01*
X270023390Y-164520952D02*
X270071009Y-164425714D01*
X270071009Y-164425714D02*
X270118628Y-164378095D01*
X270118628Y-164378095D02*
X270213866Y-164330476D01*
X270213866Y-164330476D02*
X270404342Y-164330476D01*
X270404342Y-164330476D02*
X270499580Y-164378095D01*
X270499580Y-164378095D02*
X270547200Y-164425714D01*
X270547200Y-164425714D02*
X270594819Y-164520952D01*
X270594819Y-164520952D02*
X270594819Y-164711428D01*
X270594819Y-164711428D02*
X270547200Y-164806666D01*
X270547200Y-164806666D02*
X270499580Y-164854285D01*
X270499580Y-164854285D02*
X270404342Y-164901904D01*
X270404342Y-164901904D02*
X270213866Y-164901904D01*
X270213866Y-164901904D02*
X270118628Y-164854285D01*
X270118628Y-164854285D02*
X270071009Y-164806666D01*
X270071009Y-164806666D02*
X270023390Y-164711428D01*
X243934761Y-187114819D02*
X243934761Y-186448152D01*
X243934761Y-186638628D02*
X243887142Y-186543390D01*
X243887142Y-186543390D02*
X243839523Y-186495771D01*
X243839523Y-186495771D02*
X243744285Y-186448152D01*
X243744285Y-186448152D02*
X243649047Y-186448152D01*
X243315713Y-187114819D02*
X243315713Y-186448152D01*
X243315713Y-186114819D02*
X243363332Y-186162438D01*
X243363332Y-186162438D02*
X243315713Y-186210057D01*
X243315713Y-186210057D02*
X243268094Y-186162438D01*
X243268094Y-186162438D02*
X243315713Y-186114819D01*
X243315713Y-186114819D02*
X243315713Y-186210057D01*
X242410952Y-186448152D02*
X242410952Y-187257676D01*
X242410952Y-187257676D02*
X242458571Y-187352914D01*
X242458571Y-187352914D02*
X242506190Y-187400533D01*
X242506190Y-187400533D02*
X242601428Y-187448152D01*
X242601428Y-187448152D02*
X242744285Y-187448152D01*
X242744285Y-187448152D02*
X242839523Y-187400533D01*
X242410952Y-187067200D02*
X242506190Y-187114819D01*
X242506190Y-187114819D02*
X242696666Y-187114819D01*
X242696666Y-187114819D02*
X242791904Y-187067200D01*
X242791904Y-187067200D02*
X242839523Y-187019580D01*
X242839523Y-187019580D02*
X242887142Y-186924342D01*
X242887142Y-186924342D02*
X242887142Y-186638628D01*
X242887142Y-186638628D02*
X242839523Y-186543390D01*
X242839523Y-186543390D02*
X242791904Y-186495771D01*
X242791904Y-186495771D02*
X242696666Y-186448152D01*
X242696666Y-186448152D02*
X242506190Y-186448152D01*
X242506190Y-186448152D02*
X242410952Y-186495771D01*
X241934761Y-187114819D02*
X241934761Y-186114819D01*
X241506190Y-187114819D02*
X241506190Y-186591009D01*
X241506190Y-186591009D02*
X241553809Y-186495771D01*
X241553809Y-186495771D02*
X241649047Y-186448152D01*
X241649047Y-186448152D02*
X241791904Y-186448152D01*
X241791904Y-186448152D02*
X241887142Y-186495771D01*
X241887142Y-186495771D02*
X241934761Y-186543390D01*
X241172856Y-186448152D02*
X240791904Y-186448152D01*
X241029999Y-186114819D02*
X241029999Y-186971961D01*
X241029999Y-186971961D02*
X240982380Y-187067200D01*
X240982380Y-187067200D02*
X240887142Y-187114819D01*
X240887142Y-187114819D02*
X240791904Y-187114819D01*
X240125237Y-186591009D02*
X240458570Y-186591009D01*
X240458570Y-187114819D02*
X240458570Y-186114819D01*
X240458570Y-186114819D02*
X239982380Y-186114819D01*
X239077618Y-187114819D02*
X239649046Y-187114819D01*
X239363332Y-187114819D02*
X239363332Y-186114819D01*
X239363332Y-186114819D02*
X239458570Y-186257676D01*
X239458570Y-186257676D02*
X239553808Y-186352914D01*
X239553808Y-186352914D02*
X239649046Y-186400533D01*
D11*
%TO.C,C25*%
X235641252Y-26705000D02*
X235118748Y-26705000D01*
X235641252Y-28175000D02*
X235118748Y-28175000D01*
%TO.C,C20*%
X289808748Y-53105000D02*
X290331252Y-53105000D01*
X289808748Y-54575000D02*
X290331252Y-54575000D01*
%TO.C,StepMot_LB1*%
X228790000Y-33750000D02*
X228790000Y-35080000D01*
X228790000Y-36350000D02*
X228790000Y-44030000D01*
X230120000Y-33750000D02*
X228790000Y-33750000D01*
X231450000Y-36350000D02*
X228790000Y-36350000D01*
X231450000Y-36350000D02*
X231450000Y-44030000D01*
X231450000Y-44030000D02*
X228790000Y-44030000D01*
%TO.C,StepMot_RF1*%
X228370000Y-169900000D02*
X228370000Y-171230000D01*
X228370000Y-172500000D02*
X228370000Y-180180000D01*
X229700000Y-169900000D02*
X228370000Y-169900000D01*
X231030000Y-172500000D02*
X228370000Y-172500000D01*
X231030000Y-172500000D02*
X231030000Y-180180000D01*
X231030000Y-180180000D02*
X228370000Y-180180000D01*
%TO.C,C19*%
X249085000Y-188118748D02*
X249085000Y-188641252D01*
X250555000Y-188118748D02*
X250555000Y-188641252D01*
%TO.C,RightBack_enc1*%
X255090000Y-128500000D02*
X257750000Y-128500000D01*
X255090000Y-136180000D02*
X255090000Y-128500000D01*
X255090000Y-136180000D02*
X257750000Y-136180000D01*
X256420000Y-138780000D02*
X257750000Y-138780000D01*
X257750000Y-136180000D02*
X257750000Y-128500000D01*
X257750000Y-138780000D02*
X257750000Y-137450000D01*
%TO.C,StepMot_RB1*%
X268430000Y-34360000D02*
X271090000Y-34360000D01*
X268430000Y-42040000D02*
X268430000Y-34360000D01*
X268430000Y-42040000D02*
X271090000Y-42040000D01*
X269760000Y-44640000D02*
X271090000Y-44640000D01*
X271090000Y-42040000D02*
X271090000Y-34360000D01*
X271090000Y-44640000D02*
X271090000Y-43310000D01*
%TO.C,C21*%
X266768748Y-186845000D02*
X267291252Y-186845000D01*
X266768748Y-188315000D02*
X267291252Y-188315000D01*
%TO.C,C6*%
X299685000Y-174388748D02*
X299685000Y-174911252D01*
X301155000Y-174388748D02*
X301155000Y-174911252D01*
%TO.C,C17*%
X297285000Y-61418748D02*
X297285000Y-61941252D01*
X298755000Y-61418748D02*
X298755000Y-61941252D01*
%TO.C,C16*%
X269025000Y-32011252D02*
X269025000Y-31488748D01*
X270495000Y-32011252D02*
X270495000Y-31488748D01*
%TO.C,C26*%
X237131252Y-186895000D02*
X236608748Y-186895000D01*
X237131252Y-188365000D02*
X236608748Y-188365000D01*
%TO.C,LeftBack_enc1*%
X255290000Y-141500000D02*
X257950000Y-141500000D01*
X255290000Y-149180000D02*
X255290000Y-141500000D01*
X255290000Y-149180000D02*
X257950000Y-149180000D01*
X256620000Y-151780000D02*
X257950000Y-151780000D01*
X257950000Y-149180000D02*
X257950000Y-141500000D01*
X257950000Y-151780000D02*
X257950000Y-150450000D01*
%TO.C,LeftFront_enc1*%
X232120000Y-54980000D02*
X232120000Y-52320000D01*
X239800000Y-52320000D02*
X232120000Y-52320000D01*
X239800000Y-54980000D02*
X232120000Y-54980000D01*
X239800000Y-54980000D02*
X239800000Y-52320000D01*
X242400000Y-52320000D02*
X241070000Y-52320000D01*
X242400000Y-53650000D02*
X242400000Y-52320000D01*
%TO.C,STEPMOT_LF1*%
X269190000Y-169900000D02*
X271850000Y-169900000D01*
X269190000Y-177580000D02*
X269190000Y-169900000D01*
X269190000Y-177580000D02*
X271850000Y-177580000D01*
X270520000Y-180180000D02*
X271850000Y-180180000D01*
X271850000Y-177580000D02*
X271850000Y-169900000D01*
X271850000Y-180180000D02*
X271850000Y-178850000D01*
%TO.C,C15*%
X251485000Y-143418748D02*
X251485000Y-143941252D01*
X252955000Y-143418748D02*
X252955000Y-143941252D01*
%TO.C,C23*%
X259285000Y-130518748D02*
X259285000Y-131041252D01*
X260755000Y-130518748D02*
X260755000Y-131041252D01*
%TO.C,rightB1*%
X251920000Y-28670000D02*
X264750000Y-28670000D01*
X251920000Y-49250000D02*
X251920000Y-28670000D01*
X254590000Y-28670000D02*
X254590000Y-49250000D01*
X264750000Y-28670000D02*
X264750000Y-31340000D01*
X264750000Y-31340000D02*
X264750000Y-49250000D01*
X264750000Y-31340000D02*
X267420000Y-31340000D01*
X266020000Y-28670000D02*
X267420000Y-28670000D01*
X267420000Y-28670000D02*
X267420000Y-30070000D01*
X267420000Y-31340000D02*
X267420000Y-49250000D01*
X267420000Y-49250000D02*
X251920000Y-49250000D01*
%TO.C,leftB1*%
X232190000Y-28640000D02*
X247690000Y-28640000D01*
X232190000Y-46550000D02*
X232190000Y-28640000D01*
X232190000Y-49220000D02*
X232190000Y-47820000D01*
X233590000Y-49220000D02*
X232190000Y-49220000D01*
X234860000Y-46550000D02*
X232190000Y-46550000D01*
X234860000Y-46550000D02*
X234860000Y-28640000D01*
X234860000Y-49220000D02*
X234860000Y-46550000D01*
X245020000Y-49220000D02*
X245020000Y-28640000D01*
X247690000Y-28640000D02*
X247690000Y-49220000D01*
X247690000Y-49220000D02*
X234860000Y-49220000D01*
%TO.C,RightFront_enc1*%
X276190000Y-53730000D02*
X276190000Y-55060000D01*
X276190000Y-55060000D02*
X277520000Y-55060000D01*
X278790000Y-52400000D02*
X278790000Y-55060000D01*
X278790000Y-52400000D02*
X286470000Y-52400000D01*
X278790000Y-55060000D02*
X286470000Y-55060000D01*
X286470000Y-52400000D02*
X286470000Y-55060000D01*
%TO.C,C1*%
X247285000Y-51418748D02*
X247285000Y-51941252D01*
X248755000Y-51418748D02*
X248755000Y-51941252D01*
%TO.C,C22*%
X269808748Y-47415000D02*
X270331252Y-47415000D01*
X269808748Y-48885000D02*
X270331252Y-48885000D01*
%TO.C,UART1*%
X237690000Y-140360000D02*
X237690000Y-141690000D01*
X237690000Y-142960000D02*
X237690000Y-148100000D01*
X239020000Y-140360000D02*
X237690000Y-140360000D01*
X240350000Y-142960000D02*
X237690000Y-142960000D01*
X240350000Y-142960000D02*
X240350000Y-148100000D01*
X240350000Y-148100000D02*
X237690000Y-148100000D01*
%TO.C,leftF1*%
X251920000Y-164830000D02*
X264750000Y-164830000D01*
X251920000Y-185410000D02*
X251920000Y-164830000D01*
X254590000Y-164830000D02*
X254590000Y-185410000D01*
X264750000Y-164830000D02*
X264750000Y-167500000D01*
X264750000Y-167500000D02*
X264750000Y-185410000D01*
X264750000Y-167500000D02*
X267420000Y-167500000D01*
X266020000Y-164830000D02*
X267420000Y-164830000D01*
X267420000Y-164830000D02*
X267420000Y-166230000D01*
X267420000Y-167500000D02*
X267420000Y-185410000D01*
X267420000Y-185410000D02*
X251920000Y-185410000D01*
%TO.C,C12*%
X229681252Y-52995000D02*
X229158748Y-52995000D01*
X229681252Y-54465000D02*
X229158748Y-54465000D01*
%TO.C,C18*%
X269205000Y-167751252D02*
X269205000Y-167228748D01*
X270675000Y-167751252D02*
X270675000Y-167228748D01*
%TO.C,rightF1*%
X233780000Y-164940000D02*
X249280000Y-164940000D01*
X233780000Y-182850000D02*
X233780000Y-164940000D01*
X233780000Y-185520000D02*
X233780000Y-184120000D01*
X235180000Y-185520000D02*
X233780000Y-185520000D01*
X236450000Y-182850000D02*
X233780000Y-182850000D01*
X236450000Y-182850000D02*
X236450000Y-164940000D01*
X236450000Y-185520000D02*
X236450000Y-182850000D01*
X246610000Y-185520000D02*
X246610000Y-164940000D01*
X249280000Y-164940000D02*
X249280000Y-185520000D01*
X249280000Y-185520000D02*
X236450000Y-185520000D01*
%TD*%
M02*
