%TF.GenerationSoftware,KiCad,Pcbnew,9.0.0*%
%TF.CreationDate,2025-11-14T21:09:55+01:00*%
%TF.ProjectId,PCBV2,50434256-322e-46b6-9963-61645f706362,rev?*%
%TF.SameCoordinates,Original*%
%TF.FileFunction,Legend,Top*%
%TF.FilePolarity,Positive*%
%FSLAX46Y46*%
G04 Gerber Fmt 4.6, Leading zero omitted, Abs format (unit mm)*
G04 Created by KiCad (PCBNEW 9.0.0) date 2025-11-14 21:09:55*
%MOMM*%
%LPD*%
G01*
G04 APERTURE LIST*
%ADD10C,0.150000*%
%ADD11C,0.120000*%
%ADD12C,0.127000*%
%ADD13C,0.300000*%
%ADD14C,0.100000*%
G04 APERTURE END LIST*
D10*
X273198207Y-195009819D02*
X272864874Y-194533628D01*
X272626779Y-195009819D02*
X272626779Y-194009819D01*
X272626779Y-194009819D02*
X273007731Y-194009819D01*
X273007731Y-194009819D02*
X273102969Y-194057438D01*
X273102969Y-194057438D02*
X273150588Y-194105057D01*
X273150588Y-194105057D02*
X273198207Y-194200295D01*
X273198207Y-194200295D02*
X273198207Y-194343152D01*
X273198207Y-194343152D02*
X273150588Y-194438390D01*
X273150588Y-194438390D02*
X273102969Y-194486009D01*
X273102969Y-194486009D02*
X273007731Y-194533628D01*
X273007731Y-194533628D02*
X272626779Y-194533628D01*
X273531541Y-194009819D02*
X274198207Y-195009819D01*
X274198207Y-194009819D02*
X273531541Y-195009819D01*
X274531541Y-194105057D02*
X274579160Y-194057438D01*
X274579160Y-194057438D02*
X274674398Y-194009819D01*
X274674398Y-194009819D02*
X274912493Y-194009819D01*
X274912493Y-194009819D02*
X275007731Y-194057438D01*
X275007731Y-194057438D02*
X275055350Y-194105057D01*
X275055350Y-194105057D02*
X275102969Y-194200295D01*
X275102969Y-194200295D02*
X275102969Y-194295533D01*
X275102969Y-194295533D02*
X275055350Y-194438390D01*
X275055350Y-194438390D02*
X274483922Y-195009819D01*
X274483922Y-195009819D02*
X275102969Y-195009819D01*
X275223922Y-194029819D02*
X275795350Y-194029819D01*
X275509636Y-195029819D02*
X275509636Y-194029819D01*
X276033446Y-194029819D02*
X276700112Y-195029819D01*
X276700112Y-194029819D02*
X276033446Y-195029819D01*
X277033446Y-194125057D02*
X277081065Y-194077438D01*
X277081065Y-194077438D02*
X277176303Y-194029819D01*
X277176303Y-194029819D02*
X277414398Y-194029819D01*
X277414398Y-194029819D02*
X277509636Y-194077438D01*
X277509636Y-194077438D02*
X277557255Y-194125057D01*
X277557255Y-194125057D02*
X277604874Y-194220295D01*
X277604874Y-194220295D02*
X277604874Y-194315533D01*
X277604874Y-194315533D02*
X277557255Y-194458390D01*
X277557255Y-194458390D02*
X276985827Y-195029819D01*
X276985827Y-195029819D02*
X277604874Y-195029819D01*
X270240588Y-194027438D02*
X270145350Y-193979819D01*
X270145350Y-193979819D02*
X270002493Y-193979819D01*
X270002493Y-193979819D02*
X269859636Y-194027438D01*
X269859636Y-194027438D02*
X269764398Y-194122676D01*
X269764398Y-194122676D02*
X269716779Y-194217914D01*
X269716779Y-194217914D02*
X269669160Y-194408390D01*
X269669160Y-194408390D02*
X269669160Y-194551247D01*
X269669160Y-194551247D02*
X269716779Y-194741723D01*
X269716779Y-194741723D02*
X269764398Y-194836961D01*
X269764398Y-194836961D02*
X269859636Y-194932200D01*
X269859636Y-194932200D02*
X270002493Y-194979819D01*
X270002493Y-194979819D02*
X270097731Y-194979819D01*
X270097731Y-194979819D02*
X270240588Y-194932200D01*
X270240588Y-194932200D02*
X270288207Y-194884580D01*
X270288207Y-194884580D02*
X270288207Y-194551247D01*
X270288207Y-194551247D02*
X270097731Y-194551247D01*
X270716779Y-194979819D02*
X270716779Y-193979819D01*
X270716779Y-193979819D02*
X271288207Y-194979819D01*
X271288207Y-194979819D02*
X271288207Y-193979819D01*
X271764398Y-194979819D02*
X271764398Y-193979819D01*
X271764398Y-193979819D02*
X272002493Y-193979819D01*
X272002493Y-193979819D02*
X272145350Y-194027438D01*
X272145350Y-194027438D02*
X272240588Y-194122676D01*
X272240588Y-194122676D02*
X272288207Y-194217914D01*
X272288207Y-194217914D02*
X272335826Y-194408390D01*
X272335826Y-194408390D02*
X272335826Y-194551247D01*
X272335826Y-194551247D02*
X272288207Y-194741723D01*
X272288207Y-194741723D02*
X272240588Y-194836961D01*
X272240588Y-194836961D02*
X272145350Y-194932200D01*
X272145350Y-194932200D02*
X272002493Y-194979819D01*
X272002493Y-194979819D02*
X271764398Y-194979819D01*
X331351009Y-156782381D02*
X331398628Y-156639524D01*
X331398628Y-156639524D02*
X331446247Y-156591905D01*
X331446247Y-156591905D02*
X331541485Y-156544286D01*
X331541485Y-156544286D02*
X331684342Y-156544286D01*
X331684342Y-156544286D02*
X331779580Y-156591905D01*
X331779580Y-156591905D02*
X331827200Y-156639524D01*
X331827200Y-156639524D02*
X331874819Y-156734762D01*
X331874819Y-156734762D02*
X331874819Y-157115714D01*
X331874819Y-157115714D02*
X330874819Y-157115714D01*
X330874819Y-157115714D02*
X330874819Y-156782381D01*
X330874819Y-156782381D02*
X330922438Y-156687143D01*
X330922438Y-156687143D02*
X330970057Y-156639524D01*
X330970057Y-156639524D02*
X331065295Y-156591905D01*
X331065295Y-156591905D02*
X331160533Y-156591905D01*
X331160533Y-156591905D02*
X331255771Y-156639524D01*
X331255771Y-156639524D02*
X331303390Y-156687143D01*
X331303390Y-156687143D02*
X331351009Y-156782381D01*
X331351009Y-156782381D02*
X331351009Y-157115714D01*
X331874819Y-155687143D02*
X331351009Y-155687143D01*
X331351009Y-155687143D02*
X331255771Y-155734762D01*
X331255771Y-155734762D02*
X331208152Y-155830000D01*
X331208152Y-155830000D02*
X331208152Y-156020476D01*
X331208152Y-156020476D02*
X331255771Y-156115714D01*
X331827200Y-155687143D02*
X331874819Y-155782381D01*
X331874819Y-155782381D02*
X331874819Y-156020476D01*
X331874819Y-156020476D02*
X331827200Y-156115714D01*
X331827200Y-156115714D02*
X331731961Y-156163333D01*
X331731961Y-156163333D02*
X331636723Y-156163333D01*
X331636723Y-156163333D02*
X331541485Y-156115714D01*
X331541485Y-156115714D02*
X331493866Y-156020476D01*
X331493866Y-156020476D02*
X331493866Y-155782381D01*
X331493866Y-155782381D02*
X331446247Y-155687143D01*
X331827200Y-154782381D02*
X331874819Y-154877619D01*
X331874819Y-154877619D02*
X331874819Y-155068095D01*
X331874819Y-155068095D02*
X331827200Y-155163333D01*
X331827200Y-155163333D02*
X331779580Y-155210952D01*
X331779580Y-155210952D02*
X331684342Y-155258571D01*
X331684342Y-155258571D02*
X331398628Y-155258571D01*
X331398628Y-155258571D02*
X331303390Y-155210952D01*
X331303390Y-155210952D02*
X331255771Y-155163333D01*
X331255771Y-155163333D02*
X331208152Y-155068095D01*
X331208152Y-155068095D02*
X331208152Y-154877619D01*
X331208152Y-154877619D02*
X331255771Y-154782381D01*
X331874819Y-154353809D02*
X330874819Y-154353809D01*
X331493866Y-154258571D02*
X331874819Y-153972857D01*
X331208152Y-153972857D02*
X331589104Y-154353809D01*
X331351009Y-153210952D02*
X331398628Y-153068095D01*
X331398628Y-153068095D02*
X331446247Y-153020476D01*
X331446247Y-153020476D02*
X331541485Y-152972857D01*
X331541485Y-152972857D02*
X331684342Y-152972857D01*
X331684342Y-152972857D02*
X331779580Y-153020476D01*
X331779580Y-153020476D02*
X331827200Y-153068095D01*
X331827200Y-153068095D02*
X331874819Y-153163333D01*
X331874819Y-153163333D02*
X331874819Y-153544285D01*
X331874819Y-153544285D02*
X330874819Y-153544285D01*
X330874819Y-153544285D02*
X330874819Y-153210952D01*
X330874819Y-153210952D02*
X330922438Y-153115714D01*
X330922438Y-153115714D02*
X330970057Y-153068095D01*
X330970057Y-153068095D02*
X331065295Y-153020476D01*
X331065295Y-153020476D02*
X331160533Y-153020476D01*
X331160533Y-153020476D02*
X331255771Y-153068095D01*
X331255771Y-153068095D02*
X331303390Y-153115714D01*
X331303390Y-153115714D02*
X331351009Y-153210952D01*
X331351009Y-153210952D02*
X331351009Y-153544285D01*
X331970057Y-152782381D02*
X331970057Y-152020476D01*
X331874819Y-151639523D02*
X331827200Y-151734761D01*
X331827200Y-151734761D02*
X331779580Y-151782380D01*
X331779580Y-151782380D02*
X331684342Y-151829999D01*
X331684342Y-151829999D02*
X331398628Y-151829999D01*
X331398628Y-151829999D02*
X331303390Y-151782380D01*
X331303390Y-151782380D02*
X331255771Y-151734761D01*
X331255771Y-151734761D02*
X331208152Y-151639523D01*
X331208152Y-151639523D02*
X331208152Y-151496666D01*
X331208152Y-151496666D02*
X331255771Y-151401428D01*
X331255771Y-151401428D02*
X331303390Y-151353809D01*
X331303390Y-151353809D02*
X331398628Y-151306190D01*
X331398628Y-151306190D02*
X331684342Y-151306190D01*
X331684342Y-151306190D02*
X331779580Y-151353809D01*
X331779580Y-151353809D02*
X331827200Y-151401428D01*
X331827200Y-151401428D02*
X331874819Y-151496666D01*
X331874819Y-151496666D02*
X331874819Y-151639523D01*
X331208152Y-150449047D02*
X331874819Y-150449047D01*
X331208152Y-150877618D02*
X331731961Y-150877618D01*
X331731961Y-150877618D02*
X331827200Y-150829999D01*
X331827200Y-150829999D02*
X331874819Y-150734761D01*
X331874819Y-150734761D02*
X331874819Y-150591904D01*
X331874819Y-150591904D02*
X331827200Y-150496666D01*
X331827200Y-150496666D02*
X331779580Y-150449047D01*
X331208152Y-150115713D02*
X331208152Y-149734761D01*
X330874819Y-149972856D02*
X331731961Y-149972856D01*
X331731961Y-149972856D02*
X331827200Y-149925237D01*
X331827200Y-149925237D02*
X331874819Y-149829999D01*
X331874819Y-149829999D02*
X331874819Y-149734761D01*
X331208152Y-149401427D02*
X332208152Y-149401427D01*
X331255771Y-149401427D02*
X331208152Y-149306189D01*
X331208152Y-149306189D02*
X331208152Y-149115713D01*
X331208152Y-149115713D02*
X331255771Y-149020475D01*
X331255771Y-149020475D02*
X331303390Y-148972856D01*
X331303390Y-148972856D02*
X331398628Y-148925237D01*
X331398628Y-148925237D02*
X331684342Y-148925237D01*
X331684342Y-148925237D02*
X331779580Y-148972856D01*
X331779580Y-148972856D02*
X331827200Y-149020475D01*
X331827200Y-149020475D02*
X331874819Y-149115713D01*
X331874819Y-149115713D02*
X331874819Y-149306189D01*
X331874819Y-149306189D02*
X331827200Y-149401427D01*
X331208152Y-148068094D02*
X331874819Y-148068094D01*
X331208152Y-148496665D02*
X331731961Y-148496665D01*
X331731961Y-148496665D02*
X331827200Y-148449046D01*
X331827200Y-148449046D02*
X331874819Y-148353808D01*
X331874819Y-148353808D02*
X331874819Y-148210951D01*
X331874819Y-148210951D02*
X331827200Y-148115713D01*
X331827200Y-148115713D02*
X331779580Y-148068094D01*
X331208152Y-147734760D02*
X331208152Y-147353808D01*
X330874819Y-147591903D02*
X331731961Y-147591903D01*
X331731961Y-147591903D02*
X331827200Y-147544284D01*
X331827200Y-147544284D02*
X331874819Y-147449046D01*
X331874819Y-147449046D02*
X331874819Y-147353808D01*
X331874819Y-146496665D02*
X331874819Y-147068093D01*
X331874819Y-146782379D02*
X330874819Y-146782379D01*
X330874819Y-146782379D02*
X331017676Y-146877617D01*
X331017676Y-146877617D02*
X331112914Y-146972855D01*
X331112914Y-146972855D02*
X331160533Y-147068093D01*
X331151009Y-104525239D02*
X331151009Y-104858572D01*
X331674819Y-104858572D02*
X330674819Y-104858572D01*
X330674819Y-104858572D02*
X330674819Y-104382382D01*
X331674819Y-104001429D02*
X331008152Y-104001429D01*
X331198628Y-104001429D02*
X331103390Y-103953810D01*
X331103390Y-103953810D02*
X331055771Y-103906191D01*
X331055771Y-103906191D02*
X331008152Y-103810953D01*
X331008152Y-103810953D02*
X331008152Y-103715715D01*
X331674819Y-103239524D02*
X331627200Y-103334762D01*
X331627200Y-103334762D02*
X331579580Y-103382381D01*
X331579580Y-103382381D02*
X331484342Y-103430000D01*
X331484342Y-103430000D02*
X331198628Y-103430000D01*
X331198628Y-103430000D02*
X331103390Y-103382381D01*
X331103390Y-103382381D02*
X331055771Y-103334762D01*
X331055771Y-103334762D02*
X331008152Y-103239524D01*
X331008152Y-103239524D02*
X331008152Y-103096667D01*
X331008152Y-103096667D02*
X331055771Y-103001429D01*
X331055771Y-103001429D02*
X331103390Y-102953810D01*
X331103390Y-102953810D02*
X331198628Y-102906191D01*
X331198628Y-102906191D02*
X331484342Y-102906191D01*
X331484342Y-102906191D02*
X331579580Y-102953810D01*
X331579580Y-102953810D02*
X331627200Y-103001429D01*
X331627200Y-103001429D02*
X331674819Y-103096667D01*
X331674819Y-103096667D02*
X331674819Y-103239524D01*
X331008152Y-102477619D02*
X331674819Y-102477619D01*
X331103390Y-102477619D02*
X331055771Y-102430000D01*
X331055771Y-102430000D02*
X331008152Y-102334762D01*
X331008152Y-102334762D02*
X331008152Y-102191905D01*
X331008152Y-102191905D02*
X331055771Y-102096667D01*
X331055771Y-102096667D02*
X331151009Y-102049048D01*
X331151009Y-102049048D02*
X331674819Y-102049048D01*
X331008152Y-101715714D02*
X331008152Y-101334762D01*
X330674819Y-101572857D02*
X331531961Y-101572857D01*
X331531961Y-101572857D02*
X331627200Y-101525238D01*
X331627200Y-101525238D02*
X331674819Y-101430000D01*
X331674819Y-101430000D02*
X331674819Y-101334762D01*
X331151009Y-100668095D02*
X331198628Y-100525238D01*
X331198628Y-100525238D02*
X331246247Y-100477619D01*
X331246247Y-100477619D02*
X331341485Y-100430000D01*
X331341485Y-100430000D02*
X331484342Y-100430000D01*
X331484342Y-100430000D02*
X331579580Y-100477619D01*
X331579580Y-100477619D02*
X331627200Y-100525238D01*
X331627200Y-100525238D02*
X331674819Y-100620476D01*
X331674819Y-100620476D02*
X331674819Y-101001428D01*
X331674819Y-101001428D02*
X330674819Y-101001428D01*
X330674819Y-101001428D02*
X330674819Y-100668095D01*
X330674819Y-100668095D02*
X330722438Y-100572857D01*
X330722438Y-100572857D02*
X330770057Y-100525238D01*
X330770057Y-100525238D02*
X330865295Y-100477619D01*
X330865295Y-100477619D02*
X330960533Y-100477619D01*
X330960533Y-100477619D02*
X331055771Y-100525238D01*
X331055771Y-100525238D02*
X331103390Y-100572857D01*
X331103390Y-100572857D02*
X331151009Y-100668095D01*
X331151009Y-100668095D02*
X331151009Y-101001428D01*
X331770057Y-100239524D02*
X331770057Y-99477619D01*
X331674819Y-99096666D02*
X331627200Y-99191904D01*
X331627200Y-99191904D02*
X331579580Y-99239523D01*
X331579580Y-99239523D02*
X331484342Y-99287142D01*
X331484342Y-99287142D02*
X331198628Y-99287142D01*
X331198628Y-99287142D02*
X331103390Y-99239523D01*
X331103390Y-99239523D02*
X331055771Y-99191904D01*
X331055771Y-99191904D02*
X331008152Y-99096666D01*
X331008152Y-99096666D02*
X331008152Y-98953809D01*
X331008152Y-98953809D02*
X331055771Y-98858571D01*
X331055771Y-98858571D02*
X331103390Y-98810952D01*
X331103390Y-98810952D02*
X331198628Y-98763333D01*
X331198628Y-98763333D02*
X331484342Y-98763333D01*
X331484342Y-98763333D02*
X331579580Y-98810952D01*
X331579580Y-98810952D02*
X331627200Y-98858571D01*
X331627200Y-98858571D02*
X331674819Y-98953809D01*
X331674819Y-98953809D02*
X331674819Y-99096666D01*
X331008152Y-97906190D02*
X331674819Y-97906190D01*
X331008152Y-98334761D02*
X331531961Y-98334761D01*
X331531961Y-98334761D02*
X331627200Y-98287142D01*
X331627200Y-98287142D02*
X331674819Y-98191904D01*
X331674819Y-98191904D02*
X331674819Y-98049047D01*
X331674819Y-98049047D02*
X331627200Y-97953809D01*
X331627200Y-97953809D02*
X331579580Y-97906190D01*
X331008152Y-97572856D02*
X331008152Y-97191904D01*
X330674819Y-97429999D02*
X331531961Y-97429999D01*
X331531961Y-97429999D02*
X331627200Y-97382380D01*
X331627200Y-97382380D02*
X331674819Y-97287142D01*
X331674819Y-97287142D02*
X331674819Y-97191904D01*
X331008152Y-96858570D02*
X332008152Y-96858570D01*
X331055771Y-96858570D02*
X331008152Y-96763332D01*
X331008152Y-96763332D02*
X331008152Y-96572856D01*
X331008152Y-96572856D02*
X331055771Y-96477618D01*
X331055771Y-96477618D02*
X331103390Y-96429999D01*
X331103390Y-96429999D02*
X331198628Y-96382380D01*
X331198628Y-96382380D02*
X331484342Y-96382380D01*
X331484342Y-96382380D02*
X331579580Y-96429999D01*
X331579580Y-96429999D02*
X331627200Y-96477618D01*
X331627200Y-96477618D02*
X331674819Y-96572856D01*
X331674819Y-96572856D02*
X331674819Y-96763332D01*
X331674819Y-96763332D02*
X331627200Y-96858570D01*
X331008152Y-95525237D02*
X331674819Y-95525237D01*
X331008152Y-95953808D02*
X331531961Y-95953808D01*
X331531961Y-95953808D02*
X331627200Y-95906189D01*
X331627200Y-95906189D02*
X331674819Y-95810951D01*
X331674819Y-95810951D02*
X331674819Y-95668094D01*
X331674819Y-95668094D02*
X331627200Y-95572856D01*
X331627200Y-95572856D02*
X331579580Y-95525237D01*
X331008152Y-95191903D02*
X331008152Y-94810951D01*
X330674819Y-95049046D02*
X331531961Y-95049046D01*
X331531961Y-95049046D02*
X331627200Y-95001427D01*
X331627200Y-95001427D02*
X331674819Y-94906189D01*
X331674819Y-94906189D02*
X331674819Y-94810951D01*
X331674819Y-93953808D02*
X331674819Y-94525236D01*
X331674819Y-94239522D02*
X330674819Y-94239522D01*
X330674819Y-94239522D02*
X330817676Y-94334760D01*
X330817676Y-94334760D02*
X330912914Y-94429998D01*
X330912914Y-94429998D02*
X330960533Y-94525236D01*
X330551009Y-85913810D02*
X330551009Y-86247143D01*
X331074819Y-86247143D02*
X330074819Y-86247143D01*
X330074819Y-86247143D02*
X330074819Y-85770953D01*
X331074819Y-85390000D02*
X330408152Y-85390000D01*
X330598628Y-85390000D02*
X330503390Y-85342381D01*
X330503390Y-85342381D02*
X330455771Y-85294762D01*
X330455771Y-85294762D02*
X330408152Y-85199524D01*
X330408152Y-85199524D02*
X330408152Y-85104286D01*
X331074819Y-84628095D02*
X331027200Y-84723333D01*
X331027200Y-84723333D02*
X330979580Y-84770952D01*
X330979580Y-84770952D02*
X330884342Y-84818571D01*
X330884342Y-84818571D02*
X330598628Y-84818571D01*
X330598628Y-84818571D02*
X330503390Y-84770952D01*
X330503390Y-84770952D02*
X330455771Y-84723333D01*
X330455771Y-84723333D02*
X330408152Y-84628095D01*
X330408152Y-84628095D02*
X330408152Y-84485238D01*
X330408152Y-84485238D02*
X330455771Y-84390000D01*
X330455771Y-84390000D02*
X330503390Y-84342381D01*
X330503390Y-84342381D02*
X330598628Y-84294762D01*
X330598628Y-84294762D02*
X330884342Y-84294762D01*
X330884342Y-84294762D02*
X330979580Y-84342381D01*
X330979580Y-84342381D02*
X331027200Y-84390000D01*
X331027200Y-84390000D02*
X331074819Y-84485238D01*
X331074819Y-84485238D02*
X331074819Y-84628095D01*
X330408152Y-83866190D02*
X331074819Y-83866190D01*
X330503390Y-83866190D02*
X330455771Y-83818571D01*
X330455771Y-83818571D02*
X330408152Y-83723333D01*
X330408152Y-83723333D02*
X330408152Y-83580476D01*
X330408152Y-83580476D02*
X330455771Y-83485238D01*
X330455771Y-83485238D02*
X330551009Y-83437619D01*
X330551009Y-83437619D02*
X331074819Y-83437619D01*
X330408152Y-83104285D02*
X330408152Y-82723333D01*
X330074819Y-82961428D02*
X330931961Y-82961428D01*
X330931961Y-82961428D02*
X331027200Y-82913809D01*
X331027200Y-82913809D02*
X331074819Y-82818571D01*
X331074819Y-82818571D02*
X331074819Y-82723333D01*
X330789104Y-82437618D02*
X330789104Y-81961428D01*
X331074819Y-82532856D02*
X330074819Y-82199523D01*
X330074819Y-82199523D02*
X331074819Y-81866190D01*
X331170057Y-81770952D02*
X331170057Y-81009047D01*
X331074819Y-80628094D02*
X331027200Y-80723332D01*
X331027200Y-80723332D02*
X330979580Y-80770951D01*
X330979580Y-80770951D02*
X330884342Y-80818570D01*
X330884342Y-80818570D02*
X330598628Y-80818570D01*
X330598628Y-80818570D02*
X330503390Y-80770951D01*
X330503390Y-80770951D02*
X330455771Y-80723332D01*
X330455771Y-80723332D02*
X330408152Y-80628094D01*
X330408152Y-80628094D02*
X330408152Y-80485237D01*
X330408152Y-80485237D02*
X330455771Y-80389999D01*
X330455771Y-80389999D02*
X330503390Y-80342380D01*
X330503390Y-80342380D02*
X330598628Y-80294761D01*
X330598628Y-80294761D02*
X330884342Y-80294761D01*
X330884342Y-80294761D02*
X330979580Y-80342380D01*
X330979580Y-80342380D02*
X331027200Y-80389999D01*
X331027200Y-80389999D02*
X331074819Y-80485237D01*
X331074819Y-80485237D02*
X331074819Y-80628094D01*
X330408152Y-79437618D02*
X331074819Y-79437618D01*
X330408152Y-79866189D02*
X330931961Y-79866189D01*
X330931961Y-79866189D02*
X331027200Y-79818570D01*
X331027200Y-79818570D02*
X331074819Y-79723332D01*
X331074819Y-79723332D02*
X331074819Y-79580475D01*
X331074819Y-79580475D02*
X331027200Y-79485237D01*
X331027200Y-79485237D02*
X330979580Y-79437618D01*
X330408152Y-79104284D02*
X330408152Y-78723332D01*
X330074819Y-78961427D02*
X330931961Y-78961427D01*
X330931961Y-78961427D02*
X331027200Y-78913808D01*
X331027200Y-78913808D02*
X331074819Y-78818570D01*
X331074819Y-78818570D02*
X331074819Y-78723332D01*
X330408152Y-78389998D02*
X331408152Y-78389998D01*
X330455771Y-78389998D02*
X330408152Y-78294760D01*
X330408152Y-78294760D02*
X330408152Y-78104284D01*
X330408152Y-78104284D02*
X330455771Y-78009046D01*
X330455771Y-78009046D02*
X330503390Y-77961427D01*
X330503390Y-77961427D02*
X330598628Y-77913808D01*
X330598628Y-77913808D02*
X330884342Y-77913808D01*
X330884342Y-77913808D02*
X330979580Y-77961427D01*
X330979580Y-77961427D02*
X331027200Y-78009046D01*
X331027200Y-78009046D02*
X331074819Y-78104284D01*
X331074819Y-78104284D02*
X331074819Y-78294760D01*
X331074819Y-78294760D02*
X331027200Y-78389998D01*
X330408152Y-77056665D02*
X331074819Y-77056665D01*
X330408152Y-77485236D02*
X330931961Y-77485236D01*
X330931961Y-77485236D02*
X331027200Y-77437617D01*
X331027200Y-77437617D02*
X331074819Y-77342379D01*
X331074819Y-77342379D02*
X331074819Y-77199522D01*
X331074819Y-77199522D02*
X331027200Y-77104284D01*
X331027200Y-77104284D02*
X330979580Y-77056665D01*
X330408152Y-76723331D02*
X330408152Y-76342379D01*
X330074819Y-76580474D02*
X330931961Y-76580474D01*
X330931961Y-76580474D02*
X331027200Y-76532855D01*
X331027200Y-76532855D02*
X331074819Y-76437617D01*
X331074819Y-76437617D02*
X331074819Y-76342379D01*
X331074819Y-75485236D02*
X331074819Y-76056664D01*
X331074819Y-75770950D02*
X330074819Y-75770950D01*
X330074819Y-75770950D02*
X330217676Y-75866188D01*
X330217676Y-75866188D02*
X330312914Y-75961426D01*
X330312914Y-75961426D02*
X330360533Y-76056664D01*
X309207319Y-119263690D02*
X308207319Y-119263690D01*
X308588271Y-119263690D02*
X308540652Y-119168452D01*
X308540652Y-119168452D02*
X308540652Y-118977976D01*
X308540652Y-118977976D02*
X308588271Y-118882738D01*
X308588271Y-118882738D02*
X308635890Y-118835119D01*
X308635890Y-118835119D02*
X308731128Y-118787500D01*
X308731128Y-118787500D02*
X309016842Y-118787500D01*
X309016842Y-118787500D02*
X309112080Y-118835119D01*
X309112080Y-118835119D02*
X309159700Y-118882738D01*
X309159700Y-118882738D02*
X309207319Y-118977976D01*
X309207319Y-118977976D02*
X309207319Y-119168452D01*
X309207319Y-119168452D02*
X309159700Y-119263690D01*
X309207319Y-117930357D02*
X308683509Y-117930357D01*
X308683509Y-117930357D02*
X308588271Y-117977976D01*
X308588271Y-117977976D02*
X308540652Y-118073214D01*
X308540652Y-118073214D02*
X308540652Y-118263690D01*
X308540652Y-118263690D02*
X308588271Y-118358928D01*
X309159700Y-117930357D02*
X309207319Y-118025595D01*
X309207319Y-118025595D02*
X309207319Y-118263690D01*
X309207319Y-118263690D02*
X309159700Y-118358928D01*
X309159700Y-118358928D02*
X309064461Y-118406547D01*
X309064461Y-118406547D02*
X308969223Y-118406547D01*
X308969223Y-118406547D02*
X308873985Y-118358928D01*
X308873985Y-118358928D02*
X308826366Y-118263690D01*
X308826366Y-118263690D02*
X308826366Y-118025595D01*
X308826366Y-118025595D02*
X308778747Y-117930357D01*
X308540652Y-117597023D02*
X308540652Y-117216071D01*
X308207319Y-117454166D02*
X309064461Y-117454166D01*
X309064461Y-117454166D02*
X309159700Y-117406547D01*
X309159700Y-117406547D02*
X309207319Y-117311309D01*
X309207319Y-117311309D02*
X309207319Y-117216071D01*
X309302557Y-117120833D02*
X309302557Y-116358928D01*
X308207319Y-116216070D02*
X308207319Y-115549404D01*
X308207319Y-115549404D02*
X309207319Y-115977975D01*
X308207319Y-115311308D02*
X309207319Y-114977975D01*
X309207319Y-114977975D02*
X308207319Y-114644642D01*
X309302557Y-114549404D02*
X309302557Y-113787499D01*
X309207319Y-113120832D02*
X308683509Y-113120832D01*
X308683509Y-113120832D02*
X308588271Y-113168451D01*
X308588271Y-113168451D02*
X308540652Y-113263689D01*
X308540652Y-113263689D02*
X308540652Y-113454165D01*
X308540652Y-113454165D02*
X308588271Y-113549403D01*
X309159700Y-113120832D02*
X309207319Y-113216070D01*
X309207319Y-113216070D02*
X309207319Y-113454165D01*
X309207319Y-113454165D02*
X309159700Y-113549403D01*
X309159700Y-113549403D02*
X309064461Y-113597022D01*
X309064461Y-113597022D02*
X308969223Y-113597022D01*
X308969223Y-113597022D02*
X308873985Y-113549403D01*
X308873985Y-113549403D02*
X308826366Y-113454165D01*
X308826366Y-113454165D02*
X308826366Y-113216070D01*
X308826366Y-113216070D02*
X308778747Y-113120832D01*
X309159700Y-112216070D02*
X309207319Y-112311308D01*
X309207319Y-112311308D02*
X309207319Y-112501784D01*
X309207319Y-112501784D02*
X309159700Y-112597022D01*
X309159700Y-112597022D02*
X309112080Y-112644641D01*
X309112080Y-112644641D02*
X309016842Y-112692260D01*
X309016842Y-112692260D02*
X308731128Y-112692260D01*
X308731128Y-112692260D02*
X308635890Y-112644641D01*
X308635890Y-112644641D02*
X308588271Y-112597022D01*
X308588271Y-112597022D02*
X308540652Y-112501784D01*
X308540652Y-112501784D02*
X308540652Y-112311308D01*
X308540652Y-112311308D02*
X308588271Y-112216070D01*
X309207319Y-111263689D02*
X309207319Y-111835117D01*
X309207319Y-111549403D02*
X308207319Y-111549403D01*
X308207319Y-111549403D02*
X308350176Y-111644641D01*
X308350176Y-111644641D02*
X308445414Y-111739879D01*
X308445414Y-111739879D02*
X308493033Y-111835117D01*
X300083333Y-148129580D02*
X300035714Y-148177200D01*
X300035714Y-148177200D02*
X299892857Y-148224819D01*
X299892857Y-148224819D02*
X299797619Y-148224819D01*
X299797619Y-148224819D02*
X299654762Y-148177200D01*
X299654762Y-148177200D02*
X299559524Y-148081961D01*
X299559524Y-148081961D02*
X299511905Y-147986723D01*
X299511905Y-147986723D02*
X299464286Y-147796247D01*
X299464286Y-147796247D02*
X299464286Y-147653390D01*
X299464286Y-147653390D02*
X299511905Y-147462914D01*
X299511905Y-147462914D02*
X299559524Y-147367676D01*
X299559524Y-147367676D02*
X299654762Y-147272438D01*
X299654762Y-147272438D02*
X299797619Y-147224819D01*
X299797619Y-147224819D02*
X299892857Y-147224819D01*
X299892857Y-147224819D02*
X300035714Y-147272438D01*
X300035714Y-147272438D02*
X300083333Y-147320057D01*
X300559524Y-148224819D02*
X300750000Y-148224819D01*
X300750000Y-148224819D02*
X300845238Y-148177200D01*
X300845238Y-148177200D02*
X300892857Y-148129580D01*
X300892857Y-148129580D02*
X300988095Y-147986723D01*
X300988095Y-147986723D02*
X301035714Y-147796247D01*
X301035714Y-147796247D02*
X301035714Y-147415295D01*
X301035714Y-147415295D02*
X300988095Y-147320057D01*
X300988095Y-147320057D02*
X300940476Y-147272438D01*
X300940476Y-147272438D02*
X300845238Y-147224819D01*
X300845238Y-147224819D02*
X300654762Y-147224819D01*
X300654762Y-147224819D02*
X300559524Y-147272438D01*
X300559524Y-147272438D02*
X300511905Y-147320057D01*
X300511905Y-147320057D02*
X300464286Y-147415295D01*
X300464286Y-147415295D02*
X300464286Y-147653390D01*
X300464286Y-147653390D02*
X300511905Y-147748628D01*
X300511905Y-147748628D02*
X300559524Y-147796247D01*
X300559524Y-147796247D02*
X300654762Y-147843866D01*
X300654762Y-147843866D02*
X300845238Y-147843866D01*
X300845238Y-147843866D02*
X300940476Y-147796247D01*
X300940476Y-147796247D02*
X300988095Y-147748628D01*
X300988095Y-147748628D02*
X301035714Y-147653390D01*
X319224700Y-122484881D02*
X319272319Y-122389643D01*
X319272319Y-122389643D02*
X319272319Y-122199167D01*
X319272319Y-122199167D02*
X319224700Y-122103929D01*
X319224700Y-122103929D02*
X319129461Y-122056310D01*
X319129461Y-122056310D02*
X319081842Y-122056310D01*
X319081842Y-122056310D02*
X318986604Y-122103929D01*
X318986604Y-122103929D02*
X318938985Y-122199167D01*
X318938985Y-122199167D02*
X318938985Y-122342024D01*
X318938985Y-122342024D02*
X318891366Y-122437262D01*
X318891366Y-122437262D02*
X318796128Y-122484881D01*
X318796128Y-122484881D02*
X318748509Y-122484881D01*
X318748509Y-122484881D02*
X318653271Y-122437262D01*
X318653271Y-122437262D02*
X318605652Y-122342024D01*
X318605652Y-122342024D02*
X318605652Y-122199167D01*
X318605652Y-122199167D02*
X318653271Y-122103929D01*
X319272319Y-121199167D02*
X318748509Y-121199167D01*
X318748509Y-121199167D02*
X318653271Y-121246786D01*
X318653271Y-121246786D02*
X318605652Y-121342024D01*
X318605652Y-121342024D02*
X318605652Y-121532500D01*
X318605652Y-121532500D02*
X318653271Y-121627738D01*
X319224700Y-121199167D02*
X319272319Y-121294405D01*
X319272319Y-121294405D02*
X319272319Y-121532500D01*
X319272319Y-121532500D02*
X319224700Y-121627738D01*
X319224700Y-121627738D02*
X319129461Y-121675357D01*
X319129461Y-121675357D02*
X319034223Y-121675357D01*
X319034223Y-121675357D02*
X318938985Y-121627738D01*
X318938985Y-121627738D02*
X318891366Y-121532500D01*
X318891366Y-121532500D02*
X318891366Y-121294405D01*
X318891366Y-121294405D02*
X318843747Y-121199167D01*
X319272319Y-120722976D02*
X318272319Y-120722976D01*
X318653271Y-120722976D02*
X318605652Y-120627738D01*
X318605652Y-120627738D02*
X318605652Y-120437262D01*
X318605652Y-120437262D02*
X318653271Y-120342024D01*
X318653271Y-120342024D02*
X318700890Y-120294405D01*
X318700890Y-120294405D02*
X318796128Y-120246786D01*
X318796128Y-120246786D02*
X319081842Y-120246786D01*
X319081842Y-120246786D02*
X319177080Y-120294405D01*
X319177080Y-120294405D02*
X319224700Y-120342024D01*
X319224700Y-120342024D02*
X319272319Y-120437262D01*
X319272319Y-120437262D02*
X319272319Y-120627738D01*
X319272319Y-120627738D02*
X319224700Y-120722976D01*
X319272319Y-119818214D02*
X318605652Y-119818214D01*
X318272319Y-119818214D02*
X318319938Y-119865833D01*
X318319938Y-119865833D02*
X318367557Y-119818214D01*
X318367557Y-119818214D02*
X318319938Y-119770595D01*
X318319938Y-119770595D02*
X318272319Y-119818214D01*
X318272319Y-119818214D02*
X318367557Y-119818214D01*
X319272319Y-119199167D02*
X319224700Y-119294405D01*
X319224700Y-119294405D02*
X319129461Y-119342024D01*
X319129461Y-119342024D02*
X318272319Y-119342024D01*
X319272319Y-118818214D02*
X318605652Y-118818214D01*
X318272319Y-118818214D02*
X318319938Y-118865833D01*
X318319938Y-118865833D02*
X318367557Y-118818214D01*
X318367557Y-118818214D02*
X318319938Y-118770595D01*
X318319938Y-118770595D02*
X318272319Y-118818214D01*
X318272319Y-118818214D02*
X318367557Y-118818214D01*
X318605652Y-118437262D02*
X318605652Y-117913453D01*
X318605652Y-117913453D02*
X319272319Y-118437262D01*
X319272319Y-118437262D02*
X319272319Y-117913453D01*
X319272319Y-117103929D02*
X318748509Y-117103929D01*
X318748509Y-117103929D02*
X318653271Y-117151548D01*
X318653271Y-117151548D02*
X318605652Y-117246786D01*
X318605652Y-117246786D02*
X318605652Y-117437262D01*
X318605652Y-117437262D02*
X318653271Y-117532500D01*
X319224700Y-117103929D02*
X319272319Y-117199167D01*
X319272319Y-117199167D02*
X319272319Y-117437262D01*
X319272319Y-117437262D02*
X319224700Y-117532500D01*
X319224700Y-117532500D02*
X319129461Y-117580119D01*
X319129461Y-117580119D02*
X319034223Y-117580119D01*
X319034223Y-117580119D02*
X318938985Y-117532500D01*
X318938985Y-117532500D02*
X318891366Y-117437262D01*
X318891366Y-117437262D02*
X318891366Y-117199167D01*
X318891366Y-117199167D02*
X318843747Y-117103929D01*
X318605652Y-116770595D02*
X318605652Y-116389643D01*
X318272319Y-116627738D02*
X319129461Y-116627738D01*
X319129461Y-116627738D02*
X319224700Y-116580119D01*
X319224700Y-116580119D02*
X319272319Y-116484881D01*
X319272319Y-116484881D02*
X319272319Y-116389643D01*
X319272319Y-115913452D02*
X319224700Y-116008690D01*
X319224700Y-116008690D02*
X319177080Y-116056309D01*
X319177080Y-116056309D02*
X319081842Y-116103928D01*
X319081842Y-116103928D02*
X318796128Y-116103928D01*
X318796128Y-116103928D02*
X318700890Y-116056309D01*
X318700890Y-116056309D02*
X318653271Y-116008690D01*
X318653271Y-116008690D02*
X318605652Y-115913452D01*
X318605652Y-115913452D02*
X318605652Y-115770595D01*
X318605652Y-115770595D02*
X318653271Y-115675357D01*
X318653271Y-115675357D02*
X318700890Y-115627738D01*
X318700890Y-115627738D02*
X318796128Y-115580119D01*
X318796128Y-115580119D02*
X319081842Y-115580119D01*
X319081842Y-115580119D02*
X319177080Y-115627738D01*
X319177080Y-115627738D02*
X319224700Y-115675357D01*
X319224700Y-115675357D02*
X319272319Y-115770595D01*
X319272319Y-115770595D02*
X319272319Y-115913452D01*
X319272319Y-115151547D02*
X318605652Y-115151547D01*
X318796128Y-115151547D02*
X318700890Y-115103928D01*
X318700890Y-115103928D02*
X318653271Y-115056309D01*
X318653271Y-115056309D02*
X318605652Y-114961071D01*
X318605652Y-114961071D02*
X318605652Y-114865833D01*
X319367557Y-114770595D02*
X319367557Y-114008690D01*
X319272319Y-113342023D02*
X318748509Y-113342023D01*
X318748509Y-113342023D02*
X318653271Y-113389642D01*
X318653271Y-113389642D02*
X318605652Y-113484880D01*
X318605652Y-113484880D02*
X318605652Y-113675356D01*
X318605652Y-113675356D02*
X318653271Y-113770594D01*
X319224700Y-113342023D02*
X319272319Y-113437261D01*
X319272319Y-113437261D02*
X319272319Y-113675356D01*
X319272319Y-113675356D02*
X319224700Y-113770594D01*
X319224700Y-113770594D02*
X319129461Y-113818213D01*
X319129461Y-113818213D02*
X319034223Y-113818213D01*
X319034223Y-113818213D02*
X318938985Y-113770594D01*
X318938985Y-113770594D02*
X318891366Y-113675356D01*
X318891366Y-113675356D02*
X318891366Y-113437261D01*
X318891366Y-113437261D02*
X318843747Y-113342023D01*
X319272319Y-112437261D02*
X318272319Y-112437261D01*
X319224700Y-112437261D02*
X319272319Y-112532499D01*
X319272319Y-112532499D02*
X319272319Y-112722975D01*
X319272319Y-112722975D02*
X319224700Y-112818213D01*
X319224700Y-112818213D02*
X319177080Y-112865832D01*
X319177080Y-112865832D02*
X319081842Y-112913451D01*
X319081842Y-112913451D02*
X318796128Y-112913451D01*
X318796128Y-112913451D02*
X318700890Y-112865832D01*
X318700890Y-112865832D02*
X318653271Y-112818213D01*
X318653271Y-112818213D02*
X318605652Y-112722975D01*
X318605652Y-112722975D02*
X318605652Y-112532499D01*
X318605652Y-112532499D02*
X318653271Y-112437261D01*
X319224700Y-111532499D02*
X319272319Y-111627737D01*
X319272319Y-111627737D02*
X319272319Y-111818213D01*
X319272319Y-111818213D02*
X319224700Y-111913451D01*
X319224700Y-111913451D02*
X319177080Y-111961070D01*
X319177080Y-111961070D02*
X319081842Y-112008689D01*
X319081842Y-112008689D02*
X318796128Y-112008689D01*
X318796128Y-112008689D02*
X318700890Y-111961070D01*
X318700890Y-111961070D02*
X318653271Y-111913451D01*
X318653271Y-111913451D02*
X318605652Y-111818213D01*
X318605652Y-111818213D02*
X318605652Y-111627737D01*
X318605652Y-111627737D02*
X318653271Y-111532499D01*
X319272319Y-110580118D02*
X319272319Y-111151546D01*
X319272319Y-110865832D02*
X318272319Y-110865832D01*
X318272319Y-110865832D02*
X318415176Y-110961070D01*
X318415176Y-110961070D02*
X318510414Y-111056308D01*
X318510414Y-111056308D02*
X318558033Y-111151546D01*
X316983081Y-184767311D02*
X317074652Y-184797835D01*
X317074652Y-184797835D02*
X317105176Y-184828359D01*
X317105176Y-184828359D02*
X317135700Y-184889406D01*
X317135700Y-184889406D02*
X317135700Y-184980977D01*
X317135700Y-184980977D02*
X317105176Y-185042025D01*
X317105176Y-185042025D02*
X317074652Y-185072549D01*
X317074652Y-185072549D02*
X317013605Y-185103072D01*
X317013605Y-185103072D02*
X316769415Y-185103072D01*
X316769415Y-185103072D02*
X316769415Y-184462074D01*
X316769415Y-184462074D02*
X316983081Y-184462074D01*
X316983081Y-184462074D02*
X317044129Y-184492598D01*
X317044129Y-184492598D02*
X317074652Y-184523122D01*
X317074652Y-184523122D02*
X317105176Y-184584169D01*
X317105176Y-184584169D02*
X317105176Y-184645217D01*
X317105176Y-184645217D02*
X317074652Y-184706264D01*
X317074652Y-184706264D02*
X317044129Y-184736788D01*
X317044129Y-184736788D02*
X316983081Y-184767311D01*
X316983081Y-184767311D02*
X316769415Y-184767311D01*
X317685127Y-185103072D02*
X317685127Y-184767311D01*
X317685127Y-184767311D02*
X317654603Y-184706264D01*
X317654603Y-184706264D02*
X317593555Y-184675740D01*
X317593555Y-184675740D02*
X317471461Y-184675740D01*
X317471461Y-184675740D02*
X317410413Y-184706264D01*
X317685127Y-185072549D02*
X317624079Y-185103072D01*
X317624079Y-185103072D02*
X317471461Y-185103072D01*
X317471461Y-185103072D02*
X317410413Y-185072549D01*
X317410413Y-185072549D02*
X317379889Y-185011501D01*
X317379889Y-185011501D02*
X317379889Y-184950454D01*
X317379889Y-184950454D02*
X317410413Y-184889406D01*
X317410413Y-184889406D02*
X317471461Y-184858883D01*
X317471461Y-184858883D02*
X317624079Y-184858883D01*
X317624079Y-184858883D02*
X317685127Y-184828359D01*
X318265078Y-185072549D02*
X318204030Y-185103072D01*
X318204030Y-185103072D02*
X318081935Y-185103072D01*
X318081935Y-185103072D02*
X318020888Y-185072549D01*
X318020888Y-185072549D02*
X317990364Y-185042025D01*
X317990364Y-185042025D02*
X317959840Y-184980977D01*
X317959840Y-184980977D02*
X317959840Y-184797835D01*
X317959840Y-184797835D02*
X317990364Y-184736788D01*
X317990364Y-184736788D02*
X318020888Y-184706264D01*
X318020888Y-184706264D02*
X318081935Y-184675740D01*
X318081935Y-184675740D02*
X318204030Y-184675740D01*
X318204030Y-184675740D02*
X318265078Y-184706264D01*
X318539791Y-185103072D02*
X318539791Y-184462074D01*
X318600839Y-184858883D02*
X318783981Y-185103072D01*
X318783981Y-184675740D02*
X318539791Y-184919930D01*
X319394455Y-185103072D02*
X319028170Y-185103072D01*
X319211313Y-185103072D02*
X319211313Y-184462074D01*
X319211313Y-184462074D02*
X319150265Y-184553645D01*
X319150265Y-184553645D02*
X319089218Y-184614693D01*
X319089218Y-184614693D02*
X319028170Y-184645217D01*
X299853333Y-105389580D02*
X299805714Y-105437200D01*
X299805714Y-105437200D02*
X299662857Y-105484819D01*
X299662857Y-105484819D02*
X299567619Y-105484819D01*
X299567619Y-105484819D02*
X299424762Y-105437200D01*
X299424762Y-105437200D02*
X299329524Y-105341961D01*
X299329524Y-105341961D02*
X299281905Y-105246723D01*
X299281905Y-105246723D02*
X299234286Y-105056247D01*
X299234286Y-105056247D02*
X299234286Y-104913390D01*
X299234286Y-104913390D02*
X299281905Y-104722914D01*
X299281905Y-104722914D02*
X299329524Y-104627676D01*
X299329524Y-104627676D02*
X299424762Y-104532438D01*
X299424762Y-104532438D02*
X299567619Y-104484819D01*
X299567619Y-104484819D02*
X299662857Y-104484819D01*
X299662857Y-104484819D02*
X299805714Y-104532438D01*
X299805714Y-104532438D02*
X299853333Y-104580057D01*
X300710476Y-104818152D02*
X300710476Y-105484819D01*
X300472381Y-104437200D02*
X300234286Y-105151485D01*
X300234286Y-105151485D02*
X300853333Y-105151485D01*
X300063333Y-154484819D02*
X299730000Y-154008628D01*
X299491905Y-154484819D02*
X299491905Y-153484819D01*
X299491905Y-153484819D02*
X299872857Y-153484819D01*
X299872857Y-153484819D02*
X299968095Y-153532438D01*
X299968095Y-153532438D02*
X300015714Y-153580057D01*
X300015714Y-153580057D02*
X300063333Y-153675295D01*
X300063333Y-153675295D02*
X300063333Y-153818152D01*
X300063333Y-153818152D02*
X300015714Y-153913390D01*
X300015714Y-153913390D02*
X299968095Y-153961009D01*
X299968095Y-153961009D02*
X299872857Y-154008628D01*
X299872857Y-154008628D02*
X299491905Y-154008628D01*
X300396667Y-153484819D02*
X301015714Y-153484819D01*
X301015714Y-153484819D02*
X300682381Y-153865771D01*
X300682381Y-153865771D02*
X300825238Y-153865771D01*
X300825238Y-153865771D02*
X300920476Y-153913390D01*
X300920476Y-153913390D02*
X300968095Y-153961009D01*
X300968095Y-153961009D02*
X301015714Y-154056247D01*
X301015714Y-154056247D02*
X301015714Y-154294342D01*
X301015714Y-154294342D02*
X300968095Y-154389580D01*
X300968095Y-154389580D02*
X300920476Y-154437200D01*
X300920476Y-154437200D02*
X300825238Y-154484819D01*
X300825238Y-154484819D02*
X300539524Y-154484819D01*
X300539524Y-154484819D02*
X300444286Y-154437200D01*
X300444286Y-154437200D02*
X300396667Y-154389580D01*
X302653333Y-144989580D02*
X302605714Y-145037200D01*
X302605714Y-145037200D02*
X302462857Y-145084819D01*
X302462857Y-145084819D02*
X302367619Y-145084819D01*
X302367619Y-145084819D02*
X302224762Y-145037200D01*
X302224762Y-145037200D02*
X302129524Y-144941961D01*
X302129524Y-144941961D02*
X302081905Y-144846723D01*
X302081905Y-144846723D02*
X302034286Y-144656247D01*
X302034286Y-144656247D02*
X302034286Y-144513390D01*
X302034286Y-144513390D02*
X302081905Y-144322914D01*
X302081905Y-144322914D02*
X302129524Y-144227676D01*
X302129524Y-144227676D02*
X302224762Y-144132438D01*
X302224762Y-144132438D02*
X302367619Y-144084819D01*
X302367619Y-144084819D02*
X302462857Y-144084819D01*
X302462857Y-144084819D02*
X302605714Y-144132438D01*
X302605714Y-144132438D02*
X302653333Y-144180057D01*
X302986667Y-144084819D02*
X303653333Y-144084819D01*
X303653333Y-144084819D02*
X303224762Y-145084819D01*
X321118095Y-92284819D02*
X321118095Y-93094342D01*
X321118095Y-93094342D02*
X321165714Y-93189580D01*
X321165714Y-93189580D02*
X321213333Y-93237200D01*
X321213333Y-93237200D02*
X321308571Y-93284819D01*
X321308571Y-93284819D02*
X321499047Y-93284819D01*
X321499047Y-93284819D02*
X321594285Y-93237200D01*
X321594285Y-93237200D02*
X321641904Y-93189580D01*
X321641904Y-93189580D02*
X321689523Y-93094342D01*
X321689523Y-93094342D02*
X321689523Y-92284819D01*
X322594285Y-92618152D02*
X322594285Y-93284819D01*
X322356190Y-92237200D02*
X322118095Y-92951485D01*
X322118095Y-92951485D02*
X322737142Y-92951485D01*
X305447142Y-88919580D02*
X305399523Y-88967200D01*
X305399523Y-88967200D02*
X305256666Y-89014819D01*
X305256666Y-89014819D02*
X305161428Y-89014819D01*
X305161428Y-89014819D02*
X305018571Y-88967200D01*
X305018571Y-88967200D02*
X304923333Y-88871961D01*
X304923333Y-88871961D02*
X304875714Y-88776723D01*
X304875714Y-88776723D02*
X304828095Y-88586247D01*
X304828095Y-88586247D02*
X304828095Y-88443390D01*
X304828095Y-88443390D02*
X304875714Y-88252914D01*
X304875714Y-88252914D02*
X304923333Y-88157676D01*
X304923333Y-88157676D02*
X305018571Y-88062438D01*
X305018571Y-88062438D02*
X305161428Y-88014819D01*
X305161428Y-88014819D02*
X305256666Y-88014819D01*
X305256666Y-88014819D02*
X305399523Y-88062438D01*
X305399523Y-88062438D02*
X305447142Y-88110057D01*
X305828095Y-88110057D02*
X305875714Y-88062438D01*
X305875714Y-88062438D02*
X305970952Y-88014819D01*
X305970952Y-88014819D02*
X306209047Y-88014819D01*
X306209047Y-88014819D02*
X306304285Y-88062438D01*
X306304285Y-88062438D02*
X306351904Y-88110057D01*
X306351904Y-88110057D02*
X306399523Y-88205295D01*
X306399523Y-88205295D02*
X306399523Y-88300533D01*
X306399523Y-88300533D02*
X306351904Y-88443390D01*
X306351904Y-88443390D02*
X305780476Y-89014819D01*
X305780476Y-89014819D02*
X306399523Y-89014819D01*
X307256666Y-88348152D02*
X307256666Y-89014819D01*
X307018571Y-87967200D02*
X306780476Y-88681485D01*
X306780476Y-88681485D02*
X307399523Y-88681485D01*
X303806666Y-35811009D02*
X303473333Y-35811009D01*
X303473333Y-36334819D02*
X303473333Y-35334819D01*
X303473333Y-35334819D02*
X303949523Y-35334819D01*
X304282857Y-35430057D02*
X304330476Y-35382438D01*
X304330476Y-35382438D02*
X304425714Y-35334819D01*
X304425714Y-35334819D02*
X304663809Y-35334819D01*
X304663809Y-35334819D02*
X304759047Y-35382438D01*
X304759047Y-35382438D02*
X304806666Y-35430057D01*
X304806666Y-35430057D02*
X304854285Y-35525295D01*
X304854285Y-35525295D02*
X304854285Y-35620533D01*
X304854285Y-35620533D02*
X304806666Y-35763390D01*
X304806666Y-35763390D02*
X304235238Y-36334819D01*
X304235238Y-36334819D02*
X304854285Y-36334819D01*
X281344405Y-45284819D02*
X281344405Y-44284819D01*
X281344405Y-44284819D02*
X281582500Y-44284819D01*
X281582500Y-44284819D02*
X281725357Y-44332438D01*
X281725357Y-44332438D02*
X281820595Y-44427676D01*
X281820595Y-44427676D02*
X281868214Y-44522914D01*
X281868214Y-44522914D02*
X281915833Y-44713390D01*
X281915833Y-44713390D02*
X281915833Y-44856247D01*
X281915833Y-44856247D02*
X281868214Y-45046723D01*
X281868214Y-45046723D02*
X281820595Y-45141961D01*
X281820595Y-45141961D02*
X281725357Y-45237200D01*
X281725357Y-45237200D02*
X281582500Y-45284819D01*
X281582500Y-45284819D02*
X281344405Y-45284819D01*
X282296786Y-44380057D02*
X282344405Y-44332438D01*
X282344405Y-44332438D02*
X282439643Y-44284819D01*
X282439643Y-44284819D02*
X282677738Y-44284819D01*
X282677738Y-44284819D02*
X282772976Y-44332438D01*
X282772976Y-44332438D02*
X282820595Y-44380057D01*
X282820595Y-44380057D02*
X282868214Y-44475295D01*
X282868214Y-44475295D02*
X282868214Y-44570533D01*
X282868214Y-44570533D02*
X282820595Y-44713390D01*
X282820595Y-44713390D02*
X282249167Y-45284819D01*
X282249167Y-45284819D02*
X282868214Y-45284819D01*
X302327142Y-106989580D02*
X302279523Y-107037200D01*
X302279523Y-107037200D02*
X302136666Y-107084819D01*
X302136666Y-107084819D02*
X302041428Y-107084819D01*
X302041428Y-107084819D02*
X301898571Y-107037200D01*
X301898571Y-107037200D02*
X301803333Y-106941961D01*
X301803333Y-106941961D02*
X301755714Y-106846723D01*
X301755714Y-106846723D02*
X301708095Y-106656247D01*
X301708095Y-106656247D02*
X301708095Y-106513390D01*
X301708095Y-106513390D02*
X301755714Y-106322914D01*
X301755714Y-106322914D02*
X301803333Y-106227676D01*
X301803333Y-106227676D02*
X301898571Y-106132438D01*
X301898571Y-106132438D02*
X302041428Y-106084819D01*
X302041428Y-106084819D02*
X302136666Y-106084819D01*
X302136666Y-106084819D02*
X302279523Y-106132438D01*
X302279523Y-106132438D02*
X302327142Y-106180057D01*
X303279523Y-107084819D02*
X302708095Y-107084819D01*
X302993809Y-107084819D02*
X302993809Y-106084819D01*
X302993809Y-106084819D02*
X302898571Y-106227676D01*
X302898571Y-106227676D02*
X302803333Y-106322914D01*
X302803333Y-106322914D02*
X302708095Y-106370533D01*
X304136666Y-106418152D02*
X304136666Y-107084819D01*
X303898571Y-106037200D02*
X303660476Y-106751485D01*
X303660476Y-106751485D02*
X304279523Y-106751485D01*
X302763333Y-109349580D02*
X302715714Y-109397200D01*
X302715714Y-109397200D02*
X302572857Y-109444819D01*
X302572857Y-109444819D02*
X302477619Y-109444819D01*
X302477619Y-109444819D02*
X302334762Y-109397200D01*
X302334762Y-109397200D02*
X302239524Y-109301961D01*
X302239524Y-109301961D02*
X302191905Y-109206723D01*
X302191905Y-109206723D02*
X302144286Y-109016247D01*
X302144286Y-109016247D02*
X302144286Y-108873390D01*
X302144286Y-108873390D02*
X302191905Y-108682914D01*
X302191905Y-108682914D02*
X302239524Y-108587676D01*
X302239524Y-108587676D02*
X302334762Y-108492438D01*
X302334762Y-108492438D02*
X302477619Y-108444819D01*
X302477619Y-108444819D02*
X302572857Y-108444819D01*
X302572857Y-108444819D02*
X302715714Y-108492438D01*
X302715714Y-108492438D02*
X302763333Y-108540057D01*
X303096667Y-108444819D02*
X303715714Y-108444819D01*
X303715714Y-108444819D02*
X303382381Y-108825771D01*
X303382381Y-108825771D02*
X303525238Y-108825771D01*
X303525238Y-108825771D02*
X303620476Y-108873390D01*
X303620476Y-108873390D02*
X303668095Y-108921009D01*
X303668095Y-108921009D02*
X303715714Y-109016247D01*
X303715714Y-109016247D02*
X303715714Y-109254342D01*
X303715714Y-109254342D02*
X303668095Y-109349580D01*
X303668095Y-109349580D02*
X303620476Y-109397200D01*
X303620476Y-109397200D02*
X303525238Y-109444819D01*
X303525238Y-109444819D02*
X303239524Y-109444819D01*
X303239524Y-109444819D02*
X303144286Y-109397200D01*
X303144286Y-109397200D02*
X303096667Y-109349580D01*
X299853333Y-98684819D02*
X299520000Y-98208628D01*
X299281905Y-98684819D02*
X299281905Y-97684819D01*
X299281905Y-97684819D02*
X299662857Y-97684819D01*
X299662857Y-97684819D02*
X299758095Y-97732438D01*
X299758095Y-97732438D02*
X299805714Y-97780057D01*
X299805714Y-97780057D02*
X299853333Y-97875295D01*
X299853333Y-97875295D02*
X299853333Y-98018152D01*
X299853333Y-98018152D02*
X299805714Y-98113390D01*
X299805714Y-98113390D02*
X299758095Y-98161009D01*
X299758095Y-98161009D02*
X299662857Y-98208628D01*
X299662857Y-98208628D02*
X299281905Y-98208628D01*
X300234286Y-97780057D02*
X300281905Y-97732438D01*
X300281905Y-97732438D02*
X300377143Y-97684819D01*
X300377143Y-97684819D02*
X300615238Y-97684819D01*
X300615238Y-97684819D02*
X300710476Y-97732438D01*
X300710476Y-97732438D02*
X300758095Y-97780057D01*
X300758095Y-97780057D02*
X300805714Y-97875295D01*
X300805714Y-97875295D02*
X300805714Y-97970533D01*
X300805714Y-97970533D02*
X300758095Y-98113390D01*
X300758095Y-98113390D02*
X300186667Y-98684819D01*
X300186667Y-98684819D02*
X300805714Y-98684819D01*
X277432380Y-33807200D02*
X277527618Y-33854819D01*
X277527618Y-33854819D02*
X277718094Y-33854819D01*
X277718094Y-33854819D02*
X277813332Y-33807200D01*
X277813332Y-33807200D02*
X277860951Y-33711961D01*
X277860951Y-33711961D02*
X277860951Y-33664342D01*
X277860951Y-33664342D02*
X277813332Y-33569104D01*
X277813332Y-33569104D02*
X277718094Y-33521485D01*
X277718094Y-33521485D02*
X277575237Y-33521485D01*
X277575237Y-33521485D02*
X277479999Y-33473866D01*
X277479999Y-33473866D02*
X277432380Y-33378628D01*
X277432380Y-33378628D02*
X277432380Y-33331009D01*
X277432380Y-33331009D02*
X277479999Y-33235771D01*
X277479999Y-33235771D02*
X277575237Y-33188152D01*
X277575237Y-33188152D02*
X277718094Y-33188152D01*
X277718094Y-33188152D02*
X277813332Y-33235771D01*
X278718094Y-33854819D02*
X278718094Y-33331009D01*
X278718094Y-33331009D02*
X278670475Y-33235771D01*
X278670475Y-33235771D02*
X278575237Y-33188152D01*
X278575237Y-33188152D02*
X278384761Y-33188152D01*
X278384761Y-33188152D02*
X278289523Y-33235771D01*
X278718094Y-33807200D02*
X278622856Y-33854819D01*
X278622856Y-33854819D02*
X278384761Y-33854819D01*
X278384761Y-33854819D02*
X278289523Y-33807200D01*
X278289523Y-33807200D02*
X278241904Y-33711961D01*
X278241904Y-33711961D02*
X278241904Y-33616723D01*
X278241904Y-33616723D02*
X278289523Y-33521485D01*
X278289523Y-33521485D02*
X278384761Y-33473866D01*
X278384761Y-33473866D02*
X278622856Y-33473866D01*
X278622856Y-33473866D02*
X278718094Y-33426247D01*
X279194285Y-33854819D02*
X279194285Y-32854819D01*
X279194285Y-33235771D02*
X279289523Y-33188152D01*
X279289523Y-33188152D02*
X279479999Y-33188152D01*
X279479999Y-33188152D02*
X279575237Y-33235771D01*
X279575237Y-33235771D02*
X279622856Y-33283390D01*
X279622856Y-33283390D02*
X279670475Y-33378628D01*
X279670475Y-33378628D02*
X279670475Y-33664342D01*
X279670475Y-33664342D02*
X279622856Y-33759580D01*
X279622856Y-33759580D02*
X279575237Y-33807200D01*
X279575237Y-33807200D02*
X279479999Y-33854819D01*
X279479999Y-33854819D02*
X279289523Y-33854819D01*
X279289523Y-33854819D02*
X279194285Y-33807200D01*
X280099047Y-33854819D02*
X280099047Y-33188152D01*
X280099047Y-32854819D02*
X280051428Y-32902438D01*
X280051428Y-32902438D02*
X280099047Y-32950057D01*
X280099047Y-32950057D02*
X280146666Y-32902438D01*
X280146666Y-32902438D02*
X280099047Y-32854819D01*
X280099047Y-32854819D02*
X280099047Y-32950057D01*
X280718094Y-33854819D02*
X280622856Y-33807200D01*
X280622856Y-33807200D02*
X280575237Y-33711961D01*
X280575237Y-33711961D02*
X280575237Y-32854819D01*
X281099047Y-33854819D02*
X281099047Y-33188152D01*
X281099047Y-32854819D02*
X281051428Y-32902438D01*
X281051428Y-32902438D02*
X281099047Y-32950057D01*
X281099047Y-32950057D02*
X281146666Y-32902438D01*
X281146666Y-32902438D02*
X281099047Y-32854819D01*
X281099047Y-32854819D02*
X281099047Y-32950057D01*
X281479999Y-33188152D02*
X282003808Y-33188152D01*
X282003808Y-33188152D02*
X281479999Y-33854819D01*
X281479999Y-33854819D02*
X282003808Y-33854819D01*
X282241904Y-33188152D02*
X282622856Y-33188152D01*
X282384761Y-32854819D02*
X282384761Y-33711961D01*
X282384761Y-33711961D02*
X282432380Y-33807200D01*
X282432380Y-33807200D02*
X282527618Y-33854819D01*
X282527618Y-33854819D02*
X282622856Y-33854819D01*
X283099047Y-33854819D02*
X283003809Y-33807200D01*
X283003809Y-33807200D02*
X282956190Y-33759580D01*
X282956190Y-33759580D02*
X282908571Y-33664342D01*
X282908571Y-33664342D02*
X282908571Y-33378628D01*
X282908571Y-33378628D02*
X282956190Y-33283390D01*
X282956190Y-33283390D02*
X283003809Y-33235771D01*
X283003809Y-33235771D02*
X283099047Y-33188152D01*
X283099047Y-33188152D02*
X283241904Y-33188152D01*
X283241904Y-33188152D02*
X283337142Y-33235771D01*
X283337142Y-33235771D02*
X283384761Y-33283390D01*
X283384761Y-33283390D02*
X283432380Y-33378628D01*
X283432380Y-33378628D02*
X283432380Y-33664342D01*
X283432380Y-33664342D02*
X283384761Y-33759580D01*
X283384761Y-33759580D02*
X283337142Y-33807200D01*
X283337142Y-33807200D02*
X283241904Y-33854819D01*
X283241904Y-33854819D02*
X283099047Y-33854819D01*
X283860952Y-33854819D02*
X283860952Y-33188152D01*
X283860952Y-33378628D02*
X283908571Y-33283390D01*
X283908571Y-33283390D02*
X283956190Y-33235771D01*
X283956190Y-33235771D02*
X284051428Y-33188152D01*
X284051428Y-33188152D02*
X284146666Y-33188152D01*
X284241905Y-33950057D02*
X285003809Y-33950057D01*
X285670476Y-33854819D02*
X285670476Y-32854819D01*
X285670476Y-33807200D02*
X285575238Y-33854819D01*
X285575238Y-33854819D02*
X285384762Y-33854819D01*
X285384762Y-33854819D02*
X285289524Y-33807200D01*
X285289524Y-33807200D02*
X285241905Y-33759580D01*
X285241905Y-33759580D02*
X285194286Y-33664342D01*
X285194286Y-33664342D02*
X285194286Y-33378628D01*
X285194286Y-33378628D02*
X285241905Y-33283390D01*
X285241905Y-33283390D02*
X285289524Y-33235771D01*
X285289524Y-33235771D02*
X285384762Y-33188152D01*
X285384762Y-33188152D02*
X285575238Y-33188152D01*
X285575238Y-33188152D02*
X285670476Y-33235771D01*
X286575238Y-33807200D02*
X286480000Y-33854819D01*
X286480000Y-33854819D02*
X286289524Y-33854819D01*
X286289524Y-33854819D02*
X286194286Y-33807200D01*
X286194286Y-33807200D02*
X286146667Y-33759580D01*
X286146667Y-33759580D02*
X286099048Y-33664342D01*
X286099048Y-33664342D02*
X286099048Y-33378628D01*
X286099048Y-33378628D02*
X286146667Y-33283390D01*
X286146667Y-33283390D02*
X286194286Y-33235771D01*
X286194286Y-33235771D02*
X286289524Y-33188152D01*
X286289524Y-33188152D02*
X286480000Y-33188152D01*
X286480000Y-33188152D02*
X286575238Y-33235771D01*
X287527619Y-33854819D02*
X286956191Y-33854819D01*
X287241905Y-33854819D02*
X287241905Y-32854819D01*
X287241905Y-32854819D02*
X287146667Y-32997676D01*
X287146667Y-32997676D02*
X287051429Y-33092914D01*
X287051429Y-33092914D02*
X286956191Y-33140533D01*
X305184405Y-111984819D02*
X305184405Y-110984819D01*
X305184405Y-110984819D02*
X305422500Y-110984819D01*
X305422500Y-110984819D02*
X305565357Y-111032438D01*
X305565357Y-111032438D02*
X305660595Y-111127676D01*
X305660595Y-111127676D02*
X305708214Y-111222914D01*
X305708214Y-111222914D02*
X305755833Y-111413390D01*
X305755833Y-111413390D02*
X305755833Y-111556247D01*
X305755833Y-111556247D02*
X305708214Y-111746723D01*
X305708214Y-111746723D02*
X305660595Y-111841961D01*
X305660595Y-111841961D02*
X305565357Y-111937200D01*
X305565357Y-111937200D02*
X305422500Y-111984819D01*
X305422500Y-111984819D02*
X305184405Y-111984819D01*
X306708214Y-111984819D02*
X306136786Y-111984819D01*
X306422500Y-111984819D02*
X306422500Y-110984819D01*
X306422500Y-110984819D02*
X306327262Y-111127676D01*
X306327262Y-111127676D02*
X306232024Y-111222914D01*
X306232024Y-111222914D02*
X306136786Y-111270533D01*
X313638095Y-78577319D02*
X313638095Y-79386842D01*
X313638095Y-79386842D02*
X313685714Y-79482080D01*
X313685714Y-79482080D02*
X313733333Y-79529700D01*
X313733333Y-79529700D02*
X313828571Y-79577319D01*
X313828571Y-79577319D02*
X314019047Y-79577319D01*
X314019047Y-79577319D02*
X314114285Y-79529700D01*
X314114285Y-79529700D02*
X314161904Y-79482080D01*
X314161904Y-79482080D02*
X314209523Y-79386842D01*
X314209523Y-79386842D02*
X314209523Y-78577319D01*
X315114285Y-78577319D02*
X314923809Y-78577319D01*
X314923809Y-78577319D02*
X314828571Y-78624938D01*
X314828571Y-78624938D02*
X314780952Y-78672557D01*
X314780952Y-78672557D02*
X314685714Y-78815414D01*
X314685714Y-78815414D02*
X314638095Y-79005890D01*
X314638095Y-79005890D02*
X314638095Y-79386842D01*
X314638095Y-79386842D02*
X314685714Y-79482080D01*
X314685714Y-79482080D02*
X314733333Y-79529700D01*
X314733333Y-79529700D02*
X314828571Y-79577319D01*
X314828571Y-79577319D02*
X315019047Y-79577319D01*
X315019047Y-79577319D02*
X315114285Y-79529700D01*
X315114285Y-79529700D02*
X315161904Y-79482080D01*
X315161904Y-79482080D02*
X315209523Y-79386842D01*
X315209523Y-79386842D02*
X315209523Y-79148747D01*
X315209523Y-79148747D02*
X315161904Y-79053509D01*
X315161904Y-79053509D02*
X315114285Y-79005890D01*
X315114285Y-79005890D02*
X315019047Y-78958271D01*
X315019047Y-78958271D02*
X314828571Y-78958271D01*
X314828571Y-78958271D02*
X314733333Y-79005890D01*
X314733333Y-79005890D02*
X314685714Y-79053509D01*
X314685714Y-79053509D02*
X314638095Y-79148747D01*
X276024819Y-48106190D02*
X275024819Y-48106190D01*
X275405771Y-48106190D02*
X275358152Y-48010952D01*
X275358152Y-48010952D02*
X275358152Y-47820476D01*
X275358152Y-47820476D02*
X275405771Y-47725238D01*
X275405771Y-47725238D02*
X275453390Y-47677619D01*
X275453390Y-47677619D02*
X275548628Y-47630000D01*
X275548628Y-47630000D02*
X275834342Y-47630000D01*
X275834342Y-47630000D02*
X275929580Y-47677619D01*
X275929580Y-47677619D02*
X275977200Y-47725238D01*
X275977200Y-47725238D02*
X276024819Y-47820476D01*
X276024819Y-47820476D02*
X276024819Y-48010952D01*
X276024819Y-48010952D02*
X275977200Y-48106190D01*
X276024819Y-46772857D02*
X275501009Y-46772857D01*
X275501009Y-46772857D02*
X275405771Y-46820476D01*
X275405771Y-46820476D02*
X275358152Y-46915714D01*
X275358152Y-46915714D02*
X275358152Y-47106190D01*
X275358152Y-47106190D02*
X275405771Y-47201428D01*
X275977200Y-46772857D02*
X276024819Y-46868095D01*
X276024819Y-46868095D02*
X276024819Y-47106190D01*
X276024819Y-47106190D02*
X275977200Y-47201428D01*
X275977200Y-47201428D02*
X275881961Y-47249047D01*
X275881961Y-47249047D02*
X275786723Y-47249047D01*
X275786723Y-47249047D02*
X275691485Y-47201428D01*
X275691485Y-47201428D02*
X275643866Y-47106190D01*
X275643866Y-47106190D02*
X275643866Y-46868095D01*
X275643866Y-46868095D02*
X275596247Y-46772857D01*
X275358152Y-46439523D02*
X275358152Y-46058571D01*
X275024819Y-46296666D02*
X275881961Y-46296666D01*
X275881961Y-46296666D02*
X275977200Y-46249047D01*
X275977200Y-46249047D02*
X276024819Y-46153809D01*
X276024819Y-46153809D02*
X276024819Y-46058571D01*
X276120057Y-45963333D02*
X276120057Y-45201428D01*
X275024819Y-45058570D02*
X275024819Y-44391904D01*
X275024819Y-44391904D02*
X276024819Y-44820475D01*
X275024819Y-44153808D02*
X276024819Y-43820475D01*
X276024819Y-43820475D02*
X275024819Y-43487142D01*
X276120057Y-43391904D02*
X276120057Y-42629999D01*
X276024819Y-41963332D02*
X275024819Y-41963332D01*
X275977200Y-41963332D02*
X276024819Y-42058570D01*
X276024819Y-42058570D02*
X276024819Y-42249046D01*
X276024819Y-42249046D02*
X275977200Y-42344284D01*
X275977200Y-42344284D02*
X275929580Y-42391903D01*
X275929580Y-42391903D02*
X275834342Y-42439522D01*
X275834342Y-42439522D02*
X275548628Y-42439522D01*
X275548628Y-42439522D02*
X275453390Y-42391903D01*
X275453390Y-42391903D02*
X275405771Y-42344284D01*
X275405771Y-42344284D02*
X275358152Y-42249046D01*
X275358152Y-42249046D02*
X275358152Y-42058570D01*
X275358152Y-42058570D02*
X275405771Y-41963332D01*
X275977200Y-41058570D02*
X276024819Y-41153808D01*
X276024819Y-41153808D02*
X276024819Y-41344284D01*
X276024819Y-41344284D02*
X275977200Y-41439522D01*
X275977200Y-41439522D02*
X275929580Y-41487141D01*
X275929580Y-41487141D02*
X275834342Y-41534760D01*
X275834342Y-41534760D02*
X275548628Y-41534760D01*
X275548628Y-41534760D02*
X275453390Y-41487141D01*
X275453390Y-41487141D02*
X275405771Y-41439522D01*
X275405771Y-41439522D02*
X275358152Y-41344284D01*
X275358152Y-41344284D02*
X275358152Y-41153808D01*
X275358152Y-41153808D02*
X275405771Y-41058570D01*
X276024819Y-40106189D02*
X276024819Y-40677617D01*
X276024819Y-40391903D02*
X275024819Y-40391903D01*
X275024819Y-40391903D02*
X275167676Y-40487141D01*
X275167676Y-40487141D02*
X275262914Y-40582379D01*
X275262914Y-40582379D02*
X275310533Y-40677617D01*
X289409580Y-46482857D02*
X289457200Y-46530476D01*
X289457200Y-46530476D02*
X289504819Y-46673333D01*
X289504819Y-46673333D02*
X289504819Y-46768571D01*
X289504819Y-46768571D02*
X289457200Y-46911428D01*
X289457200Y-46911428D02*
X289361961Y-47006666D01*
X289361961Y-47006666D02*
X289266723Y-47054285D01*
X289266723Y-47054285D02*
X289076247Y-47101904D01*
X289076247Y-47101904D02*
X288933390Y-47101904D01*
X288933390Y-47101904D02*
X288742914Y-47054285D01*
X288742914Y-47054285D02*
X288647676Y-47006666D01*
X288647676Y-47006666D02*
X288552438Y-46911428D01*
X288552438Y-46911428D02*
X288504819Y-46768571D01*
X288504819Y-46768571D02*
X288504819Y-46673333D01*
X288504819Y-46673333D02*
X288552438Y-46530476D01*
X288552438Y-46530476D02*
X288600057Y-46482857D01*
X289504819Y-45530476D02*
X289504819Y-46101904D01*
X289504819Y-45816190D02*
X288504819Y-45816190D01*
X288504819Y-45816190D02*
X288647676Y-45911428D01*
X288647676Y-45911428D02*
X288742914Y-46006666D01*
X288742914Y-46006666D02*
X288790533Y-46101904D01*
X288504819Y-45197142D02*
X288504819Y-44578095D01*
X288504819Y-44578095D02*
X288885771Y-44911428D01*
X288885771Y-44911428D02*
X288885771Y-44768571D01*
X288885771Y-44768571D02*
X288933390Y-44673333D01*
X288933390Y-44673333D02*
X288981009Y-44625714D01*
X288981009Y-44625714D02*
X289076247Y-44578095D01*
X289076247Y-44578095D02*
X289314342Y-44578095D01*
X289314342Y-44578095D02*
X289409580Y-44625714D01*
X289409580Y-44625714D02*
X289457200Y-44673333D01*
X289457200Y-44673333D02*
X289504819Y-44768571D01*
X289504819Y-44768571D02*
X289504819Y-45054285D01*
X289504819Y-45054285D02*
X289457200Y-45149523D01*
X289457200Y-45149523D02*
X289409580Y-45197142D01*
X300053333Y-129309580D02*
X300005714Y-129357200D01*
X300005714Y-129357200D02*
X299862857Y-129404819D01*
X299862857Y-129404819D02*
X299767619Y-129404819D01*
X299767619Y-129404819D02*
X299624762Y-129357200D01*
X299624762Y-129357200D02*
X299529524Y-129261961D01*
X299529524Y-129261961D02*
X299481905Y-129166723D01*
X299481905Y-129166723D02*
X299434286Y-128976247D01*
X299434286Y-128976247D02*
X299434286Y-128833390D01*
X299434286Y-128833390D02*
X299481905Y-128642914D01*
X299481905Y-128642914D02*
X299529524Y-128547676D01*
X299529524Y-128547676D02*
X299624762Y-128452438D01*
X299624762Y-128452438D02*
X299767619Y-128404819D01*
X299767619Y-128404819D02*
X299862857Y-128404819D01*
X299862857Y-128404819D02*
X300005714Y-128452438D01*
X300005714Y-128452438D02*
X300053333Y-128500057D01*
X300434286Y-128500057D02*
X300481905Y-128452438D01*
X300481905Y-128452438D02*
X300577143Y-128404819D01*
X300577143Y-128404819D02*
X300815238Y-128404819D01*
X300815238Y-128404819D02*
X300910476Y-128452438D01*
X300910476Y-128452438D02*
X300958095Y-128500057D01*
X300958095Y-128500057D02*
X301005714Y-128595295D01*
X301005714Y-128595295D02*
X301005714Y-128690533D01*
X301005714Y-128690533D02*
X300958095Y-128833390D01*
X300958095Y-128833390D02*
X300386667Y-129404819D01*
X300386667Y-129404819D02*
X301005714Y-129404819D01*
X299377142Y-87589580D02*
X299329523Y-87637200D01*
X299329523Y-87637200D02*
X299186666Y-87684819D01*
X299186666Y-87684819D02*
X299091428Y-87684819D01*
X299091428Y-87684819D02*
X298948571Y-87637200D01*
X298948571Y-87637200D02*
X298853333Y-87541961D01*
X298853333Y-87541961D02*
X298805714Y-87446723D01*
X298805714Y-87446723D02*
X298758095Y-87256247D01*
X298758095Y-87256247D02*
X298758095Y-87113390D01*
X298758095Y-87113390D02*
X298805714Y-86922914D01*
X298805714Y-86922914D02*
X298853333Y-86827676D01*
X298853333Y-86827676D02*
X298948571Y-86732438D01*
X298948571Y-86732438D02*
X299091428Y-86684819D01*
X299091428Y-86684819D02*
X299186666Y-86684819D01*
X299186666Y-86684819D02*
X299329523Y-86732438D01*
X299329523Y-86732438D02*
X299377142Y-86780057D01*
X300329523Y-87684819D02*
X299758095Y-87684819D01*
X300043809Y-87684819D02*
X300043809Y-86684819D01*
X300043809Y-86684819D02*
X299948571Y-86827676D01*
X299948571Y-86827676D02*
X299853333Y-86922914D01*
X299853333Y-86922914D02*
X299758095Y-86970533D01*
X300948571Y-86684819D02*
X301043809Y-86684819D01*
X301043809Y-86684819D02*
X301139047Y-86732438D01*
X301139047Y-86732438D02*
X301186666Y-86780057D01*
X301186666Y-86780057D02*
X301234285Y-86875295D01*
X301234285Y-86875295D02*
X301281904Y-87065771D01*
X301281904Y-87065771D02*
X301281904Y-87303866D01*
X301281904Y-87303866D02*
X301234285Y-87494342D01*
X301234285Y-87494342D02*
X301186666Y-87589580D01*
X301186666Y-87589580D02*
X301139047Y-87637200D01*
X301139047Y-87637200D02*
X301043809Y-87684819D01*
X301043809Y-87684819D02*
X300948571Y-87684819D01*
X300948571Y-87684819D02*
X300853333Y-87637200D01*
X300853333Y-87637200D02*
X300805714Y-87589580D01*
X300805714Y-87589580D02*
X300758095Y-87494342D01*
X300758095Y-87494342D02*
X300710476Y-87303866D01*
X300710476Y-87303866D02*
X300710476Y-87065771D01*
X300710476Y-87065771D02*
X300758095Y-86875295D01*
X300758095Y-86875295D02*
X300805714Y-86780057D01*
X300805714Y-86780057D02*
X300853333Y-86732438D01*
X300853333Y-86732438D02*
X300948571Y-86684819D01*
X279560475Y-195309819D02*
X279560475Y-194309819D01*
X279560475Y-194690771D02*
X279655713Y-194643152D01*
X279655713Y-194643152D02*
X279846189Y-194643152D01*
X279846189Y-194643152D02*
X279941427Y-194690771D01*
X279941427Y-194690771D02*
X279989046Y-194738390D01*
X279989046Y-194738390D02*
X280036665Y-194833628D01*
X280036665Y-194833628D02*
X280036665Y-195119342D01*
X280036665Y-195119342D02*
X279989046Y-195214580D01*
X279989046Y-195214580D02*
X279941427Y-195262200D01*
X279941427Y-195262200D02*
X279846189Y-195309819D01*
X279846189Y-195309819D02*
X279655713Y-195309819D01*
X279655713Y-195309819D02*
X279560475Y-195262200D01*
X280893808Y-195309819D02*
X280893808Y-194786009D01*
X280893808Y-194786009D02*
X280846189Y-194690771D01*
X280846189Y-194690771D02*
X280750951Y-194643152D01*
X280750951Y-194643152D02*
X280560475Y-194643152D01*
X280560475Y-194643152D02*
X280465237Y-194690771D01*
X280893808Y-195262200D02*
X280798570Y-195309819D01*
X280798570Y-195309819D02*
X280560475Y-195309819D01*
X280560475Y-195309819D02*
X280465237Y-195262200D01*
X280465237Y-195262200D02*
X280417618Y-195166961D01*
X280417618Y-195166961D02*
X280417618Y-195071723D01*
X280417618Y-195071723D02*
X280465237Y-194976485D01*
X280465237Y-194976485D02*
X280560475Y-194928866D01*
X280560475Y-194928866D02*
X280798570Y-194928866D01*
X280798570Y-194928866D02*
X280893808Y-194881247D01*
X281227142Y-194643152D02*
X281608094Y-194643152D01*
X281369999Y-194309819D02*
X281369999Y-195166961D01*
X281369999Y-195166961D02*
X281417618Y-195262200D01*
X281417618Y-195262200D02*
X281512856Y-195309819D01*
X281512856Y-195309819D02*
X281608094Y-195309819D01*
X281703333Y-195405057D02*
X282465237Y-195405057D01*
X283227142Y-195309819D02*
X282655714Y-195309819D01*
X282941428Y-195309819D02*
X282941428Y-194309819D01*
X282941428Y-194309819D02*
X282846190Y-194452676D01*
X282846190Y-194452676D02*
X282750952Y-194547914D01*
X282750952Y-194547914D02*
X282655714Y-194595533D01*
X283608095Y-194405057D02*
X283655714Y-194357438D01*
X283655714Y-194357438D02*
X283750952Y-194309819D01*
X283750952Y-194309819D02*
X283989047Y-194309819D01*
X283989047Y-194309819D02*
X284084285Y-194357438D01*
X284084285Y-194357438D02*
X284131904Y-194405057D01*
X284131904Y-194405057D02*
X284179523Y-194500295D01*
X284179523Y-194500295D02*
X284179523Y-194595533D01*
X284179523Y-194595533D02*
X284131904Y-194738390D01*
X284131904Y-194738390D02*
X283560476Y-195309819D01*
X283560476Y-195309819D02*
X284179523Y-195309819D01*
X284465238Y-194309819D02*
X284798571Y-195309819D01*
X284798571Y-195309819D02*
X285131904Y-194309819D01*
X285227143Y-195405057D02*
X285989047Y-195405057D01*
X286227143Y-195309819D02*
X286227143Y-194309819D01*
X286227143Y-194690771D02*
X286322381Y-194643152D01*
X286322381Y-194643152D02*
X286512857Y-194643152D01*
X286512857Y-194643152D02*
X286608095Y-194690771D01*
X286608095Y-194690771D02*
X286655714Y-194738390D01*
X286655714Y-194738390D02*
X286703333Y-194833628D01*
X286703333Y-194833628D02*
X286703333Y-195119342D01*
X286703333Y-195119342D02*
X286655714Y-195214580D01*
X286655714Y-195214580D02*
X286608095Y-195262200D01*
X286608095Y-195262200D02*
X286512857Y-195309819D01*
X286512857Y-195309819D02*
X286322381Y-195309819D01*
X286322381Y-195309819D02*
X286227143Y-195262200D01*
X287560476Y-195309819D02*
X287560476Y-194786009D01*
X287560476Y-194786009D02*
X287512857Y-194690771D01*
X287512857Y-194690771D02*
X287417619Y-194643152D01*
X287417619Y-194643152D02*
X287227143Y-194643152D01*
X287227143Y-194643152D02*
X287131905Y-194690771D01*
X287560476Y-195262200D02*
X287465238Y-195309819D01*
X287465238Y-195309819D02*
X287227143Y-195309819D01*
X287227143Y-195309819D02*
X287131905Y-195262200D01*
X287131905Y-195262200D02*
X287084286Y-195166961D01*
X287084286Y-195166961D02*
X287084286Y-195071723D01*
X287084286Y-195071723D02*
X287131905Y-194976485D01*
X287131905Y-194976485D02*
X287227143Y-194928866D01*
X287227143Y-194928866D02*
X287465238Y-194928866D01*
X287465238Y-194928866D02*
X287560476Y-194881247D01*
X288465238Y-195262200D02*
X288370000Y-195309819D01*
X288370000Y-195309819D02*
X288179524Y-195309819D01*
X288179524Y-195309819D02*
X288084286Y-195262200D01*
X288084286Y-195262200D02*
X288036667Y-195214580D01*
X288036667Y-195214580D02*
X287989048Y-195119342D01*
X287989048Y-195119342D02*
X287989048Y-194833628D01*
X287989048Y-194833628D02*
X288036667Y-194738390D01*
X288036667Y-194738390D02*
X288084286Y-194690771D01*
X288084286Y-194690771D02*
X288179524Y-194643152D01*
X288179524Y-194643152D02*
X288370000Y-194643152D01*
X288370000Y-194643152D02*
X288465238Y-194690771D01*
X288893810Y-195309819D02*
X288893810Y-194309819D01*
X288989048Y-194928866D02*
X289274762Y-195309819D01*
X289274762Y-194643152D02*
X288893810Y-195024104D01*
X290227143Y-195309819D02*
X289655715Y-195309819D01*
X289941429Y-195309819D02*
X289941429Y-194309819D01*
X289941429Y-194309819D02*
X289846191Y-194452676D01*
X289846191Y-194452676D02*
X289750953Y-194547914D01*
X289750953Y-194547914D02*
X289655715Y-194595533D01*
X321158095Y-127084819D02*
X321158095Y-127894342D01*
X321158095Y-127894342D02*
X321205714Y-127989580D01*
X321205714Y-127989580D02*
X321253333Y-128037200D01*
X321253333Y-128037200D02*
X321348571Y-128084819D01*
X321348571Y-128084819D02*
X321539047Y-128084819D01*
X321539047Y-128084819D02*
X321634285Y-128037200D01*
X321634285Y-128037200D02*
X321681904Y-127989580D01*
X321681904Y-127989580D02*
X321729523Y-127894342D01*
X321729523Y-127894342D02*
X321729523Y-127084819D01*
X322158095Y-127180057D02*
X322205714Y-127132438D01*
X322205714Y-127132438D02*
X322300952Y-127084819D01*
X322300952Y-127084819D02*
X322539047Y-127084819D01*
X322539047Y-127084819D02*
X322634285Y-127132438D01*
X322634285Y-127132438D02*
X322681904Y-127180057D01*
X322681904Y-127180057D02*
X322729523Y-127275295D01*
X322729523Y-127275295D02*
X322729523Y-127370533D01*
X322729523Y-127370533D02*
X322681904Y-127513390D01*
X322681904Y-127513390D02*
X322110476Y-128084819D01*
X322110476Y-128084819D02*
X322729523Y-128084819D01*
X319058095Y-144684819D02*
X319058095Y-145494342D01*
X319058095Y-145494342D02*
X319105714Y-145589580D01*
X319105714Y-145589580D02*
X319153333Y-145637200D01*
X319153333Y-145637200D02*
X319248571Y-145684819D01*
X319248571Y-145684819D02*
X319439047Y-145684819D01*
X319439047Y-145684819D02*
X319534285Y-145637200D01*
X319534285Y-145637200D02*
X319581904Y-145589580D01*
X319581904Y-145589580D02*
X319629523Y-145494342D01*
X319629523Y-145494342D02*
X319629523Y-144684819D01*
X320581904Y-144684819D02*
X320105714Y-144684819D01*
X320105714Y-144684819D02*
X320058095Y-145161009D01*
X320058095Y-145161009D02*
X320105714Y-145113390D01*
X320105714Y-145113390D02*
X320200952Y-145065771D01*
X320200952Y-145065771D02*
X320439047Y-145065771D01*
X320439047Y-145065771D02*
X320534285Y-145113390D01*
X320534285Y-145113390D02*
X320581904Y-145161009D01*
X320581904Y-145161009D02*
X320629523Y-145256247D01*
X320629523Y-145256247D02*
X320629523Y-145494342D01*
X320629523Y-145494342D02*
X320581904Y-145589580D01*
X320581904Y-145589580D02*
X320534285Y-145637200D01*
X320534285Y-145637200D02*
X320439047Y-145684819D01*
X320439047Y-145684819D02*
X320200952Y-145684819D01*
X320200952Y-145684819D02*
X320105714Y-145637200D01*
X320105714Y-145637200D02*
X320058095Y-145589580D01*
X302443333Y-124729580D02*
X302395714Y-124777200D01*
X302395714Y-124777200D02*
X302252857Y-124824819D01*
X302252857Y-124824819D02*
X302157619Y-124824819D01*
X302157619Y-124824819D02*
X302014762Y-124777200D01*
X302014762Y-124777200D02*
X301919524Y-124681961D01*
X301919524Y-124681961D02*
X301871905Y-124586723D01*
X301871905Y-124586723D02*
X301824286Y-124396247D01*
X301824286Y-124396247D02*
X301824286Y-124253390D01*
X301824286Y-124253390D02*
X301871905Y-124062914D01*
X301871905Y-124062914D02*
X301919524Y-123967676D01*
X301919524Y-123967676D02*
X302014762Y-123872438D01*
X302014762Y-123872438D02*
X302157619Y-123824819D01*
X302157619Y-123824819D02*
X302252857Y-123824819D01*
X302252857Y-123824819D02*
X302395714Y-123872438D01*
X302395714Y-123872438D02*
X302443333Y-123920057D01*
X303348095Y-123824819D02*
X302871905Y-123824819D01*
X302871905Y-123824819D02*
X302824286Y-124301009D01*
X302824286Y-124301009D02*
X302871905Y-124253390D01*
X302871905Y-124253390D02*
X302967143Y-124205771D01*
X302967143Y-124205771D02*
X303205238Y-124205771D01*
X303205238Y-124205771D02*
X303300476Y-124253390D01*
X303300476Y-124253390D02*
X303348095Y-124301009D01*
X303348095Y-124301009D02*
X303395714Y-124396247D01*
X303395714Y-124396247D02*
X303395714Y-124634342D01*
X303395714Y-124634342D02*
X303348095Y-124729580D01*
X303348095Y-124729580D02*
X303300476Y-124777200D01*
X303300476Y-124777200D02*
X303205238Y-124824819D01*
X303205238Y-124824819D02*
X302967143Y-124824819D01*
X302967143Y-124824819D02*
X302871905Y-124777200D01*
X302871905Y-124777200D02*
X302824286Y-124729580D01*
X290816666Y-178561009D02*
X290483333Y-178561009D01*
X290483333Y-179084819D02*
X290483333Y-178084819D01*
X290483333Y-178084819D02*
X290959523Y-178084819D01*
X291864285Y-179084819D02*
X291292857Y-179084819D01*
X291578571Y-179084819D02*
X291578571Y-178084819D01*
X291578571Y-178084819D02*
X291483333Y-178227676D01*
X291483333Y-178227676D02*
X291388095Y-178322914D01*
X291388095Y-178322914D02*
X291292857Y-178370533D01*
X300013333Y-137074819D02*
X299680000Y-136598628D01*
X299441905Y-137074819D02*
X299441905Y-136074819D01*
X299441905Y-136074819D02*
X299822857Y-136074819D01*
X299822857Y-136074819D02*
X299918095Y-136122438D01*
X299918095Y-136122438D02*
X299965714Y-136170057D01*
X299965714Y-136170057D02*
X300013333Y-136265295D01*
X300013333Y-136265295D02*
X300013333Y-136408152D01*
X300013333Y-136408152D02*
X299965714Y-136503390D01*
X299965714Y-136503390D02*
X299918095Y-136551009D01*
X299918095Y-136551009D02*
X299822857Y-136598628D01*
X299822857Y-136598628D02*
X299441905Y-136598628D01*
X300965714Y-137074819D02*
X300394286Y-137074819D01*
X300680000Y-137074819D02*
X300680000Y-136074819D01*
X300680000Y-136074819D02*
X300584762Y-136217676D01*
X300584762Y-136217676D02*
X300489524Y-136312914D01*
X300489524Y-136312914D02*
X300394286Y-136360533D01*
X267704819Y-194301428D02*
X268514342Y-194301428D01*
X268514342Y-194301428D02*
X268609580Y-194253809D01*
X268609580Y-194253809D02*
X268657200Y-194206190D01*
X268657200Y-194206190D02*
X268704819Y-194110952D01*
X268704819Y-194110952D02*
X268704819Y-193920476D01*
X268704819Y-193920476D02*
X268657200Y-193825238D01*
X268657200Y-193825238D02*
X268609580Y-193777619D01*
X268609580Y-193777619D02*
X268514342Y-193730000D01*
X268514342Y-193730000D02*
X267704819Y-193730000D01*
X268419104Y-193301428D02*
X268419104Y-192825238D01*
X268704819Y-193396666D02*
X267704819Y-193063333D01*
X267704819Y-193063333D02*
X268704819Y-192730000D01*
X268704819Y-191825238D02*
X268228628Y-192158571D01*
X268704819Y-192396666D02*
X267704819Y-192396666D01*
X267704819Y-192396666D02*
X267704819Y-192015714D01*
X267704819Y-192015714D02*
X267752438Y-191920476D01*
X267752438Y-191920476D02*
X267800057Y-191872857D01*
X267800057Y-191872857D02*
X267895295Y-191825238D01*
X267895295Y-191825238D02*
X268038152Y-191825238D01*
X268038152Y-191825238D02*
X268133390Y-191872857D01*
X268133390Y-191872857D02*
X268181009Y-191920476D01*
X268181009Y-191920476D02*
X268228628Y-192015714D01*
X268228628Y-192015714D02*
X268228628Y-192396666D01*
X267704819Y-191539523D02*
X267704819Y-190968095D01*
X268704819Y-191253809D02*
X267704819Y-191253809D01*
X267800057Y-190682380D02*
X267752438Y-190634761D01*
X267752438Y-190634761D02*
X267704819Y-190539523D01*
X267704819Y-190539523D02*
X267704819Y-190301428D01*
X267704819Y-190301428D02*
X267752438Y-190206190D01*
X267752438Y-190206190D02*
X267800057Y-190158571D01*
X267800057Y-190158571D02*
X267895295Y-190110952D01*
X267895295Y-190110952D02*
X267990533Y-190110952D01*
X267990533Y-190110952D02*
X268133390Y-190158571D01*
X268133390Y-190158571D02*
X268704819Y-190729999D01*
X268704819Y-190729999D02*
X268704819Y-190110952D01*
X314071509Y-71017311D02*
X313857843Y-71017311D01*
X313857843Y-71353072D02*
X313857843Y-70712074D01*
X313857843Y-70712074D02*
X314163080Y-70712074D01*
X314407270Y-71353072D02*
X314407270Y-70925740D01*
X314407270Y-71047835D02*
X314437794Y-70986788D01*
X314437794Y-70986788D02*
X314468318Y-70956264D01*
X314468318Y-70956264D02*
X314529365Y-70925740D01*
X314529365Y-70925740D02*
X314590412Y-70925740D01*
X314895649Y-71353072D02*
X314834602Y-71322549D01*
X314834602Y-71322549D02*
X314804078Y-71292025D01*
X314804078Y-71292025D02*
X314773554Y-71230977D01*
X314773554Y-71230977D02*
X314773554Y-71047835D01*
X314773554Y-71047835D02*
X314804078Y-70986788D01*
X314804078Y-70986788D02*
X314834602Y-70956264D01*
X314834602Y-70956264D02*
X314895649Y-70925740D01*
X314895649Y-70925740D02*
X314987220Y-70925740D01*
X314987220Y-70925740D02*
X315048268Y-70956264D01*
X315048268Y-70956264D02*
X315078792Y-70986788D01*
X315078792Y-70986788D02*
X315109315Y-71047835D01*
X315109315Y-71047835D02*
X315109315Y-71230977D01*
X315109315Y-71230977D02*
X315078792Y-71292025D01*
X315078792Y-71292025D02*
X315048268Y-71322549D01*
X315048268Y-71322549D02*
X314987220Y-71353072D01*
X314987220Y-71353072D02*
X314895649Y-71353072D01*
X315384029Y-70925740D02*
X315384029Y-71353072D01*
X315384029Y-70986788D02*
X315414553Y-70956264D01*
X315414553Y-70956264D02*
X315475600Y-70925740D01*
X315475600Y-70925740D02*
X315567171Y-70925740D01*
X315567171Y-70925740D02*
X315628219Y-70956264D01*
X315628219Y-70956264D02*
X315658743Y-71017311D01*
X315658743Y-71017311D02*
X315658743Y-71353072D01*
X315872409Y-70925740D02*
X316116599Y-70925740D01*
X315963980Y-70712074D02*
X315963980Y-71261501D01*
X315963980Y-71261501D02*
X315994504Y-71322549D01*
X315994504Y-71322549D02*
X316055551Y-71353072D01*
X316055551Y-71353072D02*
X316116599Y-71353072D01*
X316666026Y-71353072D02*
X316299741Y-71353072D01*
X316482884Y-71353072D02*
X316482884Y-70712074D01*
X316482884Y-70712074D02*
X316421836Y-70803645D01*
X316421836Y-70803645D02*
X316360789Y-70864693D01*
X316360789Y-70864693D02*
X316299741Y-70895217D01*
X299853333Y-79939819D02*
X299520000Y-79463628D01*
X299281905Y-79939819D02*
X299281905Y-78939819D01*
X299281905Y-78939819D02*
X299662857Y-78939819D01*
X299662857Y-78939819D02*
X299758095Y-78987438D01*
X299758095Y-78987438D02*
X299805714Y-79035057D01*
X299805714Y-79035057D02*
X299853333Y-79130295D01*
X299853333Y-79130295D02*
X299853333Y-79273152D01*
X299853333Y-79273152D02*
X299805714Y-79368390D01*
X299805714Y-79368390D02*
X299758095Y-79416009D01*
X299758095Y-79416009D02*
X299662857Y-79463628D01*
X299662857Y-79463628D02*
X299281905Y-79463628D01*
X300710476Y-79273152D02*
X300710476Y-79939819D01*
X300472381Y-78892200D02*
X300234286Y-79606485D01*
X300234286Y-79606485D02*
X300853333Y-79606485D01*
X289409580Y-43262857D02*
X289457200Y-43310476D01*
X289457200Y-43310476D02*
X289504819Y-43453333D01*
X289504819Y-43453333D02*
X289504819Y-43548571D01*
X289504819Y-43548571D02*
X289457200Y-43691428D01*
X289457200Y-43691428D02*
X289361961Y-43786666D01*
X289361961Y-43786666D02*
X289266723Y-43834285D01*
X289266723Y-43834285D02*
X289076247Y-43881904D01*
X289076247Y-43881904D02*
X288933390Y-43881904D01*
X288933390Y-43881904D02*
X288742914Y-43834285D01*
X288742914Y-43834285D02*
X288647676Y-43786666D01*
X288647676Y-43786666D02*
X288552438Y-43691428D01*
X288552438Y-43691428D02*
X288504819Y-43548571D01*
X288504819Y-43548571D02*
X288504819Y-43453333D01*
X288504819Y-43453333D02*
X288552438Y-43310476D01*
X288552438Y-43310476D02*
X288600057Y-43262857D01*
X289504819Y-42310476D02*
X289504819Y-42881904D01*
X289504819Y-42596190D02*
X288504819Y-42596190D01*
X288504819Y-42596190D02*
X288647676Y-42691428D01*
X288647676Y-42691428D02*
X288742914Y-42786666D01*
X288742914Y-42786666D02*
X288790533Y-42881904D01*
X289504819Y-41358095D02*
X289504819Y-41929523D01*
X289504819Y-41643809D02*
X288504819Y-41643809D01*
X288504819Y-41643809D02*
X288647676Y-41739047D01*
X288647676Y-41739047D02*
X288742914Y-41834285D01*
X288742914Y-41834285D02*
X288790533Y-41929523D01*
X288912856Y-48284819D02*
X288912856Y-47284819D01*
X288912856Y-47665771D02*
X289008094Y-47618152D01*
X289008094Y-47618152D02*
X289198570Y-47618152D01*
X289198570Y-47618152D02*
X289293808Y-47665771D01*
X289293808Y-47665771D02*
X289341427Y-47713390D01*
X289341427Y-47713390D02*
X289389046Y-47808628D01*
X289389046Y-47808628D02*
X289389046Y-48094342D01*
X289389046Y-48094342D02*
X289341427Y-48189580D01*
X289341427Y-48189580D02*
X289293808Y-48237200D01*
X289293808Y-48237200D02*
X289198570Y-48284819D01*
X289198570Y-48284819D02*
X289008094Y-48284819D01*
X289008094Y-48284819D02*
X288912856Y-48237200D01*
X290246189Y-48284819D02*
X290246189Y-47761009D01*
X290246189Y-47761009D02*
X290198570Y-47665771D01*
X290198570Y-47665771D02*
X290103332Y-47618152D01*
X290103332Y-47618152D02*
X289912856Y-47618152D01*
X289912856Y-47618152D02*
X289817618Y-47665771D01*
X290246189Y-48237200D02*
X290150951Y-48284819D01*
X290150951Y-48284819D02*
X289912856Y-48284819D01*
X289912856Y-48284819D02*
X289817618Y-48237200D01*
X289817618Y-48237200D02*
X289769999Y-48141961D01*
X289769999Y-48141961D02*
X289769999Y-48046723D01*
X289769999Y-48046723D02*
X289817618Y-47951485D01*
X289817618Y-47951485D02*
X289912856Y-47903866D01*
X289912856Y-47903866D02*
X290150951Y-47903866D01*
X290150951Y-47903866D02*
X290246189Y-47856247D01*
X290579523Y-47618152D02*
X290960475Y-47618152D01*
X290722380Y-47284819D02*
X290722380Y-48141961D01*
X290722380Y-48141961D02*
X290769999Y-48237200D01*
X290769999Y-48237200D02*
X290865237Y-48284819D01*
X290865237Y-48284819D02*
X290960475Y-48284819D01*
X291055714Y-48380057D02*
X291817618Y-48380057D01*
X292579523Y-48284819D02*
X292008095Y-48284819D01*
X292293809Y-48284819D02*
X292293809Y-47284819D01*
X292293809Y-47284819D02*
X292198571Y-47427676D01*
X292198571Y-47427676D02*
X292103333Y-47522914D01*
X292103333Y-47522914D02*
X292008095Y-47570533D01*
X292960476Y-47380057D02*
X293008095Y-47332438D01*
X293008095Y-47332438D02*
X293103333Y-47284819D01*
X293103333Y-47284819D02*
X293341428Y-47284819D01*
X293341428Y-47284819D02*
X293436666Y-47332438D01*
X293436666Y-47332438D02*
X293484285Y-47380057D01*
X293484285Y-47380057D02*
X293531904Y-47475295D01*
X293531904Y-47475295D02*
X293531904Y-47570533D01*
X293531904Y-47570533D02*
X293484285Y-47713390D01*
X293484285Y-47713390D02*
X292912857Y-48284819D01*
X292912857Y-48284819D02*
X293531904Y-48284819D01*
X293817619Y-47284819D02*
X294150952Y-48284819D01*
X294150952Y-48284819D02*
X294484285Y-47284819D01*
X294579524Y-48380057D02*
X295341428Y-48380057D01*
X295436667Y-47618152D02*
X295817619Y-47618152D01*
X295579524Y-48284819D02*
X295579524Y-47427676D01*
X295579524Y-47427676D02*
X295627143Y-47332438D01*
X295627143Y-47332438D02*
X295722381Y-47284819D01*
X295722381Y-47284819D02*
X295817619Y-47284819D01*
X296150953Y-48284819D02*
X296150953Y-47618152D01*
X296150953Y-47808628D02*
X296198572Y-47713390D01*
X296198572Y-47713390D02*
X296246191Y-47665771D01*
X296246191Y-47665771D02*
X296341429Y-47618152D01*
X296341429Y-47618152D02*
X296436667Y-47618152D01*
X296912858Y-48284819D02*
X296817620Y-48237200D01*
X296817620Y-48237200D02*
X296770001Y-48189580D01*
X296770001Y-48189580D02*
X296722382Y-48094342D01*
X296722382Y-48094342D02*
X296722382Y-47808628D01*
X296722382Y-47808628D02*
X296770001Y-47713390D01*
X296770001Y-47713390D02*
X296817620Y-47665771D01*
X296817620Y-47665771D02*
X296912858Y-47618152D01*
X296912858Y-47618152D02*
X297055715Y-47618152D01*
X297055715Y-47618152D02*
X297150953Y-47665771D01*
X297150953Y-47665771D02*
X297198572Y-47713390D01*
X297198572Y-47713390D02*
X297246191Y-47808628D01*
X297246191Y-47808628D02*
X297246191Y-48094342D01*
X297246191Y-48094342D02*
X297198572Y-48189580D01*
X297198572Y-48189580D02*
X297150953Y-48237200D01*
X297150953Y-48237200D02*
X297055715Y-48284819D01*
X297055715Y-48284819D02*
X296912858Y-48284819D01*
X297674763Y-47618152D02*
X297674763Y-48284819D01*
X297674763Y-47713390D02*
X297722382Y-47665771D01*
X297722382Y-47665771D02*
X297817620Y-47618152D01*
X297817620Y-47618152D02*
X297960477Y-47618152D01*
X297960477Y-47618152D02*
X298055715Y-47665771D01*
X298055715Y-47665771D02*
X298103334Y-47761009D01*
X298103334Y-47761009D02*
X298103334Y-48284819D01*
X298436668Y-47618152D02*
X298817620Y-47618152D01*
X298579525Y-47284819D02*
X298579525Y-48141961D01*
X298579525Y-48141961D02*
X298627144Y-48237200D01*
X298627144Y-48237200D02*
X298722382Y-48284819D01*
X298722382Y-48284819D02*
X298817620Y-48284819D01*
X299674763Y-48284819D02*
X299103335Y-48284819D01*
X299389049Y-48284819D02*
X299389049Y-47284819D01*
X299389049Y-47284819D02*
X299293811Y-47427676D01*
X299293811Y-47427676D02*
X299198573Y-47522914D01*
X299198573Y-47522914D02*
X299103335Y-47570533D01*
X302153333Y-128089580D02*
X302105714Y-128137200D01*
X302105714Y-128137200D02*
X301962857Y-128184819D01*
X301962857Y-128184819D02*
X301867619Y-128184819D01*
X301867619Y-128184819D02*
X301724762Y-128137200D01*
X301724762Y-128137200D02*
X301629524Y-128041961D01*
X301629524Y-128041961D02*
X301581905Y-127946723D01*
X301581905Y-127946723D02*
X301534286Y-127756247D01*
X301534286Y-127756247D02*
X301534286Y-127613390D01*
X301534286Y-127613390D02*
X301581905Y-127422914D01*
X301581905Y-127422914D02*
X301629524Y-127327676D01*
X301629524Y-127327676D02*
X301724762Y-127232438D01*
X301724762Y-127232438D02*
X301867619Y-127184819D01*
X301867619Y-127184819D02*
X301962857Y-127184819D01*
X301962857Y-127184819D02*
X302105714Y-127232438D01*
X302105714Y-127232438D02*
X302153333Y-127280057D01*
X302724762Y-127613390D02*
X302629524Y-127565771D01*
X302629524Y-127565771D02*
X302581905Y-127518152D01*
X302581905Y-127518152D02*
X302534286Y-127422914D01*
X302534286Y-127422914D02*
X302534286Y-127375295D01*
X302534286Y-127375295D02*
X302581905Y-127280057D01*
X302581905Y-127280057D02*
X302629524Y-127232438D01*
X302629524Y-127232438D02*
X302724762Y-127184819D01*
X302724762Y-127184819D02*
X302915238Y-127184819D01*
X302915238Y-127184819D02*
X303010476Y-127232438D01*
X303010476Y-127232438D02*
X303058095Y-127280057D01*
X303058095Y-127280057D02*
X303105714Y-127375295D01*
X303105714Y-127375295D02*
X303105714Y-127422914D01*
X303105714Y-127422914D02*
X303058095Y-127518152D01*
X303058095Y-127518152D02*
X303010476Y-127565771D01*
X303010476Y-127565771D02*
X302915238Y-127613390D01*
X302915238Y-127613390D02*
X302724762Y-127613390D01*
X302724762Y-127613390D02*
X302629524Y-127661009D01*
X302629524Y-127661009D02*
X302581905Y-127708628D01*
X302581905Y-127708628D02*
X302534286Y-127803866D01*
X302534286Y-127803866D02*
X302534286Y-127994342D01*
X302534286Y-127994342D02*
X302581905Y-128089580D01*
X302581905Y-128089580D02*
X302629524Y-128137200D01*
X302629524Y-128137200D02*
X302724762Y-128184819D01*
X302724762Y-128184819D02*
X302915238Y-128184819D01*
X302915238Y-128184819D02*
X303010476Y-128137200D01*
X303010476Y-128137200D02*
X303058095Y-128089580D01*
X303058095Y-128089580D02*
X303105714Y-127994342D01*
X303105714Y-127994342D02*
X303105714Y-127803866D01*
X303105714Y-127803866D02*
X303058095Y-127708628D01*
X303058095Y-127708628D02*
X303010476Y-127661009D01*
X303010476Y-127661009D02*
X302915238Y-127613390D01*
D11*
%TO.C,BackB_output1*%
X327290000Y-151360000D02*
X327290000Y-148760000D01*
X327290000Y-153960000D02*
X327290000Y-152630000D01*
X328620000Y-153960000D02*
X327290000Y-153960000D01*
X329950000Y-148760000D02*
X327290000Y-148760000D01*
X329950000Y-151360000D02*
X327290000Y-151360000D01*
X329950000Y-151360000D02*
X329950000Y-148760000D01*
%TO.C,FrontB_output1*%
X329950000Y-98700000D02*
X329950000Y-96100000D01*
X329950000Y-98700000D02*
X327290000Y-98700000D01*
X329950000Y-96100000D02*
X327290000Y-96100000D01*
X328620000Y-101300000D02*
X327290000Y-101300000D01*
X327290000Y-101300000D02*
X327290000Y-99970000D01*
X327290000Y-98700000D02*
X327290000Y-96100000D01*
%TO.C,FrontA_output1*%
X326690000Y-80960000D02*
X326690000Y-83560000D01*
X326690000Y-80960000D02*
X329350000Y-80960000D01*
X326690000Y-83560000D02*
X329350000Y-83560000D01*
X328020000Y-78360000D02*
X329350000Y-78360000D01*
X329350000Y-78360000D02*
X329350000Y-79690000D01*
X329350000Y-80960000D02*
X329350000Y-83560000D01*
%TO.C,BazkB_output1*%
X329750000Y-133360000D02*
X329750000Y-130760000D01*
X329750000Y-133360000D02*
X327090000Y-133360000D01*
X329750000Y-130760000D02*
X327090000Y-130760000D01*
X328420000Y-135960000D02*
X327090000Y-135960000D01*
X327090000Y-135960000D02*
X327090000Y-134630000D01*
X327090000Y-133360000D02*
X327090000Y-130760000D01*
%TO.C,bat_7V_ac1*%
X309470000Y-115270000D02*
X309470000Y-112670000D01*
X309470000Y-117870000D02*
X309470000Y-116540000D01*
X310800000Y-117870000D02*
X309470000Y-117870000D01*
X312130000Y-112670000D02*
X309470000Y-112670000D01*
X312130000Y-115270000D02*
X309470000Y-115270000D01*
X312130000Y-115270000D02*
X312130000Y-112670000D01*
%TO.C,C9*%
X299988748Y-148715000D02*
X300511252Y-148715000D01*
X299988748Y-150185000D02*
X300511252Y-150185000D01*
%TO.C,sabilizator_adc1*%
X313176500Y-111412500D02*
X313176500Y-121652500D01*
X316307500Y-111412500D02*
X316307500Y-121652500D01*
X317817500Y-111412500D02*
X313176500Y-111412500D01*
X317817500Y-111412500D02*
X317817500Y-121652500D01*
X317817500Y-114682500D02*
X316307500Y-114682500D01*
X317817500Y-118383500D02*
X316307500Y-118383500D01*
X317817500Y-121652500D02*
X313176500Y-121652500D01*
D12*
%TO.C,Back1*%
X304870000Y-163130000D02*
X320110000Y-163130000D01*
X304870000Y-183450000D02*
X304870000Y-163130000D01*
X320110000Y-163130000D02*
X320110000Y-183450000D01*
X320110000Y-183450000D02*
X304870000Y-183450000D01*
D13*
X320840000Y-182190000D02*
G75*
G02*
X320540000Y-182190000I-150000J0D01*
G01*
X320540000Y-182190000D02*
G75*
G02*
X320840000Y-182190000I150000J0D01*
G01*
D11*
%TO.C,C4*%
X300281252Y-102295000D02*
X299758748Y-102295000D01*
X300281252Y-103765000D02*
X299758748Y-103765000D01*
%TO.C,R3*%
X300457064Y-151645000D02*
X300002936Y-151645000D01*
X300457064Y-153115000D02*
X300002936Y-153115000D01*
%TO.C,C7*%
X306081252Y-143895000D02*
X305558748Y-143895000D01*
X306081252Y-145365000D02*
X305558748Y-145365000D01*
%TO.C,U4*%
X302650000Y-103590000D02*
X302650000Y-95190000D01*
X302650000Y-103590000D02*
X310650000Y-103590000D01*
X303770000Y-94070000D02*
X311000000Y-94070000D01*
X310650000Y-104290000D02*
X310650000Y-103590000D01*
X310650000Y-104290000D02*
X311370000Y-104290000D01*
X318140000Y-104290000D02*
X318870000Y-104290000D01*
X318150000Y-94070000D02*
X323960000Y-94070000D01*
X318870000Y-103590000D02*
X325070000Y-103590000D01*
X318870000Y-104290000D02*
X318870000Y-103590000D01*
X325070000Y-103590000D02*
X325070000Y-95180000D01*
X302650000Y-95180000D02*
G75*
G02*
X303760000Y-94070000I1109998J2D01*
G01*
X323960000Y-94070000D02*
G75*
G02*
X325070000Y-95180000I0J-1110000D01*
G01*
X311020000Y-92830000D02*
X310690000Y-93070000D01*
X310690000Y-92590000D01*
X311020000Y-92830000D01*
G36*
X311020000Y-92830000D02*
G01*
X310690000Y-93070000D01*
X310690000Y-92590000D01*
X311020000Y-92830000D01*
G37*
%TO.C,C24*%
X306351252Y-86325000D02*
X305828748Y-86325000D01*
X306351252Y-87795000D02*
X305828748Y-87795000D01*
D14*
%TO.C,U1*%
X227750000Y-56300000D02*
X297750000Y-56300000D01*
X227750000Y-189300000D02*
X227750000Y-56300000D01*
X297750000Y-56300000D02*
X297750000Y-189300000D01*
X297750000Y-189300000D02*
X227750000Y-189300000D01*
X235460000Y-159500000D02*
X228960000Y-159500000D01*
X228960000Y-67500000D01*
X235460000Y-67500000D01*
X235460000Y-159500000D01*
X296520000Y-159340000D02*
X290020000Y-159340000D01*
X290020000Y-67340000D01*
X296520000Y-67340000D01*
X296520000Y-159340000D01*
D11*
%TO.C,F2*%
X292780000Y-36970000D02*
X315500000Y-36970000D01*
X292780000Y-40130000D02*
X292780000Y-36970000D01*
X292780000Y-46790000D02*
X292780000Y-43630000D01*
X292780000Y-46790000D02*
X315500000Y-46790000D01*
X315500000Y-40130000D02*
X315500000Y-36970000D01*
X315500000Y-46790000D02*
X315500000Y-43630000D01*
%TO.C,D2*%
X280335000Y-41870000D02*
X280335000Y-43790000D01*
X280335000Y-43790000D02*
X283020000Y-43790000D01*
X283020000Y-41870000D02*
X280335000Y-41870000D01*
%TO.C,C14*%
X306281252Y-104895000D02*
X305758748Y-104895000D01*
X306281252Y-106365000D02*
X305758748Y-106365000D01*
%TO.C,C3*%
X305718748Y-107655000D02*
X306241252Y-107655000D01*
X305718748Y-109125000D02*
X306241252Y-109125000D01*
%TO.C,R2*%
X300247064Y-99495000D02*
X299792936Y-99495000D01*
X300247064Y-100965000D02*
X299792936Y-100965000D01*
%TO.C,sabiliztor_dc1*%
X277360000Y-34400000D02*
X277360000Y-39041000D01*
X277360000Y-34400000D02*
X287600000Y-34400000D01*
X277360000Y-35910000D02*
X287600000Y-35910000D01*
X277360000Y-39041000D02*
X287600000Y-39041000D01*
X280630000Y-34400000D02*
X280630000Y-35910000D01*
X284331000Y-34400000D02*
X284331000Y-35910000D01*
X287600000Y-34400000D02*
X287600000Y-39041000D01*
%TO.C,D1*%
X305620000Y-114990000D02*
X308305000Y-114990000D01*
X308305000Y-113070000D02*
X305620000Y-113070000D01*
X308305000Y-114990000D02*
X308305000Y-113070000D01*
%TO.C,U6*%
X302450000Y-85390000D02*
X302450000Y-76990000D01*
X302450000Y-85390000D02*
X310450000Y-85390000D01*
X303570000Y-75870000D02*
X310800000Y-75870000D01*
X310450000Y-86090000D02*
X310450000Y-85390000D01*
X310450000Y-86090000D02*
X311170000Y-86090000D01*
X317940000Y-86090000D02*
X318670000Y-86090000D01*
X317950000Y-75870000D02*
X323760000Y-75870000D01*
X318670000Y-85390000D02*
X324870000Y-85390000D01*
X318670000Y-86090000D02*
X318670000Y-85390000D01*
X324870000Y-85390000D02*
X324870000Y-76980000D01*
X302450000Y-76980000D02*
G75*
G02*
X303560000Y-75870000I1109998J2D01*
G01*
X323760000Y-75870000D02*
G75*
G02*
X324870000Y-76980000I0J-1110000D01*
G01*
X310820000Y-74630000D02*
X310490000Y-74870000D01*
X310490000Y-74390000D01*
X310820000Y-74630000D01*
G36*
X310820000Y-74630000D02*
G01*
X310490000Y-74870000D01*
X310490000Y-74390000D01*
X310820000Y-74630000D01*
G37*
%TO.C,bat_7V_dc1*%
X276740000Y-43900000D02*
X276740000Y-41300000D01*
X276740000Y-46500000D02*
X276740000Y-45170000D01*
X278070000Y-46500000D02*
X276740000Y-46500000D01*
X279400000Y-41300000D02*
X276740000Y-41300000D01*
X279400000Y-43900000D02*
X276740000Y-43900000D01*
X279400000Y-43900000D02*
X279400000Y-41300000D01*
%TO.C,C13*%
X285788748Y-45105000D02*
X286311252Y-45105000D01*
X285788748Y-46575000D02*
X286311252Y-46575000D01*
%TO.C,C2*%
X299958748Y-129895000D02*
X300481252Y-129895000D01*
X299958748Y-131365000D02*
X300481252Y-131365000D01*
%TO.C,C10*%
X300281252Y-84295000D02*
X299758748Y-84295000D01*
X300281252Y-85765000D02*
X299758748Y-85765000D01*
%TO.C,bat_12V_back1*%
X278950000Y-190900000D02*
X278950000Y-193560000D01*
X281550000Y-190900000D02*
X278950000Y-190900000D01*
X281550000Y-190900000D02*
X281550000Y-193560000D01*
X281550000Y-193560000D02*
X278950000Y-193560000D01*
X284150000Y-192230000D02*
X284150000Y-193560000D01*
X284150000Y-193560000D02*
X282820000Y-193560000D01*
%TO.C,U2*%
X302650000Y-138390000D02*
X302650000Y-129990000D01*
X302650000Y-138390000D02*
X310650000Y-138390000D01*
X303770000Y-128870000D02*
X311000000Y-128870000D01*
X310650000Y-139090000D02*
X310650000Y-138390000D01*
X310650000Y-139090000D02*
X311370000Y-139090000D01*
X318140000Y-139090000D02*
X318870000Y-139090000D01*
X318150000Y-128870000D02*
X323960000Y-128870000D01*
X318870000Y-138390000D02*
X325070000Y-138390000D01*
X318870000Y-139090000D02*
X318870000Y-138390000D01*
X325070000Y-138390000D02*
X325070000Y-129980000D01*
X302650000Y-129980000D02*
G75*
G02*
X303760000Y-128870000I1109998J2D01*
G01*
X323960000Y-128870000D02*
G75*
G02*
X325070000Y-129980000I0J-1110000D01*
G01*
X311020000Y-127630000D02*
X310690000Y-127870000D01*
X310690000Y-127390000D01*
X311020000Y-127630000D01*
G36*
X311020000Y-127630000D02*
G01*
X310690000Y-127870000D01*
X310690000Y-127390000D01*
X311020000Y-127630000D01*
G37*
%TO.C,U5*%
X302650000Y-155990000D02*
X302650000Y-147590000D01*
X302650000Y-155990000D02*
X310650000Y-155990000D01*
X303770000Y-146470000D02*
X311000000Y-146470000D01*
X310650000Y-156690000D02*
X310650000Y-155990000D01*
X310650000Y-156690000D02*
X311370000Y-156690000D01*
X318140000Y-156690000D02*
X318870000Y-156690000D01*
X318150000Y-146470000D02*
X323960000Y-146470000D01*
X318870000Y-155990000D02*
X325070000Y-155990000D01*
X318870000Y-156690000D02*
X318870000Y-155990000D01*
X325070000Y-155990000D02*
X325070000Y-147580000D01*
X302650000Y-147580000D02*
G75*
G02*
X303760000Y-146470000I1109998J2D01*
G01*
X323960000Y-146470000D02*
G75*
G02*
X325070000Y-147580000I0J-1110000D01*
G01*
X311020000Y-145230000D02*
X310690000Y-145470000D01*
X310690000Y-144990000D01*
X311020000Y-145230000D01*
G36*
X311020000Y-145230000D02*
G01*
X310690000Y-145470000D01*
X310690000Y-144990000D01*
X311020000Y-145230000D01*
G37*
%TO.C,C5*%
X306121252Y-123635000D02*
X305598748Y-123635000D01*
X306121252Y-125105000D02*
X305598748Y-125105000D01*
%TO.C,F1*%
X279790000Y-179720000D02*
X302510000Y-179720000D01*
X279790000Y-182880000D02*
X279790000Y-179720000D01*
X279790000Y-189540000D02*
X279790000Y-186380000D01*
X279790000Y-189540000D02*
X302510000Y-189540000D01*
X302510000Y-182880000D02*
X302510000Y-179720000D01*
X302510000Y-189540000D02*
X302510000Y-186380000D01*
%TO.C,R1*%
X300407064Y-134235000D02*
X299952936Y-134235000D01*
X300407064Y-135705000D02*
X299952936Y-135705000D01*
%TO.C,UART2*%
X269690000Y-190900000D02*
X271020000Y-190900000D01*
X269690000Y-192230000D02*
X269690000Y-190900000D01*
X272290000Y-190900000D02*
X277430000Y-190900000D01*
X272290000Y-193560000D02*
X272290000Y-190900000D01*
X272290000Y-193560000D02*
X277430000Y-193560000D01*
X277430000Y-193560000D02*
X277430000Y-190900000D01*
D12*
%TO.C,Front1*%
X302050000Y-49380000D02*
X317290000Y-49380000D01*
X302050000Y-69700000D02*
X302050000Y-49380000D01*
X317290000Y-49380000D02*
X317290000Y-69700000D01*
X317290000Y-69700000D02*
X302050000Y-69700000D01*
D13*
X318020000Y-68440000D02*
G75*
G02*
X317720000Y-68440000I-150000J0D01*
G01*
X317720000Y-68440000D02*
G75*
G02*
X318020000Y-68440000I150000J0D01*
G01*
D11*
%TO.C,R4*%
X300247064Y-81295000D02*
X299792936Y-81295000D01*
X300247064Y-82765000D02*
X299792936Y-82765000D01*
%TO.C,C11*%
X286311252Y-41885000D02*
X285788748Y-41885000D01*
X286311252Y-43355000D02*
X285788748Y-43355000D01*
%TO.C,bat_12V_front1*%
X291650000Y-48790000D02*
X291650000Y-51450000D01*
X294250000Y-48790000D02*
X291650000Y-48790000D01*
X294250000Y-48790000D02*
X294250000Y-51450000D01*
X294250000Y-51450000D02*
X291650000Y-51450000D01*
X296850000Y-50120000D02*
X296850000Y-51450000D01*
X296850000Y-51450000D02*
X295520000Y-51450000D01*
%TO.C,C8*%
X306081252Y-126495000D02*
X305558748Y-126495000D01*
X306081252Y-127965000D02*
X305558748Y-127965000D01*
%TD*%
M02*
